<svg width="24" height="24" viewBox="0 0 24 24" fill="none" xmlns="http://www.w3.org/2000/svg">
<g id="Business">
<path id="Vector" d="M18.6972 13.5247C18.6466 13.3027 18.5238 13.093 18.3299 12.9237C18.135 12.7556 17.8971 12.6542 17.6503 12.6169L13.6839 11.8494L14.8314 12.611L13.0198 18.2899L11.9997 14.0716L10.9791 18.29L9.16826 12.6111L10.3153 11.8495L6.34886 12.617C6.10214 12.6543 5.8643 12.7556 5.66918 12.9238C5.47526 13.0932 5.35238 13.3028 5.30198 13.5248L4.12598 18.6903L6.34442 19.4601C7.08086 20.2257 9.14246 20.7889 11.6151 20.8425H12.384C14.8566 20.789 16.918 20.2257 17.6547 19.4601L19.8732 18.6903L18.6972 13.5247Z" fill="#525256"/>
<path id="Vector_2" d="M12 12.4262L11.0857 12.7535L12 14.0717L12.9145 12.7535L12 12.4262ZM15.3947 7.33947C15.3947 4.99503 14.4299 3.15771 12 3.15771C9.56988 3.15771 8.60556 4.99515 8.60556 7.33947C8.3514 7.47207 8.18448 7.78323 8.43408 8.45007C8.55996 8.78487 8.78184 9.06543 8.97012 9.21231C9.66264 10.9365 11.0245 12.2675 12 12.2675C12.9755 12.2675 14.3375 10.9365 15.0296 9.21231C15.2182 9.06543 15.4397 8.78475 15.5659 8.45007C15.8155 7.78311 15.6487 7.47207 15.3947 7.33947ZM3.83472 17.5122C2.7024 17.3784 1.80984 17.0724 1.43844 16.6865L0 16.1873L0.76248 12.8382C0.79524 12.6944 0.87504 12.5583 1.00068 12.4487C1.12585 12.3422 1.27861 12.2732 1.44132 12.2498L4.22712 11.6117C3.80796 11.2533 3.40104 10.6912 3.14076 10.0421C3.0186 9.94707 2.87472 9.76515 2.793 9.54796C2.631 9.11584 2.73924 8.91411 2.90412 8.82796C2.90412 7.30803 3.52908 6.11679 5.1048 6.11679H5.10516C6.68052 6.11679 7.30584 7.30803 7.30584 8.82796C7.47072 8.91411 7.57896 9.11584 7.4172 9.54796C7.33536 9.76515 7.19148 9.94707 7.06932 10.0421C6.80904 10.6911 6.402 11.2532 5.98296 11.6117L7.21476 11.894L6.25584 12.0794C5.90184 12.1346 5.5758 12.284 5.31084 12.5128C5.03544 12.7534 4.84824 13.0613 4.77012 13.4036L3.83472 17.5122ZM23.2375 12.8381C23.2045 12.6942 23.125 12.5582 22.9993 12.4486C22.8731 12.3396 22.7189 12.2736 22.5587 12.2496L19.773 11.6116C20.1922 11.2532 20.599 10.6911 20.8596 10.042C20.9819 9.94695 21.1254 9.76504 21.2071 9.54783C21.3691 9.11572 21.2609 8.914 21.0961 8.82784C21.0961 7.30792 20.4704 6.11667 18.895 6.11667C17.3194 6.11667 16.694 7.30792 16.694 8.82784C16.5294 8.914 16.421 9.11572 16.583 9.54783C16.6645 9.76504 16.8084 9.94695 16.9306 10.042C17.1911 10.691 17.598 11.253 18.0172 11.6116L16.7851 11.8938L17.744 12.0792C18.0978 12.1344 18.4241 12.2838 18.6868 12.5105C18.9644 12.7532 19.1513 13.0612 19.2294 13.403L20.1649 17.5122C21.2972 17.3784 22.1898 17.0724 22.5613 16.6865L23.9996 16.1873L23.2375 12.8381Z" fill="#9F9F9F"/>
</g>
</svg>
