<svg width="24" height="24" viewBox="0 0 24 24" fill="none" xmlns="http://www.w3.org/2000/svg">
<g id="Wedding Ring">
<path id="Vector" d="M16.4261 7.16175L17.562 5.45775C17.6614 5.30925 17.6415 5.11087 17.5151 4.9845L16.7651 4.2345C16.695 4.16437 16.5994 4.125 16.5 4.125H15C14.9006 4.125 14.805 4.16438 14.7349 4.23488L13.9849 4.98488C13.8585 5.11125 13.8386 5.30925 13.938 5.45813L15.0739 7.16213C13.9327 7.28288 12.8846 7.71038 12.003 8.35388C10.9192 7.56263 9.59963 7.125 8.25 7.125C4.73475 7.125 1.875 9.98475 1.875 13.5C1.875 17.0153 4.73475 19.875 8.25 19.875C9.59963 19.875 10.9192 19.4374 12.003 18.6465C13.0564 19.4152 14.349 19.875 15.75 19.875C19.2652 19.875 22.125 17.0153 22.125 13.5C22.125 10.2131 19.6245 7.50075 16.4261 7.16175ZM15.75 6.82388L15.2006 6H16.2994L15.75 6.82388ZM15.1553 4.875H16.3447L16.7197 5.25H14.7803L15.1553 4.875ZM8.25 19.125C5.14838 19.125 2.625 16.6016 2.625 13.5C2.625 10.3984 5.14838 7.875 8.25 7.875C9.37687 7.875 10.482 8.21813 11.4075 8.84588C11.3134 8.93363 11.2215 9.02325 11.133 9.11663C10.2773 8.55038 9.28837 8.25 8.25 8.25C5.355 8.25 3 10.605 3 13.5C3 16.395 5.355 18.75 8.25 18.75C9.28837 18.75 10.2773 18.4496 11.133 17.8834C11.2215 17.9767 11.3134 18.0664 11.4075 18.1541C10.482 18.7819 9.37687 19.125 8.25 19.125ZM10.6485 9.69338C9.85238 10.7573 9.375 12.0724 9.375 13.5C9.375 14.9276 9.85238 16.2428 10.6485 17.3066C9.93225 17.7611 9.11063 18 8.25 18C5.76863 18 3.75 15.9814 3.75 13.5C3.75 11.0186 5.76863 9 8.25 9C9.11063 9 9.93225 9.23888 10.6485 9.69338ZM15.75 19.125C12.6484 19.125 10.125 16.6016 10.125 13.5C10.125 10.3984 12.6484 7.875 15.75 7.875C18.8516 7.875 21.375 10.3984 21.375 13.5C21.375 16.6016 18.8516 19.125 15.75 19.125Z" fill="#525256"/>
<path id="Vector_2" d="M15.75 8.25C14.5721 8.25 13.4876 8.6445 12.6109 9.30188C12.5993 9.30975 12.5854 9.31275 12.5745 9.32212C12.5689 9.327 12.5666 9.33412 12.561 9.339C12.2692 9.56287 12.0011 9.81487 11.7622 10.0942C11.7615 10.0946 11.7604 10.0954 11.7604 10.0954C11.757 10.098 11.7559 10.1021 11.7525 10.1051C10.9729 11.0216 10.5 12.2059 10.5 13.5C10.5 14.7941 10.9729 15.9784 11.7525 16.8949C11.7559 16.8979 11.757 16.9016 11.7604 16.9046C11.7611 16.905 11.7619 16.9054 11.7626 16.9058C12.0015 17.1848 12.2696 17.4368 12.5614 17.661C12.5666 17.6663 12.5689 17.673 12.5749 17.6779C12.5876 17.6887 12.6034 17.6936 12.6172 17.7026C13.4921 18.357 14.5747 18.75 15.75 18.75C18.645 18.75 21 16.395 21 13.5C21 10.605 18.645 8.25 15.75 8.25ZM12.489 16.5919C13.1411 15.6986 13.5 14.6145 13.5 13.5C13.5 12.3855 13.1411 11.3014 12.489 10.4081C12.576 10.3166 12.6671 10.2293 12.7612 10.1453C13.4797 11.1109 13.875 12.2869 13.875 13.5C13.875 14.7131 13.4797 15.8891 12.7612 16.8547C12.6671 16.7708 12.576 16.6837 12.489 16.5919ZM12.0004 11.0171C12.4845 11.7491 12.75 12.6135 12.75 13.5C12.75 14.3865 12.4845 15.2509 12.0004 15.9829C11.5271 15.2704 11.25 14.4173 11.25 13.5C11.25 12.5827 11.5271 11.7296 12.0004 11.0171ZM15.75 18C14.8714 18 14.0535 17.7431 13.3597 17.3059C14.1757 16.2105 14.625 14.8759 14.625 13.5C14.625 12.1241 14.1757 10.7895 13.3597 9.69412C14.0535 9.25687 14.8714 9 15.75 9C18.2314 9 20.25 11.0186 20.25 13.5C20.25 15.9814 18.2314 18 15.75 18Z" fill="white"/>
</g>
</svg>
