<svg width="24" height="24" viewBox="0 0 24 24" fill="none" xmlns="http://www.w3.org/2000/svg">
<g id="Chat Bubble">
<g id="Vector">
<path d="M19 2H5C4.20435 2 3.44129 2.31607 2.87868 2.87868C2.31607 3.44129 2 4.20435 2 5V15C2 15.7956 2.31607 16.5587 2.87868 17.1213C3.44129 17.6839 4.20435 18 5 18H16.59L20.29 21.71C20.3834 21.8027 20.4943 21.876 20.6161 21.9258C20.7379 21.9755 20.8684 22.0008 21 22C21.1312 22.0034 21.2613 21.976 21.38 21.92C21.5626 21.845 21.7189 21.7176 21.8293 21.5539C21.9396 21.3901 21.999 21.1974 22 21V5C22 4.20435 21.6839 3.44129 21.1213 2.87868C20.5587 2.31607 19.7956 2 19 2ZM20 18.59L17.71 16.29C17.6166 16.1973 17.5057 16.124 17.3839 16.0742C17.2621 16.0245 17.1316 15.9992 17 16H5C4.73478 16 4.48043 15.8946 4.29289 15.7071C4.10536 15.5196 4 15.2652 4 15V5C4 4.73478 4.10536 4.48043 4.29289 4.29289C4.48043 4.10536 4.73478 4 5 4H19C19.2652 4 19.5196 4.10536 19.7071 4.29289C19.8946 4.48043 20 4.73478 20 5V18.59Z" fill="white"/>
<path d="M16.944 17.6469L16.7975 17.5H16.59H5C4.33696 17.5 3.70107 17.2366 3.23223 16.7678C2.76339 16.2989 2.5 15.663 2.5 15V5C2.5 4.33696 2.76339 3.70107 3.23223 3.23223C3.70107 2.76339 4.33696 2.5 5 2.5H19C19.663 2.5 20.2989 2.76339 20.7678 3.23223C21.2366 3.70107 21.5 4.33696 21.5 5V20.9985C21.4993 21.0968 21.4696 21.1928 21.4146 21.2744C21.3595 21.3563 21.2813 21.42 21.19 21.4575L21.1782 21.4623L21.1667 21.4678C21.1187 21.4904 21.066 21.5015 21.0129 21.5002L21.005 21.5L20.9971 21.5C20.9313 21.5004 20.8661 21.4878 20.8052 21.4629C20.7447 21.4382 20.6896 21.4018 20.6431 21.3559C20.6427 21.3556 20.6424 21.3553 20.6421 21.355L16.944 17.6469ZM19.6457 18.9428L20.5 19.8008V18.59V5C20.5 4.60218 20.342 4.22065 20.0607 3.93934C19.7794 3.65804 19.3978 3.5 19 3.5H5C4.60217 3.5 4.22064 3.65804 3.93934 3.93934C3.65804 4.22064 3.5 4.60217 3.5 5V15C3.5 15.3978 3.65804 15.7794 3.93934 16.0607C4.22064 16.342 4.60217 16.5 5 16.5L17 16.5L17.0029 16.5C17.0687 16.4996 17.1339 16.5122 17.1948 16.5371C17.2554 16.5618 17.3105 16.5982 17.357 16.6441C17.3573 16.6444 17.3576 16.6447 17.3579 16.645L19.6457 18.9428Z" stroke="white" stroke-opacity="0.7"/>
</g>
</g>
</svg>
