<svg width="24" height="24" viewBox="0 0 24 24" fill="none" xmlns="http://www.w3.org/2000/svg">
<g id="User">
<g id="Vector">
<path d="M12.0001 1.65527C9.25742 1.65834 6.62796 2.74922 4.68859 4.68859C2.74922 6.62796 1.65834 9.25742 1.65527 12.0001C1.65987 14.7423 2.75124 17.3709 4.69028 19.3099C6.62932 21.249 9.25789 22.3403 12.0001 22.3449C14.7437 22.3449 17.375 21.255 19.315 19.315C21.255 17.375 22.3449 14.7437 22.3449 12.0001C22.3449 9.25648 21.255 6.62524 19.315 4.6852C17.375 2.74517 14.7437 1.65527 12.0001 1.65527ZM18.2922 17.9695C17.7113 16.7976 16.8143 15.8114 15.7027 15.1222C14.5911 14.433 13.3089 14.0681 12.0009 14.0688C10.693 14.0695 9.41122 14.4357 8.3003 15.1261C7.18938 15.8165 6.29351 16.8036 5.71376 17.9761C4.16693 16.3718 3.30502 14.2286 3.31045 12.0001C3.31045 9.69546 4.22596 7.48521 5.85559 5.85559C7.48521 4.22596 9.69546 3.31045 12.0001 3.31045C14.3047 3.31045 16.515 4.22596 18.1446 5.85559C19.7742 7.48521 20.6898 9.69546 20.6898 12.0001C20.6949 14.2255 19.8353 16.3659 18.2922 17.9695ZM12.0001 5.7932C11.2635 5.7932 10.5435 6.01162 9.93108 6.42084C9.31865 6.83005 8.84132 7.41168 8.55945 8.09218C8.27758 8.77267 8.20382 9.52147 8.34752 10.2439C8.49122 10.9663 8.84591 11.6299 9.36674 12.1507C9.88757 12.6715 10.5511 13.0262 11.2736 13.1699C11.996 13.3136 12.7448 13.2399 13.4253 12.958C14.1058 12.6761 14.6874 12.1988 15.0966 11.5864C15.5058 10.9739 15.7242 10.2539 15.7242 9.51734C15.7242 9.02828 15.6279 8.54401 15.4408 8.09218C15.2536 7.64034 14.9793 7.2298 14.6335 6.88398C14.2876 6.53816 13.8771 6.26384 13.4253 6.07669C12.9734 5.88953 12.4892 5.7932 12.0001 5.7932Z" fill="white"/>
<path d="M21.1898 12.0001C21.1898 9.56285 20.2216 7.22543 18.4982 5.50203C16.7748 3.77864 14.4373 2.81045 12.0001 2.81045C9.56285 2.81045 7.22543 3.77864 5.50203 5.50203C3.77878 7.22529 2.81061 9.56246 2.81045 11.9995C2.80486 14.3577 3.71698 16.6255 5.35382 18.3232L5.84701 18.8347L6.16196 18.1977C6.7004 17.1088 7.53245 16.192 8.56422 15.5508C9.59599 14.9096 10.7864 14.5695 12.0012 14.5688C13.216 14.5682 14.4068 14.907 15.4392 15.5472C16.4717 16.1873 17.3047 17.1032 17.8443 18.1916L18.1599 18.8282L18.6525 18.3162C20.2852 16.6194 21.1949 14.3548 21.1898 12.0001ZM21.1898 12.0001H20.6898M21.1898 12.0001C21.1898 11.9997 21.1898 11.9993 21.1898 11.9989L20.6898 12.0001M20.6898 12.0001C20.6945 14.0467 19.9678 16.0214 18.6508 17.5728M20.6898 12.0001C20.6898 9.69546 19.7742 7.48521 18.1446 5.85559C16.515 4.22596 14.3047 3.31045 12.0001 3.31045C9.69546 3.31045 7.48521 4.22596 5.85559 5.85559C4.22596 7.48521 3.31045 9.69546 3.31045 12.0001C3.30545 14.0498 4.03421 16.0274 5.35478 17.5798L18.6508 17.5728M18.6508 17.5728C18.6813 17.6306 18.7111 17.6888 18.7402 17.7474L18.2922 17.9695L18.6508 17.5728ZM5.04214 5.04214C6.88782 3.19647 9.39023 2.15826 12.0004 2.15527C14.6113 2.15535 17.1152 3.19256 18.9614 5.03876C20.8077 6.88502 21.8449 9.38909 21.8449 12.0001C21.8449 14.6111 20.8077 17.1152 18.9614 18.9614C17.1154 20.8075 14.6116 21.8447 12.0009 21.8449C9.39105 21.8406 6.88931 20.8018 5.04383 18.9564C3.19853 17.1111 2.15983 14.6096 2.15527 12C2.15837 9.38996 3.19657 6.88772 5.04214 5.04214ZM10.2089 6.83657C10.7391 6.4823 11.3624 6.2932 12.0001 6.2932C12.4235 6.2932 12.8428 6.3766 13.2339 6.53863C13.6251 6.70066 13.9805 6.93814 14.2799 7.23753C14.5793 7.53692 14.8168 7.89235 14.9788 8.28352C15.1408 8.67469 15.2242 9.09394 15.2242 9.51734C15.2242 10.155 15.0351 10.7784 14.6809 11.3086C14.3266 11.8388 13.8231 12.252 13.2339 12.4961C12.6448 12.7401 11.9965 12.8039 11.3711 12.6795C10.7457 12.5551 10.1712 12.2481 9.72029 11.7972C9.26939 11.3462 8.96232 10.7718 8.83791 10.1463C8.71351 9.52092 8.77736 8.87265 9.02139 8.28352C9.26541 7.69438 9.67866 7.19084 10.2089 6.83657Z" stroke="white" stroke-opacity="0.7"/>
</g>
</g>
</svg>
