<svg width="24" height="24" viewBox="0 0 24 24" fill="none" xmlns="http://www.w3.org/2000/svg">
<g id="Website">
<path id="Vector" d="M8.02051 6.61865C8.29234 6.61865 8.5127 6.39829 8.5127 6.12646C8.5127 5.85464 8.29234 5.63428 8.02051 5.63428C7.74868 5.63428 7.52832 5.85464 7.52832 6.12646C7.52832 6.39829 7.74868 6.61865 8.02051 6.61865Z" fill="white" fill-opacity="0.7"/>
<path id="Vector_2" d="M5.27832 6.61865C5.55015 6.61865 5.77051 6.39829 5.77051 6.12646C5.77051 5.85464 5.55015 5.63428 5.27832 5.63428C5.00649 5.63428 4.78613 5.85464 4.78613 6.12646C4.78613 6.39829 5.00649 6.61865 5.27832 6.61865Z" fill="white"/>
<path id="Vector_3" d="M3.46875 18.4687C3.47344 19.2983 4.14375 19.9687 4.97344 19.9687H19.0266C19.8562 19.9687 20.5266 19.2983 20.5312 18.4687V8.95303H3.46875V18.4687ZM9.08438 10.9593C9.18281 10.8608 9.33281 10.8233 9.46875 10.8702L14.2406 12.4593C14.4375 12.5249 14.5453 12.7358 14.4797 12.9327C14.4609 12.989 14.4281 13.0358 14.3906 13.078L13.0641 14.4046L14.9203 16.2608C15.0656 16.4062 15.0656 16.6452 14.9203 16.7905C14.775 16.9358 14.5359 16.9358 14.3906 16.7905L12.5344 14.9343L11.2031 16.2608C11.0578 16.4062 10.8187 16.4062 10.6734 16.2608C10.6312 16.2187 10.6031 16.1718 10.5844 16.1155L8.99063 11.3437C8.94844 11.2077 8.98125 11.0577 9.08438 10.9593ZM10.7578 5.63428C10.4859 5.63428 10.2656 5.85459 10.2656 6.12646C10.2656 6.39834 10.4859 6.61865 10.7578 6.61865C11.0297 6.61865 11.25 6.39834 11.25 6.12646C11.25 5.85459 11.0297 5.63428 10.7578 5.63428Z" fill="white"/>
<path id="Vector_4" d="M12.2627 14.1421H12.2674V14.1375L13.4252 12.9796L9.94238 11.8171L11.1049 15.3L12.2627 14.1421Z" fill="white"/>
<path id="Vector_5" d="M19.0266 4.03125H4.97344C4.14375 4.03125 3.47344 4.70156 3.46875 5.53125V8.20312H20.5312V5.53125C20.5266 4.70156 19.8562 4.03125 19.0266 4.03125ZM5.27812 7.36875C4.59375 7.36875 4.03594 6.81094 4.03594 6.12656C4.03594 5.44219 4.59375 4.88437 5.27812 4.88437C5.9625 4.88437 6.52031 5.44219 6.52031 6.12656C6.52031 6.81094 5.9625 7.36875 5.27812 7.36875ZM8.02031 7.36875C7.33594 7.36875 6.77813 6.81094 6.77813 6.12656C6.77813 5.44219 7.33594 4.88437 8.02031 4.88437C8.70469 4.88437 9.2625 5.44219 9.2625 6.12656C9.2625 6.81094 8.70469 7.36875 8.02031 7.36875ZM10.7578 7.36875C10.0734 7.36875 9.51562 6.81094 9.51562 6.12656C9.51562 5.44219 10.0734 4.88437 10.7578 4.88437C11.4422 4.88437 12 5.44219 12 6.12656C12 6.81094 11.4469 7.36875 10.7578 7.36875Z" fill="white"/>
</g>
</svg>
