<svg width="25" height="24" viewBox="0 0 25 24" fill="none" xmlns="http://www.w3.org/2000/svg">
<g id="Component 2">
<mask id="mask0_1246_1104" style="mask-type:alpha" maskUnits="userSpaceOnUse" x="0" y="0" width="25" height="24">
<rect id="Bounding box" x="0.15625" width="24" height="24" fill="#D9D9D9"/>
</mask>
<g mask="url(#mask0_1246_1104)">
<path id="account_circle" d="M6.00625 17.1C6.85625 16.45 7.80625 15.9375 8.85625 15.5625C9.90625 15.1875 11.0063 15 12.1562 15C13.3062 15 14.4062 15.1875 15.4563 15.5625C16.5063 15.9375 17.4562 16.45 18.3062 17.1C18.8896 16.4167 19.3438 15.6417 19.6688 14.775C19.9938 13.9083 20.1562 12.9833 20.1562 12C20.1562 9.78333 19.3771 7.89583 17.8188 6.3375C16.2604 4.77917 14.3729 4 12.1562 4C9.93958 4 8.05208 4.77917 6.49375 6.3375C4.93542 7.89583 4.15625 9.78333 4.15625 12C4.15625 12.9833 4.31875 13.9083 4.64375 14.775C4.96875 15.6417 5.42292 16.4167 6.00625 17.1ZM12.1562 13C11.1729 13 10.3438 12.6625 9.66875 11.9875C8.99375 11.3125 8.65625 10.4833 8.65625 9.5C8.65625 8.51667 8.99375 7.6875 9.66875 7.0125C10.3438 6.3375 11.1729 6 12.1562 6C13.1396 6 13.9688 6.3375 14.6438 7.0125C15.3188 7.6875 15.6562 8.51667 15.6562 9.5C15.6562 10.4833 15.3188 11.3125 14.6438 11.9875C13.9688 12.6625 13.1396 13 12.1562 13ZM12.1562 22C10.7729 22 9.47292 21.7375 8.25625 21.2125C7.03958 20.6875 5.98125 19.975 5.08125 19.075C4.18125 18.175 3.46875 17.1167 2.94375 15.9C2.41875 14.6833 2.15625 13.3833 2.15625 12C2.15625 10.6167 2.41875 9.31667 2.94375 8.1C3.46875 6.88333 4.18125 5.825 5.08125 4.925C5.98125 4.025 7.03958 3.3125 8.25625 2.7875C9.47292 2.2625 10.7729 2 12.1562 2C13.5396 2 14.8396 2.2625 16.0563 2.7875C17.2729 3.3125 18.3313 4.025 19.2313 4.925C20.1313 5.825 20.8438 6.88333 21.3687 8.1C21.8937 9.31667 22.1562 10.6167 22.1562 12C22.1562 13.3833 21.8937 14.6833 21.3687 15.9C20.8438 17.1167 20.1313 18.175 19.2313 19.075C18.3313 19.975 17.2729 20.6875 16.0563 21.2125C14.8396 21.7375 13.5396 22 12.1562 22ZM12.1562 20C13.0396 20 13.8729 19.8708 14.6562 19.6125C15.4396 19.3542 16.1563 18.9833 16.8063 18.5C16.1563 18.0167 15.4396 17.6458 14.6562 17.3875C13.8729 17.1292 13.0396 17 12.1562 17C11.2729 17 10.4396 17.1292 9.65625 17.3875C8.87292 17.6458 8.15625 18.0167 7.50625 18.5C8.15625 18.9833 8.87292 19.3542 9.65625 19.6125C10.4396 19.8708 11.2729 20 12.1562 20ZM12.1562 11C12.5896 11 12.9479 10.8583 13.2312 10.575C13.5146 10.2917 13.6562 9.93333 13.6562 9.5C13.6562 9.06667 13.5146 8.70833 13.2312 8.425C12.9479 8.14167 12.5896 8 12.1562 8C11.7229 8 11.3646 8.14167 11.0813 8.425C10.7979 8.70833 10.6562 9.06667 10.6562 9.5C10.6562 9.93333 10.7979 10.2917 11.0813 10.575C11.3646 10.8583 11.7229 11 12.1562 11Z" fill="#36004E"/>
</g>
</g>
</svg>
