<svg width="25" height="24" viewBox="0 0 25 24" fill="none" xmlns="http://www.w3.org/2000/svg">
<g id="Component 2">
<mask id="mask0_1246_1015" style="mask-type:alpha" maskUnits="userSpaceOnUse" x="0" y="0" width="25" height="24">
<rect id="Bounding box" x="0.15625" width="24" height="24" fill="#D9D9D9"/>
</mask>
<g mask="url(#mask0_1246_1015)">
<g id="report">
<path d="M12.1562 17C12.4396 17 12.6771 16.9042 12.8688 16.7125C13.0604 16.5208 13.1562 16.2833 13.1562 16C13.1562 15.7167 13.0604 15.4792 12.8688 15.2875C12.6771 15.0958 12.4396 15 12.1562 15C11.8729 15 11.6354 15.0958 11.4438 15.2875C11.2521 15.4792 11.1562 15.7167 11.1562 16C11.1562 16.2833 11.2521 16.5208 11.4438 16.7125C11.6354 16.9042 11.8729 17 12.1562 17ZM11.1562 13H13.1562V7H11.1562V13ZM8.40625 21L3.15625 15.75V8.25L8.40625 3H15.9062L21.1562 8.25V15.75L15.9062 21H8.40625ZM9.25625 19H15.0563L19.1562 14.9V9.1L15.0563 5H9.25625L5.15625 9.1V14.9L9.25625 19Z" fill="#8D4EA5"/>
<path d="M12.1562 17C12.4396 17 12.6771 16.9042 12.8688 16.7125C13.0604 16.5208 13.1562 16.2833 13.1562 16C13.1562 15.7167 13.0604 15.4792 12.8688 15.2875C12.6771 15.0958 12.4396 15 12.1562 15C11.8729 15 11.6354 15.0958 11.4438 15.2875C11.2521 15.4792 11.1562 15.7167 11.1562 16C11.1562 16.2833 11.2521 16.5208 11.4438 16.7125C11.6354 16.9042 11.8729 17 12.1562 17ZM11.1562 13H13.1562V7H11.1562V13ZM8.40625 21L3.15625 15.75V8.25L8.40625 3H15.9062L21.1562 8.25V15.75L15.9062 21H8.40625ZM9.25625 19H15.0563L19.1562 14.9V9.1L15.0563 5H9.25625L5.15625 9.1V14.9L9.25625 19Z" fill="black" fill-opacity="0.2"/>
</g>
</g>
</g>
</svg>
