<svg width="25" height="24" viewBox="0 0 25 24" fill="none" xmlns="http://www.w3.org/2000/svg">
<g id="Component 2">
<mask id="mask0_1246_1195" style="mask-type:alpha" maskUnits="userSpaceOnUse" x="0" y="0" width="25" height="24">
<rect id="Bounding box" x="0.15625" width="24" height="24" fill="#D9D9D9"/>
</mask>
<g mask="url(#mask0_1246_1195)">
<g id="update">
<path d="M12.1562 21C10.9062 21 9.73542 20.7625 8.64375 20.2875C7.55208 19.8125 6.60208 19.1708 5.79375 18.3625C4.98542 17.5542 4.34375 16.6042 3.86875 15.5125C3.39375 14.4208 3.15625 13.25 3.15625 12C3.15625 10.75 3.39375 9.57917 3.86875 8.4875C4.34375 7.39583 4.98542 6.44583 5.79375 5.6375C6.60208 4.82917 7.55208 4.1875 8.64375 3.7125C9.73542 3.2375 10.9062 3 12.1562 3C13.5229 3 14.8187 3.29167 16.0437 3.875C17.2688 4.45833 18.3062 5.28333 19.1562 6.35V4H21.1562V10H15.1562V8H17.9062C17.2229 7.06667 16.3813 6.33333 15.3813 5.8C14.3813 5.26667 13.3062 5 12.1562 5C10.2063 5 8.55208 5.67917 7.19375 7.0375C5.83542 8.39583 5.15625 10.05 5.15625 12C5.15625 13.95 5.83542 15.6042 7.19375 16.9625C8.55208 18.3208 10.2063 19 12.1562 19C13.9062 19 15.4354 18.4333 16.7438 17.3C18.0521 16.1667 18.8229 14.7333 19.0563 13H21.1063C20.8563 15.2833 19.8771 17.1875 18.1687 18.7125C16.4604 20.2375 14.4563 21 12.1562 21ZM14.9563 16.2L11.1562 12.4V7H13.1562V11.6L16.3562 14.8L14.9563 16.2Z" fill="#8D4EA5"/>
<path d="M12.1562 21C10.9062 21 9.73542 20.7625 8.64375 20.2875C7.55208 19.8125 6.60208 19.1708 5.79375 18.3625C4.98542 17.5542 4.34375 16.6042 3.86875 15.5125C3.39375 14.4208 3.15625 13.25 3.15625 12C3.15625 10.75 3.39375 9.57917 3.86875 8.4875C4.34375 7.39583 4.98542 6.44583 5.79375 5.6375C6.60208 4.82917 7.55208 4.1875 8.64375 3.7125C9.73542 3.2375 10.9062 3 12.1562 3C13.5229 3 14.8187 3.29167 16.0437 3.875C17.2688 4.45833 18.3062 5.28333 19.1562 6.35V4H21.1562V10H15.1562V8H17.9062C17.2229 7.06667 16.3813 6.33333 15.3813 5.8C14.3813 5.26667 13.3062 5 12.1562 5C10.2063 5 8.55208 5.67917 7.19375 7.0375C5.83542 8.39583 5.15625 10.05 5.15625 12C5.15625 13.95 5.83542 15.6042 7.19375 16.9625C8.55208 18.3208 10.2063 19 12.1562 19C13.9062 19 15.4354 18.4333 16.7438 17.3C18.0521 16.1667 18.8229 14.7333 19.0563 13H21.1063C20.8563 15.2833 19.8771 17.1875 18.1687 18.7125C16.4604 20.2375 14.4563 21 12.1562 21ZM14.9563 16.2L11.1562 12.4V7H13.1562V11.6L16.3562 14.8L14.9563 16.2Z" fill="black" fill-opacity="0.2"/>
</g>
</g>
</g>
</svg>
