<svg width="25" height="24" viewBox="0 0 25 24" fill="none" xmlns="http://www.w3.org/2000/svg">
<g id="Component 2">
<mask id="mask0_1246_554" style="mask-type:alpha" maskUnits="userSpaceOnUse" x="0" y="0" width="25" height="24">
<rect id="Bounding box" x="0.15625" width="24" height="24" fill="#D9D9D9"/>
</mask>
<g mask="url(#mask0_1246_554)">
<g id="sms">
<path d="M8.15625 11C8.43958 11 8.67708 10.9042 8.86875 10.7125C9.06042 10.5208 9.15625 10.2833 9.15625 10C9.15625 9.71667 9.06042 9.47917 8.86875 9.2875C8.67708 9.09583 8.43958 9 8.15625 9C7.87292 9 7.63542 9.09583 7.44375 9.2875C7.25208 9.47917 7.15625 9.71667 7.15625 10C7.15625 10.2833 7.25208 10.5208 7.44375 10.7125C7.63542 10.9042 7.87292 11 8.15625 11ZM12.1562 11C12.4396 11 12.6771 10.9042 12.8688 10.7125C13.0604 10.5208 13.1562 10.2833 13.1562 10C13.1562 9.71667 13.0604 9.47917 12.8688 9.2875C12.6771 9.09583 12.4396 9 12.1562 9C11.8729 9 11.6354 9.09583 11.4438 9.2875C11.2521 9.47917 11.1562 9.71667 11.1562 10C11.1562 10.2833 11.2521 10.5208 11.4438 10.7125C11.6354 10.9042 11.8729 11 12.1562 11ZM16.1562 11C16.4396 11 16.6771 10.9042 16.8688 10.7125C17.0604 10.5208 17.1562 10.2833 17.1562 10C17.1562 9.71667 17.0604 9.47917 16.8688 9.2875C16.6771 9.09583 16.4396 9 16.1562 9C15.8729 9 15.6354 9.09583 15.4438 9.2875C15.2521 9.47917 15.1562 9.71667 15.1562 10C15.1562 10.2833 15.2521 10.5208 15.4438 10.7125C15.6354 10.9042 15.8729 11 16.1562 11ZM2.15625 22V4C2.15625 3.45 2.35208 2.97917 2.74375 2.5875C3.13542 2.19583 3.60625 2 4.15625 2H20.1562C20.7062 2 21.1771 2.19583 21.5688 2.5875C21.9604 2.97917 22.1562 3.45 22.1562 4V16C22.1562 16.55 21.9604 17.0208 21.5688 17.4125C21.1771 17.8042 20.7062 18 20.1562 18H6.15625L2.15625 22ZM5.30625 16H20.1562V4H4.15625V17.125L5.30625 16Z" fill="#8D4EA5"/>
<path d="M8.15625 11C8.43958 11 8.67708 10.9042 8.86875 10.7125C9.06042 10.5208 9.15625 10.2833 9.15625 10C9.15625 9.71667 9.06042 9.47917 8.86875 9.2875C8.67708 9.09583 8.43958 9 8.15625 9C7.87292 9 7.63542 9.09583 7.44375 9.2875C7.25208 9.47917 7.15625 9.71667 7.15625 10C7.15625 10.2833 7.25208 10.5208 7.44375 10.7125C7.63542 10.9042 7.87292 11 8.15625 11ZM12.1562 11C12.4396 11 12.6771 10.9042 12.8688 10.7125C13.0604 10.5208 13.1562 10.2833 13.1562 10C13.1562 9.71667 13.0604 9.47917 12.8688 9.2875C12.6771 9.09583 12.4396 9 12.1562 9C11.8729 9 11.6354 9.09583 11.4438 9.2875C11.2521 9.47917 11.1562 9.71667 11.1562 10C11.1562 10.2833 11.2521 10.5208 11.4438 10.7125C11.6354 10.9042 11.8729 11 12.1562 11ZM16.1562 11C16.4396 11 16.6771 10.9042 16.8688 10.7125C17.0604 10.5208 17.1562 10.2833 17.1562 10C17.1562 9.71667 17.0604 9.47917 16.8688 9.2875C16.6771 9.09583 16.4396 9 16.1562 9C15.8729 9 15.6354 9.09583 15.4438 9.2875C15.2521 9.47917 15.1562 9.71667 15.1562 10C15.1562 10.2833 15.2521 10.5208 15.4438 10.7125C15.6354 10.9042 15.8729 11 16.1562 11ZM2.15625 22V4C2.15625 3.45 2.35208 2.97917 2.74375 2.5875C3.13542 2.19583 3.60625 2 4.15625 2H20.1562C20.7062 2 21.1771 2.19583 21.5688 2.5875C21.9604 2.97917 22.1562 3.45 22.1562 4V16C22.1562 16.55 21.9604 17.0208 21.5688 17.4125C21.1771 17.8042 20.7062 18 20.1562 18H6.15625L2.15625 22ZM5.30625 16H20.1562V4H4.15625V17.125L5.30625 16Z" fill="black" fill-opacity="0.2"/>
</g>
</g>
</g>
</svg>
