<svg width="25" height="24" viewBox="0 0 25 24" fill="none" xmlns="http://www.w3.org/2000/svg">
<g id="Component 2">
<mask id="mask0_1246_1119" style="mask-type:alpha" maskUnits="userSpaceOnUse" x="0" y="0" width="25" height="24">
<rect id="Bounding box" x="0.15625" width="24" height="24" fill="#D9D9D9"/>
</mask>
<g mask="url(#mask0_1246_1119)">
<g id="favorite">
<path d="M12.1562 21.0004L10.7063 19.7004C9.02292 18.1837 7.63125 16.8754 6.53125 15.7754C5.43125 14.6754 4.55625 13.6879 3.90625 12.8129C3.25625 11.9379 2.80208 11.1337 2.54375 10.4004C2.28542 9.66706 2.15625 8.91706 2.15625 8.15039C2.15625 6.58372 2.68125 5.27539 3.73125 4.22539C4.78125 3.17539 6.08958 2.65039 7.65625 2.65039C8.52292 2.65039 9.34792 2.83372 10.1312 3.20039C10.9146 3.56706 11.5896 4.08372 12.1562 4.75039C12.7229 4.08372 13.3979 3.56706 14.1813 3.20039C14.9646 2.83372 15.7896 2.65039 16.6562 2.65039C18.2229 2.65039 19.5313 3.17539 20.5813 4.22539C21.6313 5.27539 22.1562 6.58372 22.1562 8.15039C22.1562 8.91706 22.0271 9.66706 21.7688 10.4004C21.5104 11.1337 21.0562 11.9379 20.4062 12.8129C19.7563 13.6879 18.8813 14.6754 17.7812 15.7754C16.6812 16.8754 15.2896 18.1837 13.6062 19.7004L12.1562 21.0004ZM12.1562 18.3004C13.7563 16.8671 15.0729 15.6379 16.1062 14.6129C17.1396 13.5879 17.9562 12.6962 18.5562 11.9379C19.1562 11.1796 19.5729 10.5046 19.8062 9.91289C20.0396 9.32122 20.1562 8.73372 20.1562 8.15039C20.1562 7.15039 19.8229 6.31706 19.1562 5.65039C18.4896 4.98372 17.6562 4.65039 16.6562 4.65039C15.8729 4.65039 15.1479 4.87122 14.4812 5.31289C13.8146 5.75456 13.3562 6.31706 13.1062 7.00039H11.2063C10.9563 6.31706 10.4979 5.75456 9.83125 5.31289C9.16458 4.87122 8.43958 4.65039 7.65625 4.65039C6.65625 4.65039 5.82292 4.98372 5.15625 5.65039C4.48958 6.31706 4.15625 7.15039 4.15625 8.15039C4.15625 8.73372 4.27292 9.32122 4.50625 9.91289C4.73958 10.5046 5.15625 11.1796 5.75625 11.9379C6.35625 12.6962 7.17292 13.5879 8.20625 14.6129C9.23958 15.6379 10.5562 16.8671 12.1562 18.3004Z" fill="#8D4EA5"/>
<path d="M12.1562 21.0004L10.7063 19.7004C9.02292 18.1837 7.63125 16.8754 6.53125 15.7754C5.43125 14.6754 4.55625 13.6879 3.90625 12.8129C3.25625 11.9379 2.80208 11.1337 2.54375 10.4004C2.28542 9.66706 2.15625 8.91706 2.15625 8.15039C2.15625 6.58372 2.68125 5.27539 3.73125 4.22539C4.78125 3.17539 6.08958 2.65039 7.65625 2.65039C8.52292 2.65039 9.34792 2.83372 10.1312 3.20039C10.9146 3.56706 11.5896 4.08372 12.1562 4.75039C12.7229 4.08372 13.3979 3.56706 14.1813 3.20039C14.9646 2.83372 15.7896 2.65039 16.6562 2.65039C18.2229 2.65039 19.5313 3.17539 20.5813 4.22539C21.6313 5.27539 22.1562 6.58372 22.1562 8.15039C22.1562 8.91706 22.0271 9.66706 21.7688 10.4004C21.5104 11.1337 21.0562 11.9379 20.4062 12.8129C19.7563 13.6879 18.8813 14.6754 17.7812 15.7754C16.6812 16.8754 15.2896 18.1837 13.6062 19.7004L12.1562 21.0004ZM12.1562 18.3004C13.7563 16.8671 15.0729 15.6379 16.1062 14.6129C17.1396 13.5879 17.9562 12.6962 18.5562 11.9379C19.1562 11.1796 19.5729 10.5046 19.8062 9.91289C20.0396 9.32122 20.1562 8.73372 20.1562 8.15039C20.1562 7.15039 19.8229 6.31706 19.1562 5.65039C18.4896 4.98372 17.6562 4.65039 16.6562 4.65039C15.8729 4.65039 15.1479 4.87122 14.4812 5.31289C13.8146 5.75456 13.3562 6.31706 13.1062 7.00039H11.2063C10.9563 6.31706 10.4979 5.75456 9.83125 5.31289C9.16458 4.87122 8.43958 4.65039 7.65625 4.65039C6.65625 4.65039 5.82292 4.98372 5.15625 5.65039C4.48958 6.31706 4.15625 7.15039 4.15625 8.15039C4.15625 8.73372 4.27292 9.32122 4.50625 9.91289C4.73958 10.5046 5.15625 11.1796 5.75625 11.9379C6.35625 12.6962 7.17292 13.5879 8.20625 14.6129C9.23958 15.6379 10.5562 16.8671 12.1562 18.3004Z" fill="black" fill-opacity="0.2"/>
</g>
</g>
</g>
</svg>
