<svg width="24" height="25" viewBox="0 0 24 25" fill="none" xmlns="http://www.w3.org/2000/svg">
<mask id="mask0_709_835" style="mask-type:alpha" maskUnits="userSpaceOnUse" x="0" y="0" width="24" height="25">
<rect y="0.603516" width="24" height="24" fill="#D9D9D9"/>
</mask>
<g mask="url(#mask0_709_835)">
<path d="M3 19.6035C2.45 19.6035 1.97917 19.4077 1.5875 19.016C1.19583 18.6243 1 18.1535 1 17.6035V7.60352C1 7.05352 1.19583 6.58268 1.5875 6.19102C1.97917 5.79935 2.45 5.60352 3 5.60352H13C13.55 5.60352 14.0208 5.79935 14.4125 6.19102C14.8042 6.58268 15 7.05352 15 7.60352V17.6035C15 18.1535 14.8042 18.6243 14.4125 19.016C14.0208 19.4077 13.55 19.6035 13 19.6035H3ZM18 11.6035C17.7167 11.6035 17.4792 11.5077 17.2875 11.316C17.0958 11.1243 17 10.8868 17 10.6035V6.60352C17 6.32018 17.0958 6.08268 17.2875 5.89102C17.4792 5.69935 17.7167 5.60352 18 5.60352H22C22.2833 5.60352 22.5208 5.69935 22.7125 5.89102C22.9042 6.08268 23 6.32018 23 6.60352V10.6035C23 10.8868 22.9042 11.1243 22.7125 11.316C22.5208 11.5077 22.2833 11.6035 22 11.6035H18ZM19 9.60352H21V7.60352H19V9.60352ZM3 17.6035H13V7.60352H3V17.6035ZM4 15.6035H12L9.375 12.1035L7.5 14.6035L6.125 12.7785L4 15.6035ZM18 19.6035C17.7167 19.6035 17.4792 19.5077 17.2875 19.316C17.0958 19.1243 17 18.8868 17 18.6035V14.6035C17 14.3202 17.0958 14.0827 17.2875 13.891C17.4792 13.6993 17.7167 13.6035 18 13.6035H22C22.2833 13.6035 22.5208 13.6993 22.7125 13.891C22.9042 14.0827 23 14.3202 23 14.6035V18.6035C23 18.8868 22.9042 19.1243 22.7125 19.316C22.5208 19.5077 22.2833 19.6035 22 19.6035H18ZM19 17.6035H21V15.6035H19V17.6035Z" fill="#C874E8"/>
</g>
</svg>
