<svg width="24" height="24" viewBox="0 0 24 24" fill="none" xmlns="http://www.w3.org/2000/svg">
<g id="Party">
<path id="Vector" d="M7.68441 2.25002C7.55282 2.25016 7.42358 2.28491 7.30968 2.35079C7.19577 2.41667 7.1012 2.51137 7.03546 2.62536C6.96973 2.73935 6.93514 2.86863 6.93518 3.00022C6.93521 3.1318 6.96986 3.26107 7.03566 3.37502C7.07766 3.44815 7.13391 3.50852 7.19578 3.56252C7.13233 3.61566 7.07821 3.67904 7.03566 3.75002C6.9699 3.86406 6.93529 3.99339 6.93529 4.12502C6.93529 4.25666 6.9699 4.38599 7.03566 4.50002C7.07766 4.57315 7.13391 4.63352 7.19578 4.68752C7.13233 4.74066 7.07821 4.80404 7.03566 4.87502C6.9699 4.98906 6.93529 5.11839 6.93529 5.25002C6.93529 5.38166 6.9699 5.51099 7.03566 5.62502C7.07766 5.69815 7.13391 5.75852 7.19578 5.81252C7.13233 5.86566 7.07821 5.92904 7.03566 6.00002C6.9701 6.11402 6.93564 6.24323 6.93572 6.37473C6.9358 6.50623 6.97042 6.6354 7.03611 6.74932C7.1018 6.86323 7.19626 6.9579 7.31004 7.02383C7.42381 7.08977 7.55291 7.12466 7.68441 7.12502C7.73414 7.12502 7.78183 7.10527 7.81699 7.07011C7.85215 7.03494 7.87191 6.98725 7.87191 6.93752C7.87191 6.8878 7.85215 6.84011 7.81699 6.80494C7.78183 6.76978 7.73414 6.75002 7.68441 6.75002C7.58495 6.75002 7.48957 6.71052 7.41924 6.64019C7.34892 6.56986 7.30941 6.47448 7.30941 6.37502C7.30941 6.27557 7.34892 6.18019 7.41924 6.10986C7.48957 6.03953 7.58495 6.00002 7.68441 6.00002C7.72219 6.0005 7.75924 5.98954 7.79069 5.9686C7.82214 5.94765 7.84653 5.9177 7.86066 5.88265C7.86789 5.86518 7.87244 5.84673 7.87416 5.8279C7.87468 5.82204 7.87493 5.81616 7.87491 5.81027C7.87491 5.81002 7.87491 5.80977 7.87491 5.80952C7.87471 5.80338 7.87421 5.79725 7.87341 5.79115C7.87341 5.7909 7.87341 5.79065 7.87341 5.7904C7.87268 5.78461 7.87168 5.77885 7.87041 5.77315C7.87041 5.7729 7.87041 5.77265 7.87041 5.7724C7.86993 5.77089 7.86943 5.76939 7.86891 5.7679C7.86784 5.76323 7.86658 5.7586 7.86516 5.75402C7.86355 5.74831 7.86167 5.74268 7.85953 5.73715C7.85928 5.7369 7.85903 5.73665 7.85878 5.7364C7.85642 5.7309 7.85379 5.72552 7.85091 5.72027C7.85066 5.72002 7.85041 5.71977 7.85016 5.71952C7.84739 5.71439 7.84439 5.70938 7.84116 5.70452C7.84091 5.7044 7.84066 5.70427 7.84041 5.70415C7.83679 5.69896 7.83291 5.69395 7.82878 5.68915C7.82486 5.68471 7.82073 5.68045 7.81641 5.6764C7.81616 5.67615 7.81591 5.6759 7.81566 5.67565C7.81147 5.67157 7.80709 5.66769 7.80253 5.66402C7.80228 5.66402 7.80203 5.66402 7.80178 5.66402C7.79837 5.6614 7.79487 5.6589 7.79128 5.65652C7.78968 5.65525 7.78805 5.654 7.78641 5.65277C7.78118 5.64964 7.77579 5.64676 7.77028 5.64415C7.77003 5.64415 7.76978 5.64415 7.76953 5.64415C7.76428 5.6414 7.7589 5.63889 7.75341 5.63665C7.75316 5.63665 7.75291 5.63665 7.75266 5.63665C7.74712 5.63451 7.74149 5.63263 7.73578 5.63102C7.73528 5.63102 7.73478 5.63102 7.73428 5.63102C7.72872 5.62952 7.72309 5.62826 7.71741 5.62727C7.71691 5.62727 7.71641 5.62727 7.71591 5.62727C7.7102 5.62626 7.70444 5.62551 7.69866 5.62502C7.69841 5.62502 7.69816 5.62502 7.69791 5.62502C7.69353 5.62487 7.68916 5.62487 7.68478 5.62502C7.58533 5.62502 7.48994 5.58552 7.41962 5.51519C7.34929 5.44486 7.30978 5.34948 7.30978 5.25002C7.30978 5.15057 7.34929 5.05519 7.41962 4.98486C7.48994 4.91453 7.58533 4.87502 7.68478 4.87502C7.70985 4.87543 7.73474 4.8708 7.75798 4.86142C7.78123 4.85203 7.80236 4.83808 7.82012 4.82039C7.83788 4.8027 7.85191 4.78163 7.86139 4.75842C7.87086 4.73521 7.87559 4.71034 7.87528 4.68527C7.87528 4.68502 7.87528 4.68477 7.87528 4.68452C7.87497 4.67228 7.87347 4.6601 7.87078 4.64815C7.87078 4.6479 7.87078 4.64765 7.87078 4.6474C7.86559 4.62319 7.85564 4.60025 7.84153 4.5799C7.84153 4.57965 7.84153 4.5794 7.84153 4.57915C7.8161 4.54314 7.77879 4.51725 7.73616 4.50602C7.73591 4.50602 7.73566 4.50602 7.73541 4.50602C7.7296 4.50449 7.72371 4.50324 7.71778 4.50227C7.71753 4.50227 7.71728 4.50227 7.71703 4.50227C7.70637 4.5006 7.69558 4.49984 7.68478 4.50002C7.58533 4.50002 7.48994 4.46052 7.41962 4.39019C7.34929 4.31986 7.30978 4.22448 7.30978 4.12502C7.30978 4.02557 7.34929 3.93019 7.41962 3.85986C7.48994 3.78953 7.58533 3.75002 7.68478 3.75002C7.72257 3.7505 7.75961 3.73954 7.79106 3.7186C7.82251 3.69765 7.8469 3.6677 7.86103 3.63265C7.86827 3.61518 7.87282 3.59673 7.87453 3.5779C7.87506 3.57204 7.87531 3.56616 7.87528 3.56027C7.87528 3.56002 7.87528 3.55977 7.87528 3.55952C7.87508 3.55338 7.87458 3.54725 7.87378 3.54115C7.87378 3.5409 7.87378 3.54065 7.87378 3.5404C7.87305 3.53461 7.87205 3.52885 7.87078 3.52315C7.87078 3.5229 7.87078 3.52265 7.87078 3.5224C7.8703 3.52089 7.8698 3.51939 7.86928 3.5179C7.86821 3.51323 7.86696 3.5086 7.86553 3.50402C7.86393 3.49831 7.86205 3.49268 7.85991 3.48715C7.85966 3.4869 7.85941 3.48665 7.85916 3.4864C7.85679 3.4809 7.85416 3.47552 7.85128 3.47027C7.85103 3.47002 7.85078 3.46977 7.85053 3.46952C7.84777 3.46439 7.84476 3.45938 7.84153 3.45452C7.84128 3.4544 7.84103 3.45427 7.84078 3.45415C7.83716 3.44896 7.83328 3.44395 7.82916 3.43915C7.82524 3.43471 7.82111 3.43045 7.81678 3.4264C7.81653 3.42615 7.81628 3.4259 7.81603 3.42565C7.81184 3.42157 7.80746 3.41769 7.80291 3.41402C7.80266 3.41402 7.80241 3.41402 7.80216 3.41402C7.79874 3.4114 7.79524 3.4089 7.79166 3.40652C7.79005 3.40525 7.78843 3.404 7.78678 3.40277C7.78155 3.39964 7.77617 3.39676 7.77066 3.39415C7.77041 3.39415 7.77016 3.39415 7.76991 3.39415C7.76465 3.3914 7.75927 3.38889 7.75378 3.38665C7.75353 3.38665 7.75328 3.38665 7.75303 3.38665C7.7475 3.38451 7.74187 3.38263 7.73616 3.38102C7.73566 3.38102 7.73516 3.38102 7.73466 3.38102C7.72909 3.37952 7.72346 3.37826 7.71778 3.37727C7.71728 3.37727 7.71678 3.37727 7.71628 3.37727C7.71045 3.37625 7.70457 3.3755 7.69866 3.37502C7.69841 3.37502 7.69816 3.37502 7.69791 3.37502C7.69353 3.37487 7.68916 3.37487 7.68478 3.37502C7.58533 3.37502 7.48994 3.33552 7.41962 3.26519C7.34929 3.19486 7.30978 3.09948 7.30978 3.00002C7.30978 2.90057 7.34929 2.80519 7.41962 2.73486C7.48994 2.66453 7.58533 2.62502 7.68478 2.62502C7.70982 2.62538 7.73467 2.62071 7.75787 2.61131C7.78107 2.6019 7.80215 2.58794 7.81987 2.57026C7.83759 2.55257 7.85159 2.53152 7.86104 2.50833C7.8705 2.48515 7.87521 2.46031 7.87491 2.43527C7.87461 2.41059 7.86945 2.3862 7.85971 2.36351C7.84996 2.34083 7.83584 2.32029 7.81814 2.30308C7.80044 2.28587 7.77951 2.27232 7.75656 2.26321C7.73361 2.25411 7.70909 2.24963 7.68441 2.25002ZM11.8124 3.37502C11.7627 3.37502 11.715 3.39478 11.6798 3.42994C11.6447 3.4651 11.6249 3.5128 11.6249 3.56252C11.6249 3.61225 11.6447 3.65994 11.6798 3.69511C11.715 3.73027 11.7627 3.75002 11.8124 3.75002C11.8621 3.75002 11.9098 3.73027 11.945 3.69511C11.9802 3.65994 11.9999 3.61225 11.9999 3.56252C11.9999 3.5128 11.9802 3.4651 11.945 3.42994C11.9098 3.39478 11.8621 3.37502 11.8124 3.37502ZM16.1249 3.37502C15.7128 3.37502 15.3749 3.7129 15.3749 4.12502C15.3749 4.53715 15.7128 4.87502 16.1249 4.87502C16.537 4.87502 16.8749 4.53715 16.8749 4.12502C16.8749 3.7129 16.537 3.37502 16.1249 3.37502ZM18.9374 3.37502C18.8877 3.37502 18.84 3.39478 18.8048 3.42994C18.7697 3.4651 18.7499 3.5128 18.7499 3.56252C18.7499 3.61225 18.7697 3.65994 18.8048 3.69511C18.84 3.73027 18.8877 3.75002 18.9374 3.75002C18.9871 3.75002 19.0348 3.73027 19.07 3.69511C19.1052 3.65994 19.1249 3.61225 19.1249 3.56252C19.1249 3.5128 19.1052 3.4651 19.07 3.42994C19.0348 3.39478 18.9871 3.37502 18.9374 3.37502ZM16.1249 3.75002C16.3342 3.75002 16.4999 3.91577 16.4999 4.12502C16.4999 4.33427 16.3342 4.50002 16.1249 4.50002C15.9157 4.50002 15.7499 4.33427 15.7499 4.12502C15.7499 3.91577 15.9157 3.75002 16.1249 3.75002ZM12.9712 4.13627C12.934 4.13749 12.8981 4.14971 12.8679 4.17137C12.8378 4.19304 12.8147 4.22318 12.8017 4.25797C12.7887 4.29276 12.7863 4.33064 12.7948 4.36679C12.8034 4.40294 12.8224 4.43574 12.8497 4.46102C13.1843 4.77791 13.4485 5.16177 13.6249 5.58757C13.8012 6.01337 13.8859 6.47155 13.8734 6.93227C13.8611 7.36938 13.7615 7.79961 13.5804 8.19762C13.3993 8.59563 13.1404 8.95338 12.8189 9.24977L10.9225 7.3534C10.9048 7.33568 10.8836 7.32171 10.8604 7.3123C10.8371 7.3029 10.8122 7.29826 10.7872 7.29865C10.7548 7.29924 10.7232 7.30818 10.6953 7.3246C10.6675 7.34103 10.6443 7.36439 10.6282 7.3924L2.27466 21.8438C2.25374 21.8796 2.24526 21.9213 2.25056 21.9624C2.25586 22.0035 2.27463 22.0417 2.30394 22.071C2.33325 22.1003 2.37145 22.1191 2.41256 22.1244C2.45367 22.1297 2.49537 22.1212 2.53116 22.1003L16.9825 13.7475C17.0075 13.7332 17.0288 13.7133 17.0448 13.6893C17.0608 13.6654 17.0711 13.6381 17.0749 13.6096C17.0786 13.5811 17.0758 13.552 17.0665 13.5248C17.0573 13.4975 17.0419 13.4727 17.0215 13.4524L13.0833 9.51415C13.4384 9.18432 13.7244 8.78709 13.9244 8.34562C14.1244 7.90414 14.2346 7.42726 14.2484 6.94277C14.2623 6.42933 14.1678 5.91873 13.9712 5.44422C13.7746 4.96971 13.4802 4.54194 13.1073 4.18877C13.0893 4.17137 13.0679 4.15776 13.0445 4.14874C13.0212 4.13972 12.9962 4.13548 12.9712 4.13627ZM11.2499 4.87502C10.8378 4.87502 10.4999 5.2129 10.4999 5.62502C10.4999 6.03715 10.8378 6.37502 11.2499 6.37502C11.662 6.37502 11.9999 6.03715 11.9999 5.62502C11.9999 5.2129 11.662 4.87502 11.2499 4.87502ZM20.353 4.96652C20.3205 4.96778 20.2889 4.97747 20.2613 4.99465C20.2336 5.01183 20.2109 5.0359 20.1954 5.0645C20.1799 5.0931 20.1721 5.12524 20.1728 5.15777C20.1735 5.1903 20.1826 5.22209 20.1993 5.25002C20.2324 5.30697 20.2499 5.37165 20.2501 5.43753C20.2502 5.50341 20.2329 5.56816 20.2 5.62523C20.1671 5.68231 20.1197 5.72968 20.0626 5.76257C20.0055 5.79545 19.9408 5.81269 19.8749 5.81252C19.809 5.81259 19.7443 5.79529 19.6872 5.76238C19.6301 5.72946 19.5827 5.68209 19.5498 5.62502C19.536 5.60026 19.5167 5.57896 19.4934 5.56272C19.4702 5.54648 19.4435 5.53573 19.4155 5.53127C19.4035 5.52935 19.3913 5.52859 19.3792 5.52902C19.3789 5.52902 19.3787 5.52902 19.3784 5.52902C19.3779 5.52902 19.3774 5.52902 19.3769 5.52902C19.3586 5.53013 19.3405 5.53392 19.3233 5.54027C19.3116 5.54415 19.3003 5.54918 19.2895 5.55527C19.2844 5.55853 19.2794 5.56203 19.2745 5.56577C19.2693 5.56939 19.2643 5.57327 19.2595 5.5774C19.2552 5.58157 19.2511 5.58595 19.2472 5.59052C19.2469 5.59077 19.2467 5.59102 19.2464 5.59127C19.2198 5.6211 19.2034 5.65865 19.1996 5.69845C19.1958 5.73826 19.2049 5.77823 19.2254 5.81252C19.2586 5.86949 19.2761 5.93421 19.2762 6.00012C19.2763 6.06604 19.259 6.13081 19.2261 6.1879C19.1931 6.24498 19.1457 6.29235 19.0885 6.32521C19.0314 6.35807 18.9666 6.37525 18.9007 6.37502C18.8348 6.37509 18.77 6.35779 18.7129 6.32488C18.6559 6.29196 18.6085 6.24459 18.5755 6.18752C18.5632 6.16571 18.5466 6.14658 18.5268 6.13127C18.522 6.12728 18.517 6.12352 18.5118 6.12002C18.5115 6.12002 18.5113 6.12002 18.511 6.12002C18.4845 6.10349 18.4543 6.09383 18.4232 6.09194C18.392 6.09004 18.3608 6.09595 18.3325 6.10915C18.3323 6.1094 18.332 6.10965 18.3318 6.1099C18.3263 6.11227 18.3209 6.11489 18.3157 6.11777C18.3104 6.12102 18.3052 6.12452 18.3003 6.12827C18.2951 6.13189 18.2901 6.13577 18.2853 6.1399C18.2811 6.14408 18.2771 6.14846 18.2733 6.15302C18.273 6.15327 18.2728 6.15352 18.2725 6.15377C18.2473 6.18183 18.2311 6.21684 18.2261 6.25424C18.2211 6.29164 18.2275 6.32969 18.2444 6.3634C18.2463 6.36734 18.2483 6.37122 18.2504 6.37502C18.2835 6.43197 18.3011 6.49665 18.3012 6.56253C18.3013 6.62841 18.2841 6.69316 18.2512 6.75023C18.2182 6.80731 18.1708 6.85468 18.1138 6.88757C18.0567 6.92045 17.9919 6.93769 17.926 6.93752C17.8602 6.93757 17.7956 6.92026 17.7387 6.88734C17.6817 6.85442 17.6344 6.80705 17.6017 6.75002C17.5894 6.72806 17.5729 6.70877 17.5531 6.6933C17.5333 6.67784 17.5106 6.66652 17.4863 6.66001C17.462 6.6535 17.4367 6.65194 17.4118 6.65542C17.3869 6.65891 17.363 6.66736 17.3414 6.68027C17.3362 6.68353 17.3312 6.68703 17.3264 6.69077C17.3212 6.69439 17.3162 6.69827 17.3114 6.7024C17.3071 6.70657 17.3029 6.71095 17.299 6.71553C17.2988 6.71577 17.2985 6.71602 17.2983 6.71627C17.2715 6.74597 17.2549 6.78346 17.2509 6.82327C17.2469 6.86307 17.2558 6.90311 17.2762 6.93752C17.3093 6.99447 17.3268 7.05915 17.3269 7.12503C17.3271 7.19091 17.3098 7.25566 17.2769 7.31273C17.244 7.36981 17.1966 7.41718 17.1395 7.45007C17.0824 7.48295 17.0177 7.50019 16.9518 7.50002C16.8859 7.50009 16.8212 7.48279 16.7641 7.44988C16.707 7.41696 16.6596 7.36959 16.6267 7.31252C16.6144 7.29076 16.598 7.27165 16.5783 7.25632C16.5586 7.24099 16.536 7.22975 16.5119 7.22325C16.4878 7.21675 16.4627 7.21513 16.438 7.21849C16.4132 7.22184 16.3894 7.2301 16.3679 7.24277C16.3467 7.25534 16.3281 7.27196 16.3134 7.2917C16.2986 7.31143 16.2878 7.33389 16.2817 7.35778C16.2756 7.38168 16.2743 7.40654 16.2778 7.43095C16.2814 7.45536 16.2897 7.47883 16.3023 7.50002C16.3683 7.61383 16.4631 7.7083 16.5771 7.77396C16.6911 7.83963 16.8204 7.8742 16.952 7.8742C17.0835 7.8742 17.2128 7.83963 17.3268 7.77396C17.4409 7.7083 17.5356 7.61383 17.6017 7.50002C17.6437 7.4269 17.668 7.34777 17.6834 7.26715C17.761 7.29377 17.8417 7.31252 17.926 7.31252C18.1934 7.31252 18.4417 7.16927 18.5755 6.93752C18.6179 6.8644 18.6419 6.78527 18.6577 6.70465C18.7353 6.73127 18.8155 6.75002 18.8999 6.75002C19.1677 6.75002 19.4159 6.60677 19.5498 6.37502C19.5922 6.30152 19.6162 6.2224 19.6319 6.1414C19.7095 6.1684 19.7902 6.18752 19.8749 6.18752C20.0065 6.18739 20.1357 6.15264 20.2496 6.08676C20.3635 6.02087 20.4581 5.92618 20.5238 5.81219C20.5896 5.6982 20.6242 5.56892 20.6241 5.43733C20.6241 5.30575 20.5895 5.17648 20.5237 5.06252C20.5068 5.03236 20.482 5.00743 20.4519 4.99049C20.4218 4.97355 20.3876 4.96525 20.353 4.96652ZM11.2499 5.25002C11.4592 5.25002 11.6249 5.41577 11.6249 5.62502C11.6249 5.83427 11.4592 6.00002 11.2499 6.00002C11.0407 6.00002 10.8749 5.83427 10.8749 5.62502C10.8749 5.41577 11.0407 5.25002 11.2499 5.25002ZM10.8299 7.7914L11.9583 8.9194L10.2434 8.8069L10.8303 7.7914H10.8299ZM20.8124 8.25002C20.7627 8.25002 20.715 8.26978 20.6798 8.30494C20.6447 8.34011 20.6249 8.3878 20.6249 8.43752C20.6249 8.48725 20.6447 8.53494 20.6798 8.57011C20.715 8.60527 20.7627 8.62502 20.8124 8.62502C20.8621 8.62502 20.9098 8.60527 20.945 8.57011C20.9802 8.53494 20.9999 8.48725 20.9999 8.43752C20.9999 8.3878 20.9802 8.34011 20.945 8.30494C20.9098 8.26978 20.8621 8.25002 20.8124 8.25002ZM6.93741 9.00002C6.88768 9.00002 6.83999 9.01978 6.80482 9.05494C6.76966 9.09011 6.74991 9.1378 6.74991 9.18752C6.74991 9.23725 6.76966 9.28494 6.80482 9.32011C6.83999 9.35527 6.88768 9.37502 6.93741 9.37502C6.98714 9.37502 7.03483 9.35527 7.06999 9.32011C7.10515 9.28494 7.12491 9.23725 7.12491 9.18752C7.12491 9.1378 7.10515 9.09011 7.06999 9.05494C7.03483 9.01978 6.98714 9.00002 6.93741 9.00002ZM10.0342 9.16878L12.3603 9.3214L14.3714 11.3329L8.98828 10.9789L10.0342 9.1684V9.16878ZM15.1874 9.75002C15.1377 9.75002 15.09 9.76978 15.0548 9.80494C15.0197 9.84011 14.9999 9.8878 14.9999 9.93752C14.9999 9.98725 15.0197 10.0349 15.0548 10.0701C15.09 10.1053 15.1377 10.125 15.1874 10.125C15.2371 10.125 15.2848 10.1053 15.32 10.0701C15.3552 10.0349 15.3749 9.98725 15.3749 9.93752C15.3749 9.8878 15.3552 9.84011 15.32 9.80494C15.2848 9.76978 15.2371 9.75002 15.1874 9.75002ZM18.5624 10.1074C17.6155 10.1074 16.6687 10.3729 15.8384 10.9035C15.7965 10.9304 15.767 10.9728 15.7564 11.0214C15.7458 11.07 15.7549 11.1208 15.7818 11.1627C15.8086 11.2045 15.851 11.234 15.8996 11.2446C15.9482 11.2552 15.999 11.2461 16.0409 11.2193C16.7939 10.7379 17.6689 10.4821 18.5626 10.4821C19.4563 10.4821 20.3313 10.7379 21.0843 11.2193C21.105 11.2332 21.1283 11.2429 21.1528 11.2477C21.1773 11.2525 21.2026 11.2524 21.227 11.2473C21.2515 11.2422 21.2747 11.2323 21.2953 11.2181C21.3158 11.204 21.3334 11.1858 21.3468 11.1648C21.3603 11.1437 21.3694 11.1202 21.3737 11.0956C21.3779 11.071 21.3772 11.0458 21.3716 11.0214C21.366 10.9971 21.3555 10.9741 21.3409 10.9539C21.3263 10.9336 21.3077 10.9165 21.2864 10.9035C20.4731 10.3834 19.5278 10.1072 18.5624 10.1074ZM4.87491 11.25C4.46278 11.25 4.12491 11.5879 4.12491 12C4.12491 12.4122 4.46278 12.75 4.87491 12.75C5.28703 12.75 5.62491 12.4122 5.62491 12C5.62491 11.5879 5.28703 11.25 4.87491 11.25ZM8.77866 11.3408L14.7742 11.7357L16.5843 13.5454L16.2918 13.7141L7.73278 13.1516L8.77866 11.3408ZM4.87491 11.625C5.08416 11.625 5.24991 11.7908 5.24991 12C5.24991 12.2093 5.08416 12.375 4.87491 12.375C4.66566 12.375 4.49991 12.2093 4.49991 12C4.49991 11.7908 4.66566 11.625 4.87491 11.625ZM19.1249 12C18.7128 12 18.3749 12.3379 18.3749 12.75C18.3749 13.1622 18.7128 13.5 19.1249 13.5C19.537 13.5 19.8749 13.1622 19.8749 12.75C19.8749 12.3379 19.537 12 19.1249 12ZM19.1249 12.375C19.3342 12.375 19.4999 12.5408 19.4999 12.75C19.4999 12.9593 19.3342 13.125 19.1249 13.125C18.9157 13.125 18.7499 12.9593 18.7499 12.75C18.7499 12.5408 18.9157 12.375 19.1249 12.375ZM7.52316 13.5132L15.7083 14.0517L12.7893 15.7392L6.47728 15.3229L7.52316 13.5132ZM20.8124 15C20.7627 15 20.715 15.0198 20.6798 15.0549C20.6447 15.0901 20.6249 15.1378 20.6249 15.1875C20.6249 15.2373 20.6447 15.2849 20.6798 15.3201C20.715 15.3553 20.7627 15.375 20.8124 15.375C20.8621 15.375 20.9098 15.3553 20.945 15.3201C20.9802 15.2849 20.9999 15.2373 20.9999 15.1875C20.9999 15.1378 20.9802 15.0901 20.945 15.0549C20.9098 15.0198 20.8621 15 20.8124 15ZM6.26803 15.6855L12.205 16.0759L9.28641 17.7634L5.22216 17.4953L6.26803 15.6855ZM15.9374 15.75C15.8877 15.75 15.84 15.7698 15.8048 15.8049C15.7697 15.8401 15.7499 15.8878 15.7499 15.9375C15.7499 15.9873 15.7697 16.0349 15.8048 16.0701C15.84 16.1053 15.8877 16.125 15.9374 16.125C15.9871 16.125 16.0348 16.1053 16.07 16.0701C16.1052 16.0349 16.1249 15.9873 16.1249 15.9375C16.1249 15.8878 16.1052 15.8401 16.07 15.8049C16.0348 15.7698 15.9871 15.75 15.9374 15.75ZM18.3749 16.875C17.9628 16.875 17.6249 17.2129 17.6249 17.625C17.6249 18.0372 17.9628 18.375 18.3749 18.375C18.787 18.375 19.1249 18.0372 19.1249 17.625C19.1249 17.2129 18.787 16.875 18.3749 16.875ZM18.3749 17.25C18.5842 17.25 18.7499 17.4158 18.7499 17.625C18.7499 17.8343 18.5842 18 18.3749 18C18.1657 18 17.9999 17.8343 17.9999 17.625C17.9999 17.4158 18.1657 17.25 18.3749 17.25ZM5.01253 17.8579L8.70328 18.1005L5.78466 19.7873L3.96591 19.6677L5.01253 17.8579ZM14.173 18.375C13.9053 18.375 13.657 18.5183 13.5232 18.75C13.4831 18.8225 13.4554 18.9012 13.4414 18.9829C13.3634 18.9542 13.2811 18.9389 13.198 18.9375C12.9307 18.9375 12.6824 19.0808 12.5485 19.3125C12.5086 19.385 12.481 19.4638 12.4672 19.5454C12.3893 19.5168 12.3071 19.5014 12.2242 19.5C11.9564 19.5 11.7082 19.6433 11.5743 19.875C11.5343 19.9475 11.5068 20.0263 11.4929 20.1079C11.415 20.0793 11.3329 20.0639 11.2499 20.0625C11.1183 20.0628 10.9892 20.0976 10.8753 20.1634C10.7614 20.2293 10.6668 20.324 10.6011 20.4379C10.5353 20.5518 10.5006 20.6811 10.5005 20.8126C10.5004 20.9442 10.5348 21.0735 10.6004 21.1875C10.6127 21.2089 10.6291 21.2276 10.6487 21.2426C10.6682 21.2576 10.6905 21.2686 10.7143 21.275C10.7381 21.2814 10.7629 21.283 10.7874 21.2798C10.8118 21.2766 10.8354 21.2687 10.8567 21.2563C10.8781 21.244 10.8968 21.2276 10.9118 21.2081C10.9268 21.1885 10.9378 21.1662 10.9442 21.1424C10.9506 21.1186 10.9522 21.0938 10.949 21.0694C10.9458 21.0449 10.9378 21.0214 10.9255 21C10.8924 20.9431 10.8749 20.8784 10.8747 20.8125C10.8746 20.7466 10.8919 20.6819 10.9248 20.6248C10.9577 20.5677 11.0051 20.5204 11.0622 20.4875C11.1193 20.4546 11.184 20.4374 11.2499 20.4375C11.3842 20.4375 11.5072 20.5088 11.5743 20.625C11.5867 20.6469 11.6034 20.666 11.6234 20.6813C11.6282 20.6853 11.6332 20.689 11.6384 20.6925C11.6385 20.6925 11.6387 20.6925 11.6388 20.6925C11.6492 20.6992 11.6603 20.7049 11.6718 20.7094C11.6954 20.7181 11.7205 20.7219 11.7457 20.7207C11.7519 20.7206 11.7582 20.7202 11.7644 20.7195C11.7829 20.7168 11.8008 20.7114 11.8177 20.7034C11.8179 20.7034 11.8182 20.7034 11.8184 20.7034C11.8239 20.7008 11.8293 20.6979 11.8345 20.6948C11.8348 20.6948 11.835 20.6948 11.8353 20.6948C11.8405 20.6915 11.8455 20.688 11.8503 20.6843C11.8805 20.6618 11.9032 20.6307 11.9155 20.595C11.9218 20.5773 11.9253 20.5587 11.926 20.5399C11.926 20.5396 11.926 20.5394 11.926 20.5392C11.9263 20.5266 11.9253 20.514 11.923 20.5017C11.9221 20.4958 11.9208 20.4901 11.9193 20.4844C11.9193 20.4841 11.9193 20.4839 11.9193 20.4837C11.9177 20.4777 11.9158 20.4718 11.9137 20.466C11.9097 20.4561 11.905 20.4466 11.8994 20.4375C11.8663 20.3806 11.8487 20.3158 11.8486 20.2499C11.8485 20.184 11.8658 20.1192 11.8988 20.0622C11.9317 20.0051 11.9792 19.9577 12.0363 19.9248C12.0934 19.892 12.1582 19.8748 12.2242 19.875C12.29 19.875 12.3548 19.8923 12.4119 19.9252C12.4689 19.9581 12.5163 20.0055 12.5493 20.0625C12.5645 20.09 12.5865 20.1132 12.613 20.13C12.6234 20.1367 12.6345 20.1424 12.646 20.1469C12.6463 20.1469 12.6465 20.1469 12.6468 20.1469C12.6702 20.1555 12.695 20.1593 12.7199 20.1582C12.726 20.1581 12.7322 20.1577 12.7383 20.157C12.7445 20.1561 12.7506 20.1548 12.7567 20.1533C12.7569 20.1533 12.7572 20.1533 12.7574 20.1533C12.7632 20.1519 12.769 20.1503 12.7747 20.1484C12.7867 20.1442 12.7982 20.1388 12.8092 20.1323C12.8145 20.129 12.8196 20.1255 12.8245 20.1218C12.8346 20.1142 12.8439 20.1057 12.8523 20.0963C12.8565 20.0919 12.8605 20.0872 12.8643 20.0824C12.8643 20.0822 12.8643 20.0819 12.8643 20.0816C12.8715 20.0718 12.8778 20.0612 12.883 20.0501C12.883 20.0499 12.883 20.0497 12.883 20.0494C12.8934 20.0268 12.8991 20.0023 12.8999 19.9774C12.8999 19.9771 12.8999 19.9769 12.8999 19.9767C12.9005 19.9645 12.8998 19.9523 12.898 19.9403C12.898 19.94 12.898 19.9398 12.898 19.9395C12.8968 19.9336 12.8953 19.9277 12.8935 19.9219C12.8935 19.9216 12.8935 19.9214 12.8935 19.9212C12.889 19.905 12.8823 19.8894 12.8737 19.875C12.8405 19.818 12.823 19.7533 12.8229 19.6873C12.8228 19.6214 12.8401 19.5566 12.8731 19.4995C12.9061 19.4424 12.9536 19.395 13.0108 19.3622C13.068 19.3294 13.1328 19.3122 13.1988 19.3125C13.333 19.3125 13.456 19.3838 13.5232 19.5C13.5384 19.5275 13.5603 19.5507 13.5869 19.5675C13.5976 19.5743 13.6089 19.5799 13.6207 19.5844C13.6323 19.5887 13.6444 19.5919 13.6567 19.5938C13.6627 19.5948 13.6689 19.5956 13.675 19.596C13.6753 19.596 13.6755 19.596 13.6758 19.596C13.6819 19.5963 13.688 19.5963 13.6942 19.596C13.7319 19.5946 13.7684 19.5818 13.7988 19.5593C13.8039 19.5554 13.8087 19.5513 13.8134 19.5469C13.818 19.543 13.8224 19.5389 13.8265 19.5345C13.8265 19.5343 13.8265 19.534 13.8265 19.5338C13.8306 19.5293 13.8345 19.5247 13.8382 19.5199C13.8382 19.5197 13.8382 19.5194 13.8382 19.5191C13.8456 19.5093 13.852 19.4988 13.8573 19.4876C13.8573 19.4874 13.8573 19.4872 13.8573 19.4869C13.8651 19.4699 13.8702 19.4518 13.8727 19.4333C13.8735 19.4272 13.874 19.421 13.8742 19.4149C13.8742 19.4146 13.8742 19.4144 13.8742 19.4142C13.8746 19.402 13.8738 19.3898 13.8719 19.3778C13.8719 19.3775 13.8719 19.3773 13.8719 19.377C13.8707 19.3711 13.8692 19.3652 13.8674 19.3594C13.8674 19.3591 13.8674 19.3589 13.8674 19.3587C13.863 19.3425 13.8564 19.327 13.8479 19.3125C13.8147 19.2555 13.7972 19.1908 13.7971 19.1248C13.797 19.0589 13.8143 18.9941 13.8473 18.937C13.8803 18.8799 13.9278 18.8325 13.985 18.7997C14.0422 18.7669 14.1071 18.7497 14.173 18.75C14.3073 18.75 14.4303 18.8213 14.4974 18.9375C14.5096 18.9595 14.5261 18.9788 14.5459 18.9942C14.5658 19.0097 14.5885 19.021 14.6128 19.0275C14.637 19.034 14.6624 19.0356 14.6873 19.0321C14.7122 19.0286 14.7361 19.0202 14.7577 19.0073C14.8003 18.9817 14.831 18.9402 14.843 18.8919C14.855 18.8437 14.8474 18.7926 14.8218 18.75C14.756 18.6361 14.6615 18.5415 14.5476 18.4757C14.4337 18.4099 14.3046 18.3752 14.173 18.375ZM15.9374 19.875C15.8877 19.875 15.84 19.8948 15.8048 19.9299C15.7697 19.9651 15.7499 20.0128 15.7499 20.0625C15.7499 20.1123 15.7697 20.1599 15.8048 20.1951C15.84 20.2303 15.8877 20.25 15.9374 20.25C15.9871 20.25 16.0348 20.2303 16.07 20.1951C16.1052 20.1599 16.1249 20.1123 16.1249 20.0625C16.1249 20.0128 16.1052 19.9651 16.07 19.9299C16.0348 19.8948 15.9871 19.875 15.9374 19.875ZM3.75741 20.0295L5.20116 20.1248L2.95116 21.4249L3.75741 20.0295ZM8.81241 20.625C8.76268 20.625 8.71499 20.6448 8.67982 20.6799C8.64466 20.7151 8.62491 20.7628 8.62491 20.8125C8.62491 20.8623 8.64466 20.9099 8.67982 20.9451C8.71499 20.9803 8.76268 21 8.81241 21C8.86214 21 8.90983 20.9803 8.94499 20.9451C8.98015 20.9099 8.99991 20.8623 8.99991 20.8125C8.99991 20.7628 8.98015 20.7151 8.94499 20.6799C8.90983 20.6448 8.86214 20.625 8.81241 20.625Z" fill="#525256"/>
</g>
</svg>
