<svg width="200" height="200" viewBox="0 0 200 200" fill="none" xmlns="http://www.w3.org/2000/svg">
<g id="Contact us-amico">
<g id="freepik--Floor--inject-79">
<path id="Vector" d="M99.9997 195.716C143.531 195.716 178.82 175.669 178.82 150.94C178.82 126.211 143.531 106.164 99.9997 106.164C56.4686 106.164 21.1797 126.211 21.1797 150.94C21.1797 175.669 56.4686 195.716 99.9997 195.716Z" fill="#F5F5F5"/>
</g>
<g id="freepik--Shadows--inject-79">
<path id="Vector_2" d="M132.8 179.172L73.9643 145.2C73.4467 144.902 73.0168 144.473 72.7179 143.955C72.419 143.438 72.2616 142.851 72.2616 142.254C72.2616 141.657 72.419 141.07 72.7179 140.553C73.0168 140.036 73.4467 139.606 73.9643 139.308L79.7683 135.648C80.7702 135.071 81.9061 134.767 83.0623 134.767C84.2185 134.767 85.3544 135.071 86.3563 135.648L145.2 169.624C145.718 169.922 146.148 170.352 146.447 170.869C146.746 171.386 146.903 171.973 146.903 172.57C146.903 173.167 146.746 173.754 146.447 174.271C146.148 174.789 145.718 175.218 145.2 175.516L139.396 179.172C138.394 179.752 137.256 180.058 136.098 180.058C134.94 180.058 133.803 179.752 132.8 179.172Z" fill="#E0E0E0"/>
<path id="Vector_3" d="M43.3403 148.2C50.3918 148.2 56.1083 144.917 56.1083 140.868C56.1083 136.819 50.3918 133.536 43.3403 133.536C36.2887 133.536 30.5723 136.819 30.5723 140.868C30.5723 144.917 36.2887 148.2 43.3403 148.2Z" fill="#E6E6E6"/>
</g>
<g id="freepik--Plants--inject-79">
<path id="Vector_4" d="M153.665 149.88L159.265 153.1C159.265 153.1 156.405 144.112 157.929 135.052C158.505 131.628 159.741 129.928 160.173 129.012C160.605 128.096 163.953 122.436 160.973 119.844C157.993 117.252 151.061 122.464 151.437 136.412C151.608 140.978 152.356 145.503 153.665 149.88Z" fill="#BA68C8"/>
<path id="Vector_5" opacity="0.5" d="M153.665 149.88L159.265 153.1C159.265 153.1 156.405 144.112 157.929 135.052C158.505 131.628 159.741 129.928 160.173 129.012C160.605 128.096 163.953 122.436 160.973 119.844C157.993 117.252 151.061 122.464 151.437 136.412C151.608 140.978 152.356 145.503 153.665 149.88Z" fill="black"/>
<path id="Vector_6" d="M156.268 151.576C156.227 151.577 156.187 151.565 156.153 151.542C156.12 151.519 156.094 151.486 156.08 151.448C156.06 151.388 153.92 145.54 153.988 136.14C154.056 126.74 158.996 121.636 159.044 121.588C159.063 121.569 159.085 121.554 159.109 121.544C159.133 121.534 159.16 121.529 159.186 121.529C159.212 121.529 159.238 121.534 159.263 121.544C159.287 121.554 159.309 121.569 159.328 121.588C159.347 121.607 159.362 121.629 159.372 121.653C159.382 121.677 159.387 121.704 159.387 121.73C159.387 121.756 159.382 121.783 159.372 121.807C159.362 121.831 159.347 121.853 159.328 121.872C159.28 121.92 154.456 126.872 154.388 136.144C154.32 145.416 156.432 151.256 156.456 151.312C156.474 151.362 156.471 151.417 156.449 151.465C156.426 151.513 156.386 151.55 156.336 151.568C156.314 151.575 156.291 151.577 156.268 151.576Z" fill="white"/>
<path id="Vector_7" d="M156 151.256L163.656 155.656C164.453 156.128 165.399 156.281 166.305 156.086C167.211 155.891 168.01 155.362 168.544 154.604C169.05 153.816 169.264 152.874 169.148 151.944C168.78 147.968 167.052 147.052 169.168 145.28C171.284 143.508 171.836 143.384 171.716 141.68C171.596 139.976 170.432 139.232 169.88 138.56C169.328 137.888 167.8 136.48 168.84 134.4C169.88 132.32 171.3 130.308 169.148 129.388C167.864 128.836 165.724 129.572 164.316 131.1C162.908 132.628 161.748 133.728 160.4 134.096C159.052 134.464 156.244 134.524 156.364 136.848C156.484 139.172 157.1 139.968 156.548 141.004C155.508 142.94 150.984 144.04 156 151.256Z" fill="#BA68C8"/>
<path id="Vector_8" d="M159.784 153.624C159.734 153.623 159.686 153.603 159.65 153.569C159.613 153.536 159.59 153.49 159.584 153.44C159.584 153.304 158.408 139.576 167.848 130.44C167.887 130.408 167.936 130.392 167.987 130.395C168.037 130.398 168.085 130.42 168.12 130.456C168.155 130.493 168.174 130.541 168.175 130.591C168.176 130.642 168.158 130.691 168.124 130.728C158.82 139.732 159.972 153.268 159.984 153.404C159.988 153.457 159.972 153.509 159.938 153.549C159.905 153.59 159.856 153.615 159.804 153.62L159.784 153.624Z" fill="white"/>
<path id="Vector_9" d="M161.3 141.808C161.25 141.808 161.201 141.789 161.164 141.755C161.127 141.721 161.104 141.674 161.1 141.624C161.017 140.56 160.717 139.525 160.22 138.58C159.722 137.636 159.038 136.803 158.208 136.132C158.187 136.117 158.168 136.098 158.154 136.075C158.14 136.053 158.13 136.028 158.126 136.002C158.121 135.976 158.122 135.949 158.128 135.924C158.134 135.898 158.145 135.874 158.16 135.852C158.175 135.831 158.194 135.812 158.216 135.798C158.238 135.784 158.262 135.774 158.288 135.77C158.314 135.766 158.34 135.766 158.366 135.772C158.391 135.778 158.415 135.789 158.436 135.804C159.321 136.505 160.049 137.383 160.577 138.38C161.104 139.378 161.419 140.474 161.5 141.6C161.505 141.654 161.488 141.707 161.453 141.748C161.419 141.789 161.37 141.815 161.316 141.82L161.3 141.808Z" fill="white"/>
<path id="Vector_10" d="M160.649 144.164C160.601 144.165 160.554 144.148 160.517 144.116C160.478 144.081 160.453 144.031 160.45 143.978C160.446 143.925 160.463 143.873 160.497 143.832C160.593 143.72 162.957 141.112 168.497 141.804C168.55 141.811 168.598 141.839 168.63 141.881C168.662 141.923 168.676 141.976 168.669 142.028C168.662 142.081 168.635 142.129 168.593 142.162C168.551 142.195 168.498 142.21 168.445 142.204C163.125 141.536 160.817 144.072 160.793 144.096C160.775 144.117 160.753 144.133 160.728 144.145C160.704 144.156 160.677 144.163 160.649 144.164Z" fill="white"/>
</g>
<g id="freepik--Device--inject-79">
<path id="Vector_11" d="M131.008 175.112L79.2643 145.236C75.6123 143.128 72.6523 137.472 72.6523 132.604V21.8038C72.6523 16.9358 75.6123 14.6998 79.2643 16.8078L131.008 46.6838C134.66 48.7918 137.62 54.4478 137.62 59.3158V170.116C137.62 174.98 134.66 177.22 131.008 175.112Z" fill="#455A64"/>
<path id="Vector_12" d="M136.968 43.1998L85.2203 13.3238C83.6603 12.4238 82.2283 12.3198 81.0963 12.8718C80.9578 12.9412 80.8241 13.02 80.6963 13.1078L74.8963 16.4798C76.0643 15.7798 77.5923 15.8318 79.2683 16.7998L131.012 46.6758C134.664 48.7838 137.624 54.4398 137.624 59.3078V170.108C137.624 172.684 136.796 174.508 135.476 175.372L141.2 172.04C142.66 171.264 143.6 169.364 143.6 166.64V55.8398C143.6 50.9638 140.62 45.3078 136.968 43.1998Z" fill="#37474F"/>
<path id="Vector_13" d="M137.621 59.3078V170.108C137.621 172.684 136.793 174.508 135.473 175.372L141.201 172.04C142.661 171.264 143.601 169.364 143.601 166.64V55.8398L137.641 59.2998L137.621 59.3078Z" fill="#263238"/>
<path id="Vector_14" d="M143.581 64.4355L137.621 67.8755V70.5635L143.581 67.1195V64.4355Z" fill="#37474F"/>
<path id="Vector_15" d="M140.968 82.3116C140.436 82.6196 140.004 82.2916 140.004 81.5836V75.8036C140.009 75.4423 140.099 75.0872 140.267 74.767C140.434 74.4468 140.674 74.1702 140.968 73.9596C141.5 73.6516 141.932 73.9596 141.932 74.6876V80.4676C141.926 80.8289 141.836 81.1839 141.669 81.5042C141.502 81.8244 141.262 82.1009 140.968 82.3116Z" fill="#37474F"/>
<path id="Vector_16" d="M140 81.5998V75.8038C140.006 75.4425 140.096 75.0875 140.263 74.7672C140.431 74.447 140.671 74.1704 140.964 73.9598C141.052 73.8984 141.154 73.861 141.261 73.8512C141.368 73.8413 141.475 73.8595 141.572 73.9038L140.848 73.5318C140.749 73.4841 140.639 73.4635 140.53 73.4719C140.42 73.4803 140.315 73.5175 140.224 73.5798C139.93 73.7905 139.69 74.0669 139.522 74.3871C139.354 74.7072 139.263 75.0622 139.256 75.4238V81.1998C139.241 81.3457 139.264 81.493 139.321 81.628C139.378 81.763 139.469 81.8813 139.584 81.9718L140.34 82.3718C140.22 82.2851 140.125 82.1678 140.065 82.0321C140.005 81.8963 139.983 81.7471 140 81.5998Z" fill="#455A64"/>
<path id="Vector_17" d="M140.968 96.2998C140.436 96.6078 140.004 96.2998 140.004 95.5718V89.7918C140.01 89.4305 140.1 89.0756 140.267 88.7554C140.435 88.4353 140.675 88.1587 140.968 87.9478C141.5 87.6398 141.932 87.9478 141.932 88.6798V94.4558C141.927 94.8172 141.837 95.1725 141.67 95.4928C141.502 95.8132 141.262 96.0896 140.968 96.2998Z" fill="#37474F"/>
<path id="Vector_18" d="M140.001 95.5716V89.7916C140.006 89.4303 140.097 89.0754 140.264 88.7552C140.431 88.435 140.671 88.1585 140.965 87.9476C141.053 87.8873 141.155 87.8505 141.261 87.8407C141.368 87.8309 141.475 87.8484 141.573 87.8916L140.849 87.5156C140.75 87.4658 140.64 87.444 140.53 87.4525C140.42 87.4609 140.314 87.4994 140.225 87.5636C139.93 87.7736 139.689 88.0499 139.521 88.3702C139.353 88.6905 139.262 89.0459 139.257 89.4076V95.1996C139.241 95.3455 139.263 95.493 139.321 95.6281C139.378 95.7631 139.469 95.8814 139.585 95.9716L140.341 96.3716C140.215 96.2829 140.117 96.1611 140.057 96.0198C139.997 95.8785 139.978 95.7233 140.001 95.5716Z" fill="#455A64"/>
<path id="Vector_19" d="M129.2 49.7918L78.3521 20.4238C78.1398 20.3017 77.8994 20.2373 77.6546 20.2368C77.4097 20.2364 77.169 20.2999 76.9564 20.4212C76.7437 20.5425 76.5664 20.7173 76.4422 20.9283C76.3179 21.1392 76.251 21.379 76.248 21.6238V132.604C76.248 136.308 78.8761 140.856 82.0841 142.708L131.684 171.36C131.919 171.495 132.186 171.566 132.457 171.566C132.729 171.566 132.995 171.494 133.23 171.359C133.465 171.223 133.66 171.028 133.796 170.793C133.932 170.558 134.004 170.291 134.004 170.02V58.1238C134.024 55.0678 131.856 51.3198 129.2 49.7918Z" fill="#BA68C8"/>
<path id="Vector_20" opacity="0.9" d="M129.2 49.7918L78.3521 20.4238C78.1398 20.3017 77.8994 20.2373 77.6546 20.2368C77.4097 20.2364 77.169 20.2999 76.9564 20.4212C76.7437 20.5425 76.5664 20.7173 76.4422 20.9283C76.3179 21.1392 76.251 21.379 76.248 21.6238V132.604C76.248 136.308 78.8761 140.856 82.0841 142.708L131.684 171.36C131.919 171.495 132.186 171.566 132.457 171.566C132.729 171.566 132.995 171.494 133.23 171.359C133.465 171.223 133.66 171.028 133.796 170.793C133.932 170.558 134.004 170.291 134.004 170.02V58.1238C134.024 55.0678 131.856 51.3198 129.2 49.7918Z" fill="white"/>
<path id="Vector_21" d="M93.5603 28.0918L94.3483 31.4078L111.204 41.1278L114.116 39.5758L93.5603 28.0918Z" fill="#455A64"/>
<path id="Vector_22" d="M98.5168 31.2958C98.5168 31.8478 98.1168 32.0678 97.6528 31.7958C97.4037 31.6304 97.1968 31.4089 97.0489 31.1491C96.9009 30.8893 96.8159 30.5984 96.8008 30.2998C96.8008 29.7518 97.2008 29.5278 97.6648 29.8038C97.9138 29.9683 98.1206 30.1891 98.2686 30.4482C98.4166 30.7074 98.5016 30.9977 98.5168 31.2958Z" fill="#263238"/>
<path id="Vector_23" d="M109.873 38.316C109.781 38.3153 109.69 38.2919 109.609 38.248L101.001 33.448C100.879 33.3766 100.791 33.2606 100.753 33.1246C100.716 32.9886 100.734 32.8435 100.802 32.7203C100.871 32.5971 100.985 32.5055 101.12 32.4651C101.255 32.4246 101.4 32.4386 101.525 32.504L110.137 37.304C110.242 37.3622 110.324 37.4535 110.371 37.5637C110.418 37.6738 110.427 37.7964 110.397 37.9123C110.367 38.0282 110.299 38.1308 110.204 38.2039C110.109 38.2769 109.993 38.3164 109.873 38.316Z" fill="#263238"/>
<path id="Vector_24" d="M86.9114 43.5198C86.3874 43.2158 86.0074 43.4798 86.0074 44.1478C86.0074 44.4818 86.09 44.8107 86.2477 45.1052C86.4054 45.3997 86.6334 45.6506 86.9114 45.8358C87.0604 45.9262 87.2312 45.974 87.4054 45.974C87.5796 45.974 87.7505 45.9262 87.8994 45.8358L88.7354 47.3478C88.4413 47.5101 88.1079 47.5874 87.7724 47.5712C87.4369 47.5549 87.1125 47.4457 86.8354 47.2558C86.1563 46.8403 85.59 46.2637 85.1867 45.5772C84.7835 44.8907 84.5557 44.1153 84.5234 43.3198C84.5234 41.8358 85.5194 41.3198 86.8914 42.1198C87.6662 42.6187 88.3009 43.3071 88.7354 44.1198L87.8994 44.7838C87.6933 44.2792 87.3513 43.8417 86.9114 43.5198Z" fill="#BA68C8"/>
<path id="Vector_25" d="M93.548 48.5319C93.548 50.0279 92.536 50.5319 91.148 49.7319C90.4495 49.3145 89.8649 48.7309 89.4462 48.0331C89.0275 47.3352 88.7877 46.5448 88.748 45.7319C88.748 44.2359 89.76 43.7319 91.148 44.5319C91.8483 44.9475 92.4342 45.5306 92.8532 46.2289C93.2721 46.9271 93.5109 47.7185 93.548 48.5319ZM90.232 46.6239C90.2391 46.9674 90.3276 47.3042 90.4903 47.6068C90.653 47.9093 90.8853 48.1688 91.168 48.3639C91.664 48.6519 92.0641 48.3639 92.0641 47.6839C92.0627 47.3482 91.9806 47.0178 91.8246 46.7205C91.6687 46.4232 91.4435 46.1679 91.168 45.9759C90.664 45.6839 90.232 45.9319 90.232 46.6239Z" fill="#BA68C8"/>
<path id="Vector_26" d="M95.1609 46.9436L96.8889 50.5436V47.9516L98.1969 48.7076V53.7516L96.9969 53.0556L95.2769 49.4876V52.0636L93.9609 51.3036V46.2476L95.1609 46.9436Z" fill="#BA68C8"/>
<path id="Vector_27" d="M102.473 51.164V52.484L101.225 51.764V55.492L99.781 54.656V50.928L98.541 50.212V48.896L102.473 51.164Z" fill="#BA68C8"/>
<path id="Vector_28" d="M105.289 57.1238L103.649 56.1758L103.425 56.7598L101.945 55.9038L103.789 51.9238L105.273 52.7798L107.049 58.8518L105.509 57.9638L105.289 57.1238ZM104.933 55.7238L104.485 53.9998L104.025 55.1998L104.933 55.7238Z" fill="#BA68C8"/>
<path id="Vector_29" d="M109.341 56.468C108.817 56.168 108.437 56.428 108.437 57.1C108.438 57.4339 108.521 57.7626 108.678 58.0569C108.836 58.3513 109.064 58.6024 109.341 58.788C109.491 58.8775 109.662 58.9248 109.837 58.9248C110.012 58.9248 110.183 58.8775 110.333 58.788L111.169 60.3C110.874 60.4605 110.54 60.5367 110.204 60.5205C109.869 60.5043 109.544 60.3962 109.265 60.208C108.585 59.7921 108.019 59.215 107.615 58.5277C107.212 57.8404 106.985 57.0643 106.953 56.268C106.953 54.784 107.953 54.268 109.321 55.068C110.095 55.5694 110.73 56.2571 111.169 57.068L110.333 57.728C110.122 57.2261 109.78 56.7907 109.341 56.468Z" fill="#BA68C8"/>
<path id="Vector_30" d="M115.112 58.4636V59.7796L113.864 59.0596V62.7996L112.42 61.9636V58.2356L111.18 57.5196V56.2036L115.112 58.4636Z" fill="#BA68C8"/>
<path id="Vector_31" d="M119.38 64.6556C119.736 64.8596 120.008 64.6996 120.008 64.1996V61.2916L121.456 62.1236V65.0316C121.456 66.3716 120.656 66.7716 119.376 66.0396C118.759 65.6972 118.241 65.2021 117.87 64.6019C117.5 64.0016 117.29 63.3164 117.26 62.6116V59.7036L118.708 60.5396V63.4476C118.713 63.6884 118.777 63.9242 118.895 64.1346C119.012 64.3451 119.178 64.5239 119.38 64.6556Z" fill="#BA68C8"/>
<path id="Vector_32" d="M123.788 64.6717C123.624 64.5797 123.52 64.5757 123.52 64.7277C123.52 65.3597 125.78 66.2717 125.78 68.0997C125.78 69.2197 124.928 69.2237 123.944 68.6557C123.079 68.1257 122.334 67.4214 121.756 66.5877L122.292 65.6437C122.732 66.3247 123.296 66.9164 123.956 67.3877C124.168 67.5117 124.304 67.5117 124.304 67.3317C124.304 66.6757 122.04 65.8037 122.04 64.0317C122.04 63.0237 122.776 62.8317 123.912 63.4717C124.644 63.9143 125.288 64.4879 125.812 65.1637L125.288 66.1317C124.855 65.5805 124.351 65.0895 123.788 64.6717Z" fill="#BA68C8"/>
</g>
<g id="freepik--speech-bubble--inject-79">
<path id="Vector_33" d="M79.6354 68.376C81.2583 66.3826 82.0753 63.8534 81.9251 61.2873C81.7749 58.7212 80.6683 56.3045 78.8238 54.5142C76.9794 52.7238 74.5308 51.6898 71.9614 51.616C69.3919 51.5423 66.8882 52.4343 64.944 54.1159C62.9999 55.7975 61.7567 58.1467 61.4595 60.7C61.1624 63.2533 61.833 65.8252 63.339 67.9083C64.845 69.9915 67.0771 71.4345 69.5948 71.9528C72.1125 72.4711 74.733 72.0269 76.9394 70.708L81.9474 72.884L79.6354 68.376Z" fill="#BA68C8"/>
<path id="Vector_34" opacity="0.4" d="M79.6354 68.376C81.2583 66.3826 82.0753 63.8534 81.9251 61.2873C81.7749 58.7212 80.6683 56.3045 78.8238 54.5142C76.9794 52.7238 74.5308 51.6898 71.9614 51.616C69.3919 51.5423 66.8882 52.4343 64.944 54.1159C62.9999 55.7975 61.7567 58.1467 61.4595 60.7C61.1624 63.2533 61.833 65.8252 63.339 67.9083C64.845 69.9915 67.0771 71.4345 69.5948 71.9528C72.1125 72.4711 74.733 72.0269 76.9394 70.708L81.9474 72.884L79.6354 68.376Z" fill="black"/>
<path id="Vector_35" d="M67.8589 61.336C67.8589 61.18 67.7469 61.092 67.5429 61.092C67.0698 61.1539 66.6278 61.3623 66.2789 61.688L65.7109 60.584C66.3088 60.1341 67.0311 59.8798 67.7789 59.856C68.7389 59.856 69.4669 60.36 69.4669 61.112C69.4669 61.648 69.0669 62.164 68.5549 62.68L67.8389 63.388H69.5309V64.564H65.8949V63.6L67.5149 61.924C67.6894 61.7697 67.8099 61.5636 67.8589 61.336Z" fill="white"/>
<path id="Vector_36" d="M72.4914 59.924L71.3874 62.5719H71.8394V61.6799H73.2314V62.5719H73.7594V63.664H73.2314V64.564H71.8394V63.664H69.8594V62.6719L71.0594 59.924H72.4914Z" fill="white"/>
<path id="Vector_37" d="M78.0558 62.2562V64.5642H76.5678V62.6842C76.5764 62.6229 76.5717 62.5606 76.5541 62.5013C76.5366 62.4421 76.5065 62.3873 76.4659 62.3406C76.4253 62.294 76.3752 62.2566 76.319 62.231C76.2627 62.2054 76.2016 62.1921 76.1398 62.1922C75.8478 62.1922 75.6638 62.4202 75.6638 62.7722V64.5642H74.1758V59.6602H75.6638V61.4642C75.7802 61.2802 75.9424 61.1296 76.1346 61.0272C76.3267 60.9248 76.5421 60.8742 76.7598 60.8802C76.9381 60.8756 77.1154 60.9087 77.2801 60.9773C77.4448 61.0459 77.5931 61.1485 77.7155 61.2784C77.8378 61.4082 77.9313 61.5625 77.99 61.7309C78.0486 61.8994 78.071 62.0784 78.0558 62.2562Z" fill="white"/>
</g>
<g id="freepik--Character--inject-79">
<path id="Vector_38" d="M126.577 99.4239V149.124C126.578 149.686 126.43 150.238 126.15 150.726C125.869 151.213 125.466 151.617 124.979 151.899C124.492 152.18 123.94 152.328 123.378 152.329C122.816 152.329 122.264 152.181 121.777 151.9L95.0089 136.444L90.2649 133.708C88.6313 132.763 87.2743 131.407 86.3294 129.773C85.3846 128.14 84.8851 126.287 84.8809 124.4V74.6959C84.88 74.1338 85.0273 73.5814 85.3078 73.0943C85.5883 72.6072 85.9922 72.2025 86.4788 71.9211C86.9654 71.6397 87.5176 71.4914 88.0797 71.4912C88.6418 71.491 89.1941 71.6389 89.6809 71.9199L121.201 90.1159C122.835 91.059 124.192 92.4157 125.136 94.0496C126.08 95.6835 126.577 97.5371 126.577 99.4239Z" fill="#BA68C8"/>
<path id="Vector_39" opacity="0.5" d="M126.577 99.4239V149.124C126.578 149.686 126.43 150.238 126.15 150.726C125.869 151.213 125.466 151.617 124.979 151.899C124.492 152.18 123.94 152.328 123.378 152.329C122.816 152.329 122.264 152.181 121.777 151.9L95.0089 136.444L90.2649 133.708C88.6313 132.763 87.2743 131.407 86.3294 129.773C85.3846 128.14 84.8851 126.287 84.8809 124.4V74.6959C84.88 74.1338 85.0273 73.5814 85.3078 73.0943C85.5883 72.6072 85.9922 72.2025 86.4788 71.9211C86.9654 71.6397 87.5176 71.4914 88.0797 71.4912C88.6418 71.491 89.1941 71.6389 89.6809 71.9199L121.201 90.1159C122.835 91.059 124.192 92.4157 125.136 94.0496C126.08 95.6835 126.577 97.5371 126.577 99.4239Z" fill="white"/>
<path id="Vector_40" d="M111.156 128.832C111.156 128.832 116.168 137.144 112.548 146.516L94.9961 136.444L111.156 128.832Z" fill="#263238"/>
<path id="Vector_41" d="M119.149 91.4867C119.529 88.4062 117.339 85.6014 114.258 85.222C111.178 84.8427 108.373 87.0325 107.993 90.113C107.614 93.1936 109.804 95.9984 112.885 96.3778C115.965 96.7571 118.77 94.5673 119.149 91.4867Z" fill="#263238"/>
<path id="Vector_42" d="M113.6 75.0358C113.6 75.0358 115.324 72.2358 115.852 72.4398C116.38 72.6438 115.508 75.3118 115.508 75.3118C115.508 75.3118 118.116 75.8558 117.632 76.5118C117.148 77.1678 113.96 77.0118 113.96 77.0118L113.6 75.0358Z" fill="#263238"/>
<path id="Vector_43" d="M114.8 82.2516C113.6 91.2676 106 91.2676 106 91.2676L90.0801 84.2596C90.0801 84.2596 88.8801 83.2076 88.5121 80.7916C88.371 79.8019 88.371 78.7972 88.5121 77.8076C88.5121 77.8076 88.5121 77.7876 88.5121 77.7796C89.0201 73.9876 91.8561 69.9116 98.0321 68.6596C99.3856 68.3863 100.763 68.2523 102.144 68.2596C102.812 68.2572 103.48 68.2906 104.144 68.3596C108.944 68.8316 112.308 71.0716 113.912 74.5556C114.273 75.3419 114.541 76.1674 114.712 77.0156C115.038 78.7433 115.067 80.5138 114.8 82.2516Z" fill="#263238"/>
<path id="Vector_44" d="M76.5799 99.6918C76.5799 99.6918 70.928 99.4958 68.752 105.004C68.752 105.004 71.152 106.624 74.3 105.004C77.448 103.384 76.5799 99.6918 76.5799 99.6918Z" fill="#BA68C8"/>
<path id="Vector_45" opacity="0.5" d="M76.5799 99.6918C76.5799 99.6918 70.928 99.4958 68.752 105.004C68.752 105.004 71.152 106.624 74.3 105.004C77.448 103.384 76.5799 99.6918 76.5799 99.6918Z" fill="black"/>
<path id="Vector_46" d="M76.4205 102.344C76.4205 102.344 74.8205 95.3918 73.9765 95.3078C73.1325 95.2238 72.9685 97.4278 73.0365 98.6718L71.0365 94.3678C70.9731 94.234 70.8829 94.1147 70.7716 94.0171C70.6602 93.9196 70.5301 93.8458 70.3892 93.8005C70.2483 93.7551 70.0996 93.7391 69.9522 93.7535C69.8049 93.7678 69.662 93.8121 69.5325 93.8838C67.5325 94.9838 64.0245 98.3278 71.4205 106.596L76.4205 102.344Z" fill="#945959"/>
<path id="Vector_47" d="M96.9005 97.5358L95.7005 97.3798C94.4911 97.2194 93.2609 97.3839 92.1362 97.8563C91.0114 98.3287 90.0327 99.092 89.3005 100.068L82.1605 109.572L76.5605 99.6918C76.5605 99.6918 75.8885 106.412 68.7325 105.004L76.4165 117.936C76.9028 118.754 77.5796 119.444 78.3895 119.944C79.1993 120.445 80.1181 120.743 81.0678 120.813C82.0175 120.882 82.9699 120.721 83.8441 120.344C84.7182 119.966 85.4882 119.383 86.0885 118.644L92.6645 110.56L96.9005 97.5358Z" fill="#BA68C8"/>
<path id="Vector_48" d="M112.141 119.716C110.541 123.772 110.365 124.564 111.341 126.592C112.02 128.09 112.556 129.649 112.941 131.248C112.941 131.248 105.525 139.56 94.9685 136.448L90.2245 133.712C89.2379 133.143 88.3493 132.419 87.5925 131.568L89.0365 120.8C89.1092 120.233 89.0518 119.657 88.8685 119.116L87.3525 114.672C86.6127 112.501 86.5026 110.166 87.035 107.935C87.5673 105.705 88.7203 103.67 90.3605 102.068L95.4565 97.0878L108.841 98.7998L110.841 99.3718C112.15 99.7505 113.279 100.589 114.019 101.733C114.76 102.877 115.063 104.25 114.873 105.6C114.217 110.32 113.145 117.168 112.141 119.716Z" fill="#BA68C8"/>
<path id="Vector_49" opacity="0.5" d="M112.141 119.716C110.541 123.772 110.365 124.564 111.341 126.592C112.02 128.09 112.556 129.649 112.941 131.248C112.941 131.248 105.525 139.56 94.9685 136.448L90.2245 133.712C89.2379 133.143 88.3493 132.419 87.5925 131.568L89.0365 120.8C89.1092 120.233 89.0518 119.657 88.8685 119.116L87.3525 114.672C86.6127 112.501 86.5026 110.166 87.035 107.935C87.5673 105.705 88.7203 103.67 90.3605 102.068L95.4565 97.0878L108.841 98.7998L110.841 99.3718C112.15 99.7505 113.279 100.589 114.019 101.733C114.76 102.877 115.063 104.25 114.873 105.6C114.217 110.32 113.145 117.168 112.141 119.716Z" fill="black"/>
<path id="Vector_50" d="M104.069 107.6L101.389 105.316C101.105 105.073 100.763 104.908 100.396 104.838C100.029 104.768 99.6507 104.795 99.2973 104.916L96.0573 106.032L95.6213 104.216C95.5533 103.933 95.4287 103.667 95.2551 103.434C95.0815 103.201 94.8626 103.006 94.6114 102.859C94.3602 102.713 94.082 102.619 93.7936 102.584C93.5052 102.548 93.2125 102.571 92.9333 102.652L91.5293 103.052L93.9053 98.4996C94.6811 97.0171 95.8761 95.7956 97.3413 94.9876L98.2733 94.4756L105.973 94.8756C105.973 94.8756 108.841 96.0756 108.841 98.7756L104.069 107.576" fill="#BA68C8"/>
<path id="Vector_51" d="M106.005 98.288L98.2852 104.304V85.1479H106.005V98.288Z" fill="#945959"/>
<path id="Vector_52" d="M98.4045 96.7078L96.0565 106.048L105.973 98.2878L98.4045 96.7078Z" fill="#945959"/>
<path id="Vector_53" d="M98.2853 95.32C100.002 94.6825 101.571 93.7029 102.897 92.4404C104.224 91.1779 105.28 89.659 106.001 87.976V85.1479H98.2812L98.2853 95.32Z" fill="#703838"/>
<path id="Vector_54" d="M99.9482 70.9517C97.0202 70.9517 90.7962 72.5837 90.0762 80.2477C89.3562 87.9117 90.0522 93.8477 94.0042 94.4237C97.9562 94.9997 107.14 92.1317 108.372 82.2117C109.604 72.2917 102.8 70.9517 99.9482 70.9517Z" fill="#945959"/>
<path id="Vector_55" d="M95.3414 83.4917V88.0077L92.6934 87.1957L95.3414 83.4917Z" fill="#703838"/>
<path id="Vector_56" d="M98.2852 85.1916C98.7933 85.1916 99.2052 84.7797 99.2052 84.2716C99.2052 83.7635 98.7933 83.3516 98.2852 83.3516C97.7771 83.3516 97.3652 83.7635 97.3652 84.2716C97.3652 84.7797 97.7771 85.1916 98.2852 85.1916Z" fill="#263238"/>
<path id="Vector_57" d="M93.1485 83.6318C93.1477 83.8136 93.0931 83.9911 92.9915 84.1418C92.8899 84.2926 92.746 84.4099 92.5778 84.4789C92.4096 84.5479 92.2248 84.5656 92.0466 84.5296C91.8684 84.4937 91.7048 84.4057 91.5766 84.2769C91.4483 84.1481 91.3611 83.9842 91.3259 83.8058C91.2907 83.6275 91.3092 83.4427 91.3789 83.2748C91.4487 83.1069 91.5666 82.9635 91.7178 82.8626C91.869 82.7617 92.0467 82.7078 92.2285 82.7078C92.3497 82.7078 92.4696 82.7317 92.5815 82.7782C92.6934 82.8247 92.795 82.8928 92.8805 82.9787C92.9659 83.0645 93.0336 83.1664 93.0796 83.2785C93.1256 83.3906 93.149 83.5106 93.1485 83.6318Z" fill="#263238"/>
<path id="Vector_58" d="M91.1045 81.7118L92.9045 80.6438C92.9045 80.6438 92.2165 79.9278 91.5285 80.3558C90.8405 80.7838 91.1045 81.7118 91.1045 81.7118Z" fill="#263238"/>
<path id="Vector_59" d="M94.0957 89.8398C94.9723 89.9038 95.8448 89.6698 96.5717 89.1758C96.5717 89.1758 96.7437 90.4838 95.6477 90.7318C94.5517 90.9798 94.0957 89.8398 94.0957 89.8398Z" fill="#703838"/>
<path id="Vector_60" d="M92.5254 73.5595C92.5254 73.5595 93.6254 84.1395 108.013 84.4715C108.013 84.4715 112.361 73.9555 103.769 70.5395C95.1774 67.1235 92.5254 73.5595 92.5254 73.5595Z" fill="#263238"/>
<path id="Vector_61" d="M112.248 82.8877L110.48 81.8637C109.808 81.4637 108.88 81.5197 107.852 82.1117C105.812 83.2877 104.156 86.1557 104.156 88.5117C104.156 89.6917 104.556 90.5117 105.244 90.9117L106.98 91.9117L107.08 91.9677L107.14 92.0037C107.796 92.3237 108.672 92.2477 109.636 91.6917C111.676 90.4917 113.332 87.6477 113.332 85.2917C113.32 84.0997 112.908 83.2757 112.248 82.8877Z" fill="#BA68C8"/>
<path id="Vector_62" d="M112.235 88.9126C113.677 86.414 113.677 83.7134 112.235 82.8805C110.792 82.0477 108.453 83.398 107.011 85.8966C105.568 88.3952 105.568 91.0959 107.011 91.9287C108.453 92.7616 110.792 91.4112 112.235 88.9126Z" fill="#BA68C8"/>
<path id="Vector_63" opacity="0.5" d="M112.235 88.9126C113.677 86.414 113.677 83.7134 112.235 82.8805C110.792 82.0477 108.453 83.398 107.011 85.8966C105.568 88.3952 105.568 91.0959 107.011 91.9287C108.453 92.7616 110.792 91.4112 112.235 88.9126Z" fill="black"/>
<path id="Vector_64" d="M112.956 85.1077L111.756 84.4077C111.3 84.1357 110.664 84.1717 109.96 84.5757C109.224 85.0563 108.612 85.7032 108.173 86.4641C107.734 87.225 107.48 88.0785 107.432 88.9557C107.432 89.7557 107.716 90.3277 108.176 90.5917L109.376 91.2757C109.397 91.2913 109.42 91.3047 109.444 91.3157L109.484 91.3397C109.765 91.4464 110.068 91.4825 110.367 91.4449C110.665 91.4072 110.95 91.2969 111.196 91.1237C111.931 90.6435 112.542 89.9973 112.981 89.2371C113.42 88.477 113.675 87.6242 113.724 86.7477C113.692 85.9357 113.412 85.3717 112.956 85.1077Z" fill="#BA68C8"/>
<path id="Vector_65" d="M113.693 86.7398C113.644 87.6163 113.39 88.4691 112.951 89.2292C112.511 89.9893 111.9 90.6356 111.165 91.1158C109.765 91.9158 108.633 91.2678 108.633 89.6558C108.68 88.7785 108.934 87.9248 109.374 87.1644C109.814 86.4039 110.428 85.7582 111.165 85.2798C112.561 84.4718 113.693 85.1238 113.693 86.7398Z" fill="#BA68C8"/>
<path id="Vector_66" opacity="0.3" d="M113.693 86.7398C113.644 87.6163 113.39 88.4691 112.951 89.2292C112.511 89.9893 111.9 90.6356 111.165 91.1158C109.765 91.9158 108.633 91.2678 108.633 89.6558C108.68 88.7785 108.934 87.9248 109.374 87.1644C109.814 86.4039 110.428 85.7582 111.165 85.2798C112.561 84.4718 113.693 85.1238 113.693 86.7398Z" fill="black"/>
<path id="Vector_67" d="M106.757 68.8878C105.611 68.0021 104.206 67.5147 102.757 67.4998H102.401C100.934 67.484 99.4692 67.618 98.0293 67.8998C98.2933 67.8998 98.5573 67.8998 98.8293 67.8998H98.0293V68.6438H98.7733C101.337 68.731 103.767 69.8118 105.549 71.6578C107.331 73.5037 108.325 75.9702 108.321 78.5358V81.6838C108.321 81.8082 108.347 81.9313 108.398 82.045C108.448 82.1588 108.522 82.2606 108.615 82.3439C108.707 82.4273 108.816 82.4903 108.934 82.5289C109.052 82.5674 109.178 82.5807 109.301 82.5678H109.393L110.193 82.3198C110.14 82.3366 110.085 82.3473 110.029 82.3518C110.268 82.3194 110.486 82.2004 110.642 82.0175C110.799 81.8345 110.882 81.6004 110.877 81.3598V78.4398C110.869 73.1558 108.585 70.3158 106.757 68.8878Z" fill="#BA68C8"/>
<path id="Vector_68" d="M101.721 94.2037C101.392 94.2037 101.065 94.1328 100.765 93.9957L98.2654 92.8397C98.2263 92.8257 98.1905 92.8037 98.1604 92.7752C98.1302 92.7467 98.1062 92.7122 98.0901 92.674C98.0739 92.6357 98.0659 92.5945 98.0664 92.553C98.067 92.5115 98.0762 92.4705 98.0934 92.4327C98.1107 92.3949 98.1355 92.3611 98.1665 92.3335C98.1975 92.3058 98.2339 92.2849 98.2733 92.272C98.3128 92.2591 98.3545 92.2545 98.3959 92.2586C98.4372 92.2627 98.4772 92.2753 98.5134 92.2957L101.013 93.4517C101.332 93.5999 101.689 93.645 102.035 93.5804C102.381 93.5159 102.698 93.345 102.941 93.0917L105.341 90.6117C105.398 90.5555 105.474 90.5239 105.553 90.5239C105.633 90.5239 105.709 90.5555 105.765 90.6117C105.821 90.6684 105.852 90.7445 105.852 90.8237C105.852 90.9028 105.821 90.9789 105.765 91.0357L103.365 93.5157C103.152 93.735 102.896 93.909 102.614 94.0273C102.331 94.1455 102.028 94.2055 101.721 94.2037Z" fill="#BA68C8"/>
<path id="Vector_69" opacity="0.5" d="M101.721 94.2037C101.392 94.2037 101.065 94.1328 100.765 93.9957L98.2654 92.8397C98.2263 92.8257 98.1905 92.8037 98.1604 92.7752C98.1302 92.7467 98.1062 92.7122 98.0901 92.674C98.0739 92.6357 98.0659 92.5945 98.0664 92.553C98.067 92.5115 98.0762 92.4705 98.0934 92.4327C98.1107 92.3949 98.1355 92.3611 98.1665 92.3335C98.1975 92.3058 98.2339 92.2849 98.2733 92.272C98.3128 92.2591 98.3545 92.2545 98.3959 92.2586C98.4372 92.2627 98.4772 92.2753 98.5134 92.2957L101.013 93.4517C101.332 93.5999 101.689 93.645 102.035 93.5804C102.381 93.5159 102.698 93.345 102.941 93.0917L105.341 90.6117C105.398 90.5555 105.474 90.5239 105.553 90.5239C105.633 90.5239 105.709 90.5555 105.765 90.6117C105.821 90.6684 105.852 90.7445 105.852 90.8237C105.852 90.9028 105.821 90.9789 105.765 91.0357L103.365 93.5157C103.152 93.735 102.896 93.909 102.614 94.0273C102.331 94.1455 102.028 94.2055 101.721 94.2037Z" fill="black"/>
<path id="Vector_70" d="M98.92 92C98.92 92.231 98.8515 92.4569 98.7231 92.6489C98.5948 92.841 98.4124 92.9907 98.199 93.0791C97.9855 93.1675 97.7507 93.1907 97.5241 93.1456C97.2975 93.1005 97.0894 92.9893 96.9261 92.8259C96.7627 92.6626 96.6515 92.4545 96.6064 92.2279C96.5614 92.0013 96.5845 91.7665 96.6729 91.5531C96.7613 91.3396 96.911 91.1572 97.1031 91.0289C97.2952 90.9005 97.521 90.832 97.752 90.832C98.0618 90.832 98.3588 90.9551 98.5779 91.1741C98.7969 91.3932 98.92 91.6903 98.92 92Z" fill="#BA68C8"/>
<path id="Vector_71" opacity="0.5" d="M98.92 92C98.92 92.231 98.8515 92.4569 98.7231 92.6489C98.5948 92.841 98.4124 92.9907 98.199 93.0791C97.9855 93.1675 97.7507 93.1907 97.5241 93.1456C97.2975 93.1005 97.0894 92.9893 96.9261 92.8259C96.7627 92.6626 96.6515 92.4545 96.6064 92.2279C96.5614 92.0013 96.5845 91.7665 96.6729 91.5531C96.7613 91.3396 96.911 91.1572 97.1031 91.0289C97.2952 90.9005 97.521 90.832 97.752 90.832C98.0618 90.832 98.3588 90.9551 98.5779 91.1741C98.7969 91.3932 98.92 91.6903 98.92 92Z" fill="black"/>
<path id="Vector_72" d="M110.869 78.4399V81.3599C110.874 81.6005 110.791 81.8346 110.634 82.0176C110.478 82.2005 110.26 82.3195 110.021 82.3519C109.889 82.3659 109.756 82.3521 109.63 82.3112C109.504 82.2704 109.388 82.2034 109.29 82.1148C109.191 82.0261 109.112 81.9177 109.059 81.7966C109.005 81.6755 108.977 81.5444 108.977 81.4119V78.4399C108.979 77.0215 108.695 75.6173 108.14 74.3117C107.586 73.0062 106.773 71.8264 105.75 70.8432C104.728 69.8601 103.517 69.0939 102.191 68.5908C100.865 68.0877 99.4504 67.8582 98.0332 67.9159C99.4731 67.6341 100.938 67.5001 102.405 67.5159H102.753C104.202 67.5309 105.606 68.0182 106.753 68.9039C108.585 70.3159 110.869 73.1559 110.869 78.4399Z" fill="#BA68C8"/>
<path id="Vector_73" opacity="0.5" d="M110.869 78.4399V81.3599C110.874 81.6005 110.791 81.8346 110.634 82.0176C110.478 82.2005 110.26 82.3195 110.021 82.3519C109.889 82.3659 109.756 82.3521 109.63 82.3112C109.504 82.2704 109.388 82.2034 109.29 82.1148C109.191 82.0261 109.112 81.9177 109.059 81.7966C109.005 81.6755 108.977 81.5444 108.977 81.4119V78.4399C108.979 77.0215 108.695 75.6173 108.14 74.3117C107.586 73.0062 106.773 71.8264 105.75 70.8432C104.728 69.8601 103.517 69.0939 102.191 68.5908C100.865 68.0877 99.4504 67.8582 98.0332 67.9159C99.4731 67.6341 100.938 67.5001 102.405 67.5159H102.753C104.202 67.5309 105.606 68.0182 106.753 68.9039C108.585 70.3159 110.869 73.1559 110.869 78.4399Z" fill="black"/>
<path id="Vector_74" d="M106.372 133.468C106.372 133.468 104.436 138.8 111.356 141.2C111.356 141.2 113.616 137.88 111.356 135.164C109.096 132.448 106.372 133.468 106.372 133.468Z" fill="#BA68C8"/>
<path id="Vector_75" opacity="0.7" d="M106.372 133.468C106.372 133.468 104.436 138.8 111.356 141.2C111.356 141.2 113.616 137.88 111.356 135.164C109.096 132.448 106.372 133.468 106.372 133.468Z" fill="black"/>
<path id="Vector_76" d="M108.8 133.712C108.8 133.712 102.04 136.188 102.076 137.148C102.112 138.108 104.948 137.452 104.948 137.452L103.912 138.132C102.821 138.844 101.976 139.875 101.492 141.084C101.387 141.351 101.383 141.647 101.482 141.916C101.581 142.185 101.775 142.409 102.028 142.544L104.596 143.904C104.741 143.981 104.9 144.028 105.064 144.042C105.227 144.057 105.392 144.038 105.548 143.988C105.704 143.938 105.849 143.856 105.973 143.749C106.098 143.642 106.199 143.511 106.272 143.364C106.415 143.081 106.613 142.829 106.854 142.623C107.095 142.417 107.374 142.261 107.676 142.164C109.072 141.7 111.676 140.364 112.72 136.708L108.8 133.712Z" fill="#945959"/>
<path id="Vector_77" d="M110.829 99.3638C110.829 99.3638 107.229 101.364 109.141 107.436C111.053 113.508 114.641 122.928 114.641 122.928L106.373 133.468C107.256 133.574 108.107 133.866 108.87 134.324C109.633 134.781 110.291 135.395 110.801 136.124C111.289 136.865 111.595 137.712 111.691 138.595C111.788 139.477 111.673 140.37 111.357 141.2L121.621 128C122.57 126.78 123.2 125.343 123.455 123.818C123.709 122.294 123.579 120.73 123.077 119.268L118.677 106.42C118.139 104.85 117.245 103.427 116.066 102.26C114.886 101.094 113.452 100.216 111.877 99.6958L110.829 99.3638Z" fill="#BA68C8"/>
</g>
<g id="freepik--Icons--inject-79">
<path id="Vector_78" d="M50.0593 63.4958L34.1513 54.2958C33.9683 54.1689 33.7565 54.0897 33.5351 54.0652C33.3137 54.0408 33.0897 54.0719 32.8833 54.1558C32.8398 54.1759 32.7983 54.2 32.7593 54.2278L29.2993 56.2558H29.3233C28.8873 56.5038 28.6113 57.0798 28.6113 57.9038V75.5998C28.6113 77.0958 29.5193 78.8358 30.6433 79.4838L46.5513 88.6838C46.7532 88.8298 46.9934 88.9133 47.2423 88.924C47.4912 88.9346 47.7377 88.872 47.9513 88.7438C47.9405 88.7481 47.9309 88.755 47.9233 88.7638L51.3593 86.7638C51.8073 86.5238 52.0913 85.9398 52.0913 85.1038V67.3798C52.0913 65.8838 51.1993 64.1438 50.0593 63.4958Z" fill="#BA68C8"/>
<path id="Vector_79" d="M51.5228 65.1718C51.201 64.4873 50.6938 63.9067 50.0588 63.4958L34.1508 54.2958C33.9678 54.1689 33.756 54.0897 33.5346 54.0652C33.3132 54.0408 33.0892 54.0719 32.8828 54.1558C32.8393 54.1759 32.7978 54.2 32.7588 54.2278L29.2988 56.2558C29.5105 56.1476 29.7478 56.0997 29.9848 56.1174C30.2219 56.135 30.4495 56.2175 30.6428 56.3558L46.5508 65.5558C47.2074 65.9851 47.7278 66.5929 48.0508 67.3078L51.5228 65.1718Z" fill="#BA68C8"/>
<path id="Vector_80" d="M48.5838 87.1279C48.5838 87.9279 48.3278 88.4839 47.9238 88.7279L51.3598 86.7279C51.8078 86.4879 52.0918 85.9039 52.0918 85.0679V67.3799C52.0749 66.61 51.8805 65.8544 51.5238 65.1719L48.0518 67.3079C48.3852 67.9703 48.5669 68.6985 48.5838 69.4399V87.1279Z" fill="#BA68C8"/>
<path id="Vector_81" opacity="0.3" d="M51.5228 65.1718C51.201 64.4873 50.6938 63.9067 50.0588 63.4958L34.1508 54.2958C33.9678 54.1689 33.756 54.0897 33.5346 54.0652C33.3132 54.0408 33.0892 54.0719 32.8828 54.1558C32.8393 54.1759 32.7978 54.2 32.7588 54.2278L29.2988 56.2558C29.5105 56.1476 29.7478 56.0997 29.9848 56.1174C30.2219 56.135 30.4495 56.2175 30.6428 56.3558L46.5508 65.5558C47.2074 65.9851 47.7278 66.5929 48.0508 67.3078L51.5228 65.1718Z" fill="black"/>
<path id="Vector_82" opacity="0.6" d="M48.5838 87.1279C48.5838 87.9279 48.3278 88.4839 47.9238 88.7279L51.3598 86.7279C51.8078 86.4879 52.0918 85.9039 52.0918 85.0679V67.3799C52.0749 66.61 51.8805 65.8544 51.5238 65.1719L48.0518 67.3079C48.3852 67.9703 48.5669 68.6985 48.5838 69.4399V87.1279Z" fill="black"/>
<path id="Vector_83" d="M43.9184 74.5077C43.9184 76.7997 43.0104 77.5797 41.6504 76.7917C41.2752 76.5781 40.9471 76.2908 40.6859 75.9471C40.4247 75.6034 40.2357 75.2103 40.1304 74.7917C39.7304 75.2837 39.1104 75.3157 38.2384 74.8117C36.8064 73.9837 35.6784 72.0117 35.6784 70.0957C35.6784 68.1797 36.7944 67.5197 38.2384 68.3517C38.9711 68.7835 39.563 69.4185 39.9424 70.1797V69.4237L41.4504 70.2957V74.4397C41.4279 74.6578 41.4656 74.8778 41.5594 75.076C41.6532 75.2741 41.7995 75.4428 41.9824 75.5637C42.4904 75.8597 42.8024 75.3597 42.8024 73.8757C42.8024 71.2797 41.1384 68.5277 38.6784 67.1077C36.2184 65.6877 34.5584 66.6757 34.5584 69.3477C34.5906 70.7655 34.9813 72.1521 35.694 73.3782C36.4067 74.6043 37.4183 75.63 38.6344 76.3597C39.2947 76.7664 40.0445 77.0054 40.8184 77.0557L41.1744 78.4357C40.2733 78.363 39.4025 78.0764 38.6344 77.5997C35.4344 75.7477 33.3184 72.0197 33.3184 68.6437C33.3184 65.2677 35.4544 64.0437 38.6784 65.9077C41.7944 67.7037 43.9184 71.2997 43.9184 74.5077ZM39.9664 72.5837C39.9741 72.0765 39.8504 71.5759 39.6071 71.1307C39.3639 70.6856 39.0094 70.3111 38.5784 70.0437C37.7784 69.5757 37.2064 69.9037 37.2064 70.9917C37.1961 71.4997 37.3169 72.0018 37.5573 72.4496C37.7976 72.8973 38.1493 73.2755 38.5784 73.5477C39.3784 73.9997 39.9664 73.7077 39.9664 72.5837Z" fill="#BA68C8"/>
<g id="Group" opacity="0.9">
<path id="Vector_84" d="M43.9184 74.5077C43.9184 76.7997 43.0104 77.5797 41.6504 76.7917C41.2752 76.5781 40.9471 76.2908 40.6859 75.9471C40.4247 75.6034 40.2357 75.2103 40.1304 74.7917C39.7304 75.2837 39.1104 75.3157 38.2384 74.8117C36.8064 73.9837 35.6784 72.0117 35.6784 70.0957C35.6784 68.1797 36.7944 67.5197 38.2384 68.3517C38.9711 68.7835 39.563 69.4185 39.9424 70.1797V69.4237L41.4504 70.2957V74.4397C41.4279 74.6578 41.4656 74.8778 41.5594 75.076C41.6532 75.2741 41.7995 75.4428 41.9824 75.5637C42.4904 75.8597 42.8024 75.3597 42.8024 73.8757C42.8024 71.2797 41.1384 68.5277 38.6784 67.1077C36.2184 65.6877 34.5584 66.6757 34.5584 69.3477C34.5906 70.7655 34.9813 72.1521 35.694 73.3782C36.4067 74.6043 37.4183 75.63 38.6344 76.3597C39.2947 76.7664 40.0445 77.0054 40.8184 77.0557L41.1744 78.4357C40.2733 78.363 39.4025 78.0764 38.6344 77.5997C35.4344 75.7477 33.3184 72.0197 33.3184 68.6437C33.3184 65.2677 35.4544 64.0437 38.6784 65.9077C41.7944 67.7037 43.9184 71.2997 43.9184 74.5077ZM39.9664 72.5837C39.9741 72.0765 39.8504 71.5759 39.6071 71.1307C39.3639 70.6856 39.0094 70.3111 38.5784 70.0437C37.7784 69.5757 37.2064 69.9037 37.2064 70.9917C37.1961 71.4997 37.3169 72.0018 37.5573 72.4496C37.7976 72.8973 38.1493 73.2755 38.5784 73.5477C39.3784 73.9997 39.9664 73.7077 39.9664 72.5837Z" fill="white"/>
</g>
<path id="Vector_85" d="M50.0593 95.0078L34.1513 85.8078C33.9685 85.6802 33.7564 85.6008 33.5348 85.5771C33.3131 85.5533 33.089 85.5859 32.8833 85.6718C32.8398 85.6919 32.7983 85.716 32.7593 85.7438L29.2993 87.7718H29.3233C28.8873 88.0198 28.6113 88.5958 28.6113 89.4158V107.104C28.6113 108.604 29.5193 110.34 30.6433 110.988L46.5513 120.188C46.7528 120.335 46.9931 120.419 47.2423 120.43C47.4914 120.44 47.7381 120.377 47.9513 120.248L47.9233 120.272L51.3593 118.252C51.8073 118.016 52.0913 117.452 52.0913 116.592V98.8878C52.0913 97.3918 51.1993 95.6558 50.0593 95.0078Z" fill="#BA68C8"/>
<path id="Vector_86" d="M51.5228 96.6836C51.2021 95.9984 50.6947 95.4176 50.0588 95.0076L34.1508 85.8076C33.968 85.68 33.7559 85.6007 33.5343 85.5769C33.3126 85.5531 33.0885 85.5857 32.8828 85.6716C32.8393 85.6917 32.7978 85.7158 32.7588 85.7436L29.2988 87.7716C29.51 87.6624 29.7472 87.6136 29.9843 87.6305C30.2215 87.6475 30.4493 87.7295 30.6428 87.8676L46.5508 97.0676C47.2085 97.4975 47.729 98.1069 48.0508 98.8236L51.5228 96.6836Z" fill="#BA68C8"/>
<path id="Vector_87" d="M48.5838 118.636C48.5838 119.436 48.3278 119.992 47.9238 120.256L51.3598 118.236C51.8078 118 52.0918 117.436 52.0918 116.576V98.8876C52.0749 98.119 51.8805 97.3647 51.5238 96.6836L48.0518 98.8196C48.3851 99.4806 48.5669 100.208 48.5838 100.948V118.636Z" fill="#BA68C8"/>
<path id="Vector_88" opacity="0.3" d="M51.5228 96.6836C51.2021 95.9984 50.6947 95.4176 50.0588 95.0076L34.1508 85.8076C33.968 85.68 33.7559 85.6007 33.5343 85.5769C33.3126 85.5531 33.0885 85.5857 32.8828 85.6716C32.8393 85.6917 32.7978 85.7158 32.7588 85.7436L29.2988 87.7716C29.51 87.6624 29.7472 87.6136 29.9843 87.6305C30.2215 87.6475 30.4493 87.7295 30.6428 87.8676L46.5508 97.0676C47.2085 97.4975 47.729 98.1069 48.0508 98.8236L51.5228 96.6836Z" fill="black"/>
<path id="Vector_89" opacity="0.6" d="M48.5838 118.636C48.5838 119.436 48.3278 119.992 47.9238 120.256L51.3598 118.236C51.8078 118 52.0918 117.436 52.0918 116.576V98.8876C52.0749 98.119 51.8805 97.3647 51.5238 96.6836L48.0518 98.8196C48.3851 99.4806 48.5669 100.208 48.5838 100.948V118.636Z" fill="black"/>
<path id="Vector_90" d="M36.8184 102.916L32.9824 96.6836V105.128L36.8184 102.916Z" fill="#BA68C8"/>
<path id="Vector_91" d="M40.3828 104.712L44.2108 111.34V102.908L40.3828 104.712Z" fill="#BA68C8"/>
<path id="Vector_92" d="M33.5625 96.3999L37.5025 102.8C37.5192 102.814 37.534 102.83 37.5465 102.848C37.55 102.864 37.55 102.88 37.5465 102.896L38.7185 104.8L39.7105 104.332C39.7259 104.315 39.7434 104.3 39.7625 104.288C39.8016 104.265 39.8454 104.251 39.8905 104.248L43.8905 102.372L33.5625 96.3999Z" fill="#BA68C8"/>
<path id="Vector_93" d="M39.8027 104.984L38.7307 105.488C38.6894 105.507 38.6443 105.517 38.5987 105.516C38.5435 105.517 38.4891 105.503 38.4407 105.476C38.3924 105.45 38.3517 105.411 38.3227 105.364L37.1507 103.46L33.3027 105.684L43.6587 111.66L39.8027 104.984Z" fill="#BA68C8"/>
<g id="Group_2" opacity="0.9">
<path id="Vector_94" d="M36.8184 102.916L32.9824 96.6839V105.128L36.8184 102.916Z" fill="white"/>
<path id="Vector_95" d="M40.3828 104.712L44.2108 111.34V102.908L40.3828 104.712Z" fill="white"/>
<path id="Vector_96" d="M33.5624 96.3999L37.5024 102.8C37.5191 102.814 37.5339 102.83 37.5464 102.848C37.5499 102.864 37.5499 102.88 37.5464 102.896L38.7184 104.8L39.7104 104.332C39.7259 104.315 39.7433 104.3 39.7624 104.288C39.8015 104.265 39.8453 104.251 39.8904 104.248L43.8904 102.372L33.5624 96.3999Z" fill="white"/>
<path id="Vector_97" d="M39.8027 104.984L38.7307 105.488C38.6894 105.507 38.6443 105.517 38.5987 105.516C38.5435 105.517 38.4891 105.503 38.4407 105.476C38.3924 105.45 38.3517 105.411 38.3227 105.364L37.1507 103.46L33.3027 105.684L43.6587 111.66L39.8027 104.984Z" fill="white"/>
</g>
<path id="Vector_98" d="M50.0593 31.9998L34.1513 22.7998C33.9685 22.6722 33.7564 22.5928 33.5348 22.5691C33.3131 22.5453 33.089 22.5779 32.8833 22.6638C32.8398 22.6839 32.7983 22.708 32.7593 22.7358L29.2993 24.7638H29.3233C28.8873 25.0078 28.6113 25.5878 28.6113 26.4078V44.0958C28.6113 45.5918 29.5193 47.3318 30.6433 47.9798L46.5513 57.1798C46.7528 57.3268 46.9931 57.4109 47.2423 57.4216C47.4914 57.4322 47.7381 57.369 47.9513 57.2398L47.9233 57.2598L51.3593 55.2598C51.8073 55.0238 52.0913 54.4598 52.0913 53.5998V35.8678C52.0913 34.3718 51.1993 32.6318 50.0593 31.9998Z" fill="#BA68C8"/>
<path id="Vector_99" d="M51.5228 33.6638C51.2022 32.9775 50.6948 32.3953 50.0588 31.9838L34.1508 22.7998C33.968 22.6722 33.7559 22.5928 33.5343 22.5691C33.3126 22.5453 33.0885 22.5779 32.8828 22.6638C32.8393 22.6839 32.7978 22.708 32.7588 22.7358L29.2988 24.7638C29.51 24.6546 29.7472 24.6058 29.9843 24.6227C30.2215 24.6397 30.4493 24.7217 30.6428 24.8598L46.5508 34.0598C47.2085 34.4897 47.729 35.0991 48.0508 35.8158L51.5228 33.6638Z" fill="#BA68C8"/>
<path id="Vector_100" d="M48.5838 55.5996C48.5838 56.3996 48.3278 56.9556 47.9238 57.1996L51.3598 55.1996C51.8078 54.9636 52.0918 54.3996 52.0918 53.5396V35.8676C52.0749 35.0989 51.8805 34.3447 51.5238 33.6636L48.0518 35.7996C48.3851 36.4606 48.5669 37.1875 48.5838 37.9276V55.5996Z" fill="#BA68C8"/>
<path id="Vector_101" opacity="0.3" d="M51.5228 33.6638C51.2022 32.9775 50.6948 32.3953 50.0588 31.9838L34.1508 22.7998C33.968 22.6722 33.7559 22.5928 33.5343 22.5691C33.3126 22.5453 33.0885 22.5779 32.8828 22.6638C32.8393 22.6839 32.7978 22.708 32.7588 22.7358L29.2988 24.7638C29.51 24.6546 29.7472 24.6058 29.9843 24.6227C30.2215 24.6397 30.4493 24.7217 30.6428 24.8598L46.5508 34.0598C47.2085 34.4897 47.729 35.0991 48.0508 35.8158L51.5228 33.6638Z" fill="black"/>
<path id="Vector_102" opacity="0.6" d="M48.5838 55.5996C48.5838 56.3996 48.3278 56.9556 47.9238 57.1996L51.3598 55.1996C51.8078 54.9636 52.0918 54.3996 52.0918 53.5396V35.8676C52.0749 35.0989 51.8805 34.3447 51.5238 33.6636L48.0518 35.7996C48.3851 36.4606 48.5669 37.1875 48.5838 37.9276V55.5996Z" fill="black"/>
<path id="Vector_103" d="M43.3788 47.9999C42.7668 46.9919 42.1508 45.9999 41.5388 44.9839C41.4417 44.7915 41.306 44.6211 41.1402 44.4835C40.9743 44.3458 40.7818 44.2439 40.5748 44.1839C40.2788 44.1239 39.9828 44.0559 39.6788 43.9679C39.5705 43.9228 39.4795 43.8443 39.4188 43.7439C38.4174 42.03 37.6212 40.2041 37.0468 38.3039C37.0346 38.2633 37.0311 38.2206 37.0366 38.1785C37.0421 38.1364 37.0565 38.096 37.0788 38.0599C37.2668 37.8719 37.4788 37.6999 37.6708 37.5319C37.8628 37.3639 37.9628 36.9759 37.8228 36.4719C37.5268 35.4039 37.2428 34.3359 36.9468 33.2719C36.8895 32.9696 36.7536 32.6877 36.5528 32.4546C36.352 32.2215 36.0933 32.0453 35.8028 31.9439C35.1577 31.7646 34.473 31.7898 33.8428 32.0159C33.5988 32.1079 33.4708 32.3279 33.4668 32.7079C33.5708 33.4399 33.6388 34.1639 33.7788 34.9079C34.7655 40.2733 37.1388 45.2066 40.8988 49.7079C40.997 49.8572 41.1288 49.9813 41.2838 50.0702C41.4387 50.1592 41.6124 50.2105 41.7908 50.2199C42.4133 50.2051 43.0113 49.9747 43.4828 49.5679C43.8388 49.2479 43.8028 48.6799 43.3788 47.9999Z" fill="#BA68C8"/>
<path id="Vector_104" d="M43.3313 42.5478C43.2476 41.3973 42.9305 40.2758 42.3993 39.2518C42.0027 38.4519 41.498 37.7102 40.8993 37.0478C40.7433 36.8718 40.6113 36.8158 40.5313 36.9478C40.4513 37.0798 40.5313 37.2678 40.6833 37.4398L40.8393 37.6198C41.9449 38.896 42.6417 40.4749 42.8393 42.1518C42.8374 42.2741 42.8495 42.3962 42.8753 42.5158C42.9256 42.6534 43.0062 42.7778 43.1113 42.8798C43.1953 42.9398 43.2913 42.8798 43.3593 42.8798C43.3353 42.7158 43.3393 42.6318 43.3313 42.5478Z" fill="#BA68C8"/>
<path id="Vector_105" d="M39.708 39.264C40.2103 39.8165 40.5156 40.5197 40.576 41.264C40.6024 41.3771 40.6441 41.4861 40.7 41.588C40.944 41.788 41.064 41.72 41.064 41.468C40.9785 40.5137 40.5838 39.6135 39.94 38.904C39.788 38.748 39.664 38.7 39.592 38.832C39.5661 38.9074 39.5633 38.9887 39.584 39.0657C39.6047 39.1427 39.6479 39.2117 39.708 39.264Z" fill="#BA68C8"/>
<g id="Group_3" opacity="0.9">
<path id="Vector_106" d="M43.3788 47.9999C42.7668 46.9919 42.1508 45.9999 41.5388 44.9839C41.4417 44.7915 41.306 44.6211 41.1402 44.4835C40.9743 44.3458 40.7818 44.2439 40.5748 44.1839C40.2788 44.1239 39.9828 44.0559 39.6788 43.9679C39.5705 43.9228 39.4795 43.8443 39.4188 43.7439C38.4174 42.03 37.6212 40.2041 37.0468 38.3039C37.0346 38.2633 37.0311 38.2206 37.0366 38.1785C37.0421 38.1364 37.0565 38.096 37.0788 38.0599C37.2668 37.8719 37.4788 37.6999 37.6708 37.5319C37.8628 37.3639 37.9628 36.9759 37.8228 36.4719C37.5268 35.4039 37.2428 34.3359 36.9468 33.2719C36.8895 32.9696 36.7536 32.6877 36.5528 32.4546C36.352 32.2215 36.0933 32.0453 35.8028 31.9439C35.1577 31.7646 34.473 31.7898 33.8428 32.0159C33.5988 32.1079 33.4708 32.3279 33.4668 32.7079C33.5708 33.4399 33.6388 34.1639 33.7788 34.9079C34.7655 40.2733 37.1388 45.2066 40.8988 49.7079C40.997 49.8572 41.1288 49.9813 41.2838 50.0702C41.4387 50.1592 41.6124 50.2105 41.7908 50.2199C42.4133 50.2051 43.0113 49.9747 43.4828 49.5679C43.8388 49.2479 43.8028 48.6799 43.3788 47.9999Z" fill="white"/>
<path id="Vector_107" d="M43.3315 42.5478C43.2479 41.3972 42.9307 40.2758 42.3995 39.2518C42.0029 38.4518 41.4982 37.7102 40.8995 37.0478C40.7435 36.8718 40.6115 36.8158 40.5315 36.9478C40.4515 37.0798 40.5315 37.2678 40.6835 37.4398L40.8395 37.6198C41.9451 38.896 42.6419 40.4749 42.8395 42.1518C42.8376 42.2741 42.8497 42.3962 42.8755 42.5158C42.9258 42.6533 43.0065 42.7778 43.1115 42.8798C43.1955 42.9398 43.2915 42.8798 43.3595 42.8798C43.3355 42.7158 43.3395 42.6318 43.3315 42.5478Z" fill="white"/>
<path id="Vector_108" d="M39.7061 39.264C40.2084 39.8165 40.5136 40.5197 40.5741 41.264C40.6004 41.3771 40.6421 41.4861 40.6981 41.588C40.9421 41.788 41.0621 41.72 41.0621 41.468C40.9765 40.5137 40.5819 39.6135 39.9381 38.904C39.7861 38.748 39.6621 38.7 39.5901 38.832C39.5642 38.9074 39.5614 38.9887 39.582 39.0657C39.6027 39.1427 39.6459 39.2117 39.7061 39.264Z" fill="white"/>
</g>
</g>
<g id="freepik--Clouds--inject-79">
<path id="Vector_109" d="M131.679 21.3919L135.427 23.5239V22.1959C135.427 22.1039 135.427 22.0079 135.427 21.9159C135.427 21.8239 135.427 21.7359 135.427 21.6479V21.5999C135.563 19.8439 136.895 19.1679 138.519 20.1079C139.255 20.5601 139.885 21.1643 140.367 21.8799C140.731 19.4799 142.679 18.6319 145.035 19.9879C147.651 21.4999 149.771 25.1879 149.771 28.1959V31.0359C149.768 31.2631 149.824 31.4873 149.934 31.6859C150.044 31.8846 150.205 32.0508 150.399 32.1679L152.607 33.4599C153.084 33.7424 153.479 34.1438 153.754 34.6248C154.029 35.1058 154.174 35.6499 154.175 36.2039C154.175 36.4337 154.115 36.6595 154 36.8585C153.885 37.0576 153.72 37.2228 153.521 37.3375C153.321 37.4523 153.096 37.5126 152.866 37.5123C152.636 37.512 152.41 37.4512 152.211 37.3359L131.735 25.4999C131.192 25.1844 130.741 24.7323 130.427 24.1885C130.112 23.6447 129.946 23.0281 129.943 22.3999C129.943 22.1966 129.996 21.9968 130.098 21.8205C130.199 21.6443 130.345 21.4977 130.521 21.3956C130.697 21.2935 130.896 21.2395 131.1 21.2388C131.303 21.2381 131.503 21.2909 131.679 21.3919Z" fill="#E6E6E6"/>
<path id="Vector_110" d="M160.252 20.8357L162.976 22.3997V21.4237C162.976 21.3557 162.976 21.2877 162.976 21.2197C162.976 21.1517 162.976 21.0877 162.976 21.0237V20.9997C163.076 19.7237 164.044 19.2317 165.224 19.9157C165.759 20.2431 166.217 20.6809 166.568 21.1997C166.836 19.4637 168.252 18.8357 169.964 19.8237C171.868 20.9237 173.408 23.5957 173.408 25.7917V27.8597C173.41 28.0218 173.453 28.1808 173.534 28.321C173.616 28.4612 173.732 28.5779 173.872 28.6597L175.472 29.5997C175.82 29.8044 176.109 30.0968 176.309 30.4477C176.509 30.7986 176.613 31.1958 176.612 31.5997C176.612 31.7651 176.569 31.9276 176.486 32.0712C176.404 32.2148 176.286 32.3344 176.143 32.4184C176.001 32.5024 175.839 32.5478 175.674 32.5501C175.508 32.5524 175.345 32.5116 175.2 32.4317L160.292 23.8237C159.897 23.5952 159.569 23.2668 159.341 22.8716C159.113 22.4763 158.993 22.0281 158.992 21.5717C158.992 21.424 159.03 21.2788 159.104 21.1506C159.177 21.0224 159.283 20.9158 159.41 20.8413C159.538 20.7668 159.683 20.727 159.831 20.7261C159.978 20.7251 160.124 20.7629 160.252 20.8357Z" fill="#E6E6E6"/>
</g>
</g>
</svg>
