<svg width="200" height="200" viewBox="0 0 200 200" fill="none" xmlns="http://www.w3.org/2000/svg">
<g id="Select-amico">
<g id="freepik--Floor--inject-148">
<path id="freepik--floor--inject-148" d="M41.8967 176.8C74.1247 193.788 126.377 193.788 158.605 176.8C190.833 159.812 190.837 132.276 158.605 115.292C126.373 98.3082 74.1247 98.3042 41.8927 115.292C9.6607 132.28 9.6647 159.804 41.8967 176.8Z" fill="#F5F5F5"/>
</g>
<g id="freepik--Shadow--inject-148">
<path id="freepik--shadow--inject-148" d="M28.0751 155.54L29.5711 156.4C29.8396 156.536 30.1362 156.607 30.4371 156.607C30.738 156.607 31.0347 156.536 31.3031 156.4L100.431 116.492C100.536 116.457 100.628 116.391 100.692 116.301C100.757 116.212 100.792 116.104 100.792 115.994C100.792 115.883 100.757 115.776 100.692 115.686C100.628 115.597 100.536 115.53 100.431 115.496L98.9471 114.648C98.6787 114.512 98.382 114.441 98.0811 114.441C97.7802 114.441 97.4836 114.512 97.2151 114.648L28.0751 154.54C27.9707 154.575 27.8799 154.643 27.8156 154.732C27.7514 154.822 27.7168 154.929 27.7168 155.04C27.7168 155.15 27.7514 155.258 27.8156 155.347C27.8799 155.437 27.9707 155.504 28.0751 155.54Z" fill="#E0E0E0"/>
<path id="freepik--shadow--inject-148_2" d="M127.871 169.916C139.522 169.916 148.967 164.738 148.967 158.352C148.967 151.965 139.522 146.788 127.871 146.788C116.22 146.788 106.775 151.965 106.775 158.352C106.775 164.738 116.22 169.916 127.871 169.916Z" fill="#E0E0E0"/>
<path id="freepik--shadow--inject-148_3" d="M152.243 138.448C161.232 138.448 168.519 134.452 168.519 129.524C168.519 124.595 161.232 120.6 152.243 120.6C143.254 120.6 135.967 124.595 135.967 129.524C135.967 134.452 143.254 138.448 152.243 138.448Z" fill="#E0E0E0"/>
</g>
<g id="freepik--Plants--inject-148">
<g id="freepik--plants--inject-148">
<path id="Vector" d="M160.203 120.556C160.179 118.512 161.607 114.264 163.695 111.584C165.783 108.904 169.091 106.924 171.471 107.708C173.687 108.436 173.471 111.332 170.827 113.28C168.183 115.228 164.183 117.68 163.043 121.016L160.623 125.112L160.203 120.556Z" fill="#BA68C8"/>
<path id="Vector_2" opacity="0.1" d="M160.203 120.556C160.179 118.512 161.607 114.264 163.695 111.584C165.783 108.904 169.091 106.924 171.471 107.708C173.687 108.436 173.471 111.332 170.827 113.28C168.183 115.228 164.183 117.68 163.043 121.016L160.623 125.112L160.203 120.556Z" fill="black"/>
<path id="Vector_3" d="M160.088 123.356C160.12 123.352 160.151 123.338 160.174 123.316C160.198 123.293 160.214 123.264 160.22 123.232C161.504 116.24 167.08 110.504 170.44 109.212C170.478 109.198 170.508 109.169 170.525 109.132C170.541 109.095 170.542 109.054 170.528 109.016C170.521 108.998 170.51 108.981 170.497 108.967C170.483 108.953 170.467 108.942 170.449 108.934C170.432 108.926 170.412 108.922 170.393 108.922C170.373 108.921 170.354 108.925 170.336 108.932C166.908 110.248 161.228 116.08 159.936 123.18C159.933 123.199 159.933 123.219 159.937 123.238C159.941 123.257 159.949 123.275 159.96 123.291C159.971 123.307 159.986 123.321 160.002 123.331C160.018 123.341 160.037 123.349 160.056 123.352L160.088 123.356Z" fill="white"/>
<path id="Vector_4" d="M161.199 127.808C161.515 126.656 162.895 124.744 165.143 123.148C167.635 121.388 170.803 120.552 171.519 119.196C172.379 117.564 170.995 116.052 168.419 116.396C165.843 116.74 161.355 120.32 160.691 125.624L161.199 127.808Z" fill="#BA68C8"/>
<path id="Vector_5" d="M160.668 126.608C160.697 126.605 160.724 126.594 160.746 126.577C160.769 126.559 160.786 126.535 160.796 126.508C162.86 120.508 167.396 118.356 169.504 118.056C169.543 118.05 169.578 118.029 169.602 117.998C169.626 117.967 169.637 117.927 169.632 117.888C169.63 117.868 169.623 117.85 169.613 117.833C169.604 117.816 169.59 117.801 169.575 117.789C169.559 117.777 169.541 117.768 169.522 117.763C169.503 117.758 169.483 117.757 169.464 117.76C167.132 118.092 162.624 120.284 160.512 126.412C160.506 126.43 160.503 126.45 160.504 126.469C160.505 126.489 160.511 126.508 160.519 126.525C160.528 126.543 160.54 126.558 160.554 126.571C160.569 126.584 160.586 126.594 160.604 126.6C160.624 126.608 160.646 126.611 160.668 126.608Z" fill="white"/>
</g>
</g>
<g id="freepik--Tabs--inject-148">
<g id="freepik--Tab--inject-148">
<path id="Vector_6" d="M29.94 154.532L29.636 154.356C29.3803 154.189 29.1674 153.965 29.0146 153.701C28.8617 153.437 28.7731 153.141 28.756 152.836V50.332C28.7734 50.0269 28.8621 49.7301 29.0149 49.4655C29.1678 49.2008 29.3805 48.9756 29.636 48.808L95.684 10.68C95.9568 10.5419 96.2583 10.4699 96.564 10.4699C96.8698 10.4699 97.1712 10.5419 97.444 10.68L97.744 10.856C98.0004 11.0227 98.2138 11.2476 98.3668 11.5125C98.5197 11.7773 98.6078 12.0746 98.624 12.38V114.88C98.6078 115.185 98.5197 115.483 98.3668 115.748C98.2138 116.012 98.0004 116.237 97.744 116.404L31.7 154.532C31.4272 154.67 31.1258 154.742 30.82 154.742C30.5143 154.742 30.2128 154.67 29.94 154.532Z" fill="#BA68C8"/>
<path id="Vector_7" opacity="0.4" d="M98.616 12.24C98.556 11.784 98.188 11.616 97.748 11.868L31.696 50C31.4374 50.163 31.2242 50.3886 31.076 50.656L29.016 49.456C29.1661 49.1888 29.3806 48.9633 29.64 48.8L95.684 10.68C95.9568 10.5419 96.2583 10.4699 96.564 10.4699C96.8698 10.4699 97.1712 10.5419 97.444 10.68L97.748 10.856C97.982 11.0126 98.1802 11.2168 98.3298 11.4553C98.4794 11.6938 98.5769 11.9612 98.616 12.24Z" fill="white"/>
<path id="Vector_8" opacity="0.1" d="M31.5517 154.6C31.2953 154.702 31.0202 154.749 30.7445 154.737C30.4687 154.726 30.1985 154.656 29.9517 154.532L29.6437 154.356C29.388 154.189 29.1754 153.964 29.0232 153.699C28.871 153.434 28.7835 153.137 28.7677 152.832V50.332C28.777 50.0267 28.8652 49.729 29.0237 49.468L31.0837 50.668C30.9203 50.9242 30.8227 51.2169 30.7997 51.52V154.024C30.7997 154.528 31.1357 154.764 31.5517 154.6Z" fill="black"/>
</g>
<g id="freepik--tabs--inject-148">
<g id="freepik--tab--inject-148">
<path id="Vector_9" d="M38.608 117.46L38.304 117.284C38.0483 117.118 37.8354 116.893 37.6826 116.629C37.5297 116.365 37.4411 116.069 37.424 115.764V97.34C37.4411 97.0348 37.5297 96.7379 37.6825 96.4732C37.8354 96.2085 38.0483 95.9834 38.304 95.816L98.268 61.164C98.5401 61.0259 98.8409 60.954 99.146 60.954C99.4511 60.954 99.7519 61.0259 100.024 61.164L100.328 61.34C100.584 61.5067 100.798 61.7317 100.951 61.9965C101.104 62.2614 101.192 62.5586 101.208 62.864V81.288C101.192 81.5929 101.104 81.8896 100.951 82.1538C100.798 82.418 100.584 82.6422 100.328 82.808L40.368 117.46C40.0952 117.598 39.7938 117.67 39.488 117.67C39.1823 117.67 38.8808 117.598 38.608 117.46Z" fill="#EBEBEB"/>
<path id="Vector_10" d="M101.2 62.724C101.14 62.268 100.772 62.1 100.328 62.352L40.364 97.008C40.1054 97.171 39.8922 97.3966 39.744 97.664L37.684 96.464C37.8323 96.1944 38.0471 95.9672 38.308 95.804L98.268 61.152C98.5401 61.0139 98.8409 60.942 99.146 60.942C99.4511 60.942 99.7519 61.0139 100.024 61.152L100.328 61.328C100.565 61.4842 100.766 61.6897 100.917 61.9307C101.067 62.1716 101.164 62.4422 101.2 62.724Z" fill="#FAFAFA"/>
<path id="Vector_11" d="M40.216 117.532C39.9594 117.634 39.6841 117.68 39.4083 117.668C39.1324 117.656 38.8624 117.585 38.616 117.46L38.304 117.288C38.0502 117.119 37.8392 116.894 37.6878 116.629C37.5364 116.365 37.4488 116.068 37.432 115.764V97.34C37.4413 97.0347 37.5295 96.7371 37.688 96.476L39.748 97.676C39.5911 97.938 39.5018 98.2349 39.488 98.54V116.968C39.484 117.456 39.804 117.692 40.216 117.532Z" fill="#E0E0E0"/>
<path id="Vector_12" d="M48.8448 95.7718C52.2648 93.7958 55.0368 95.3318 55.0368 99.2038C55.0368 103.076 52.2608 107.78 48.8368 109.712C45.4128 111.644 42.6408 110.112 42.6408 106.28C42.6408 102.448 45.4248 97.7478 48.8448 95.7718Z" fill="#BA68C8"/>
</g>
<g id="freepik--tab--inject-148_2">
<path id="Vector_13" d="M38.608 142.428L38.304 142.252C38.0483 142.085 37.8354 141.861 37.6826 141.597C37.5297 141.333 37.4411 141.037 37.424 140.732V122.308C37.4411 122.003 37.5297 121.706 37.6825 121.441C37.8354 121.176 38.0483 120.951 38.304 120.784L98.268 86.132C98.5401 85.9939 98.8409 85.9219 99.146 85.9219C99.4511 85.9219 99.7519 85.9939 100.024 86.132L100.328 86.308C100.585 86.4744 100.798 86.6993 100.951 86.9642C101.104 87.2291 101.192 87.5265 101.208 87.832V106.256C101.192 106.561 101.104 106.858 100.951 107.122C100.798 107.386 100.584 107.61 100.328 107.776L40.368 142.428C40.0952 142.566 39.7938 142.638 39.488 142.638C39.1823 142.638 38.8808 142.566 38.608 142.428Z" fill="#EBEBEB"/>
<path id="Vector_14" d="M101.2 87.688C101.14 87.232 100.772 87.068 100.328 87.32L40.364 121.976C40.1065 122.139 39.8934 122.363 39.744 122.628L37.684 121.428C37.8357 121.169 38.0503 120.953 38.308 120.8L98.268 86.148C98.5401 86.0099 98.8409 85.9379 99.146 85.9379C99.4511 85.9379 99.7519 86.0099 100.024 86.148L100.328 86.324C100.562 86.4763 100.761 86.6768 100.911 86.912C101.061 87.1472 101.16 87.4117 101.2 87.688Z" fill="#FAFAFA"/>
<path id="Vector_15" d="M40.216 142.496C39.9597 142.599 39.6845 142.646 39.4087 142.634C39.1329 142.622 38.8627 142.552 38.616 142.428L38.304 142.252C38.0495 142.084 37.838 141.858 37.6866 141.594C37.5351 141.329 37.4479 141.033 37.432 140.728V122.308C37.4407 122.003 37.529 121.705 37.688 121.444L39.748 122.644C39.5916 122.908 39.5023 123.206 39.488 123.512V141.94C39.484 142.424 39.804 142.66 40.216 142.496Z" fill="#E0E0E0"/>
<path id="Vector_16" d="M48.8448 120.74C52.2648 118.764 55.0368 120.3 55.0368 124.172C55.0368 128.044 52.2608 132.748 48.8368 134.68C45.4128 136.612 42.6408 135.08 42.6408 131.248C42.6408 127.416 45.4248 122.712 48.8448 120.74Z" fill="#BA68C8"/>
</g>
<g id="freepik--tab--inject-148_3">
<path id="Vector_17" d="M38.608 75.708L38.304 75.532C38.0483 75.3646 37.8354 75.1395 37.6825 74.8748C37.5297 74.6101 37.4411 74.3132 37.424 74.008V55.6C37.4411 55.2954 37.5297 54.999 37.6826 54.735C37.8354 54.4709 38.0483 54.2465 38.304 54.08L98.268 19.412C98.5401 19.2739 98.8409 19.202 99.146 19.202C99.4511 19.202 99.7519 19.2739 100.024 19.412L100.328 19.588C100.584 19.7538 100.798 19.978 100.951 20.2422C101.104 20.5065 101.192 20.8032 101.208 21.108V39.532C101.192 39.8374 101.104 40.1347 100.951 40.3995C100.798 40.6644 100.584 40.8893 100.328 41.056L40.368 75.708C40.0952 75.8461 39.7938 75.9181 39.488 75.9181C39.1823 75.9181 38.8808 75.8461 38.608 75.708Z" fill="#EBEBEB"/>
<path id="Vector_18" d="M101.2 20.968C101.14 20.512 100.772 20.348 100.328 20.6L40.364 55.256C40.1047 55.4164 39.8912 55.6409 39.744 55.908L37.684 54.708C37.8314 54.4388 38.0465 54.2127 38.308 54.052L98.268 19.4C98.5401 19.2619 98.8409 19.1899 99.146 19.1899C99.4511 19.1899 99.7519 19.2619 100.024 19.4L100.328 19.576C100.565 19.7313 100.766 19.9362 100.917 20.1765C101.067 20.4167 101.164 20.6868 101.2 20.968Z" fill="#FAFAFA"/>
<path id="Vector_19" d="M40.216 75.776C39.9597 75.8787 39.6845 75.9257 39.4087 75.914C39.1329 75.9023 38.8627 75.8321 38.616 75.708L38.304 75.532C38.0477 75.3636 37.8348 75.1371 37.6826 74.8709C37.5304 74.6047 37.4431 74.3063 37.428 74V55.6C37.4366 55.2934 37.5248 54.9942 37.684 54.732L39.744 55.932C39.587 56.1954 39.4976 56.4936 39.484 56.8V75.2C39.484 75.704 39.804 75.936 40.216 75.776Z" fill="#E0E0E0"/>
<path id="Vector_20" d="M48.8448 54.0199C52.2648 52.0439 55.0368 53.5799 55.0368 57.4479C55.0368 61.3159 52.2608 66.0239 48.8368 67.9599C45.4128 69.8959 42.6408 68.3599 42.6408 64.5279C42.6408 60.6959 45.4248 55.9999 48.8448 54.0199Z" fill="#BA68C8"/>
</g>
<g id="freepik--tab--inject-148_4">
<path id="Vector_21" d="M42.8248 99.0999L42.5208 98.9239C42.2644 98.7573 42.051 98.5323 41.8981 98.2675C41.7451 98.0026 41.657 97.7053 41.6408 97.3999V78.9759C41.6576 78.6707 41.746 78.3737 41.8989 78.1089C42.0518 77.8441 42.2648 77.6191 42.5208 77.4519L102.481 42.7999C102.754 42.6618 103.055 42.5898 103.361 42.5898C103.667 42.5898 103.968 42.6618 104.241 42.7999L104.545 42.9719C104.8 43.1396 105.013 43.3647 105.166 43.6294C105.319 43.894 105.407 44.1908 105.425 44.4959V62.9199C105.408 63.2251 105.319 63.522 105.166 63.7867C105.013 64.0514 104.801 64.2766 104.545 64.4439L44.5808 99.0999C44.3087 99.238 44.0079 99.31 43.7028 99.31C43.3977 99.31 43.0969 99.238 42.8248 99.0999Z" fill="#37474F"/>
<path id="Vector_22" d="M105.417 44.3599C105.357 43.9039 104.989 43.7359 104.545 43.9919L44.5808 78.6479C44.3213 78.8093 44.1066 79.0336 43.9568 79.2999L41.9008 78.0999C42.0477 77.8306 42.2612 77.6034 42.5208 77.4399L102.481 42.7999C102.754 42.6618 103.055 42.5898 103.361 42.5898C103.667 42.5898 103.968 42.6618 104.241 42.7999L104.545 42.9719C104.781 43.1272 104.981 43.3316 105.132 43.571C105.282 43.8105 105.38 44.0796 105.417 44.3599Z" fill="#455A64"/>
<path id="Vector_23" d="M44.4328 99.1679C44.1764 99.2701 43.9013 99.3169 43.6255 99.3052C43.3498 99.2935 43.0796 99.2235 42.8328 99.0999L42.5248 98.9239C42.2696 98.7563 42.0573 98.5311 41.9051 98.2664C41.753 98.0016 41.6652 97.7048 41.6488 97.3999V78.9759C41.6595 78.6703 41.749 78.3727 41.9088 78.1119L43.9648 79.3119C43.809 79.5742 43.721 79.8711 43.7088 80.1759V98.6039C43.7008 99.0919 44.0008 99.3279 44.4328 99.1679Z" fill="#263238"/>
<path id="Vector_24" d="M53.0616 77.4079C56.4816 75.4359 59.2536 76.9719 59.2536 80.8399C59.2536 84.7079 56.4776 89.4159 53.0536 91.3519C49.6296 93.2879 46.8536 91.7519 46.8576 87.9199C46.8616 84.0879 49.6416 79.3839 53.0616 77.4079Z" fill="#F5F5F5"/>
<path id="Vector_25" d="M53.2013 88.54C53.0931 88.6221 52.9625 88.6695 52.8269 88.6759C52.6912 88.6824 52.5567 88.6475 52.4413 88.576L49.7213 86.52C49.3573 86.244 49.4013 85.488 49.8213 84.824C50.2413 84.16 50.8773 83.848 51.2373 84.124L53.1333 85.56L58.4013 74.244C58.7293 73.536 59.3573 73.044 59.8053 73.184C60.2533 73.324 60.3493 73.984 60.0173 74.68L54.0013 87.6C53.8349 87.9717 53.5674 88.2891 53.2293 88.516L53.2013 88.54Z" fill="#BA68C8"/>
</g>
</g>
</g>
<g id="freepik--Hand--inject-148">
<path id="Vector_26" d="M105.409 71.72L103.669 70.716C102.913 70.284 101.989 70.716 101.501 71.012L100.401 70.4C99.0846 69.6 97.2526 71.268 96.8446 71.664L96.3726 71.396C94.9766 70.556 92.4366 72.808 92.4366 72.808V64.4L93.5406 63.868L91.7846 62.852C91.533 62.7404 91.2564 62.6968 90.9827 62.7255C90.7089 62.7543 90.4475 62.8545 90.2246 63.016C89.5748 63.4391 89.034 64.0095 88.6462 64.6809C88.2584 65.3523 88.0344 66.1058 87.9926 66.88V86.308C86.3926 85.108 84.6806 84.388 83.1926 84.656C82.0072 84.9331 80.9701 85.6473 80.2886 86.656C79.5526 87.96 80.7686 88.776 82.3366 90.568C83.9046 92.36 85.2646 94.488 86.6806 95.808C87.3795 96.5161 88.2096 97.0813 89.1246 97.472V100L90.8446 100.996L102.237 92.432V89.9C102.237 89.9 103.861 83.412 104.381 80.7C104.881 78.092 105.341 73.928 104.481 71.768L105.413 71.704L105.409 71.72Z" fill="#BA68C8"/>
<path id="Vector_27" opacity="0.4" d="M105.409 71.72L103.669 70.716C102.913 70.284 101.989 70.716 101.501 71.012L100.401 70.4C99.0846 69.6 97.2526 71.268 96.8446 71.664L96.3726 71.396C94.9766 70.556 92.4366 72.808 92.4366 72.808V64.4L93.5406 63.868L91.7846 62.852C91.533 62.7404 91.2564 62.6968 90.9827 62.7255C90.7089 62.7543 90.4475 62.8545 90.2246 63.016C89.5748 63.4391 89.034 64.0095 88.6462 64.6809C88.2584 65.3523 88.0344 66.1058 87.9926 66.88V86.308C86.3926 85.108 84.6806 84.388 83.1926 84.656C82.0072 84.9331 80.9701 85.6473 80.2886 86.656C79.5526 87.96 80.7686 88.776 82.3366 90.568C83.9046 92.36 85.2646 94.488 86.6806 95.808C87.3795 96.5161 88.2096 97.0813 89.1246 97.472V100L90.8446 100.996L102.237 92.432V89.9C102.237 89.9 103.861 83.412 104.381 80.7C104.881 78.092 105.341 73.928 104.481 71.768L105.413 71.704L105.409 71.72Z" fill="white"/>
<path id="Vector_28" d="M92.564 94.048L83.948 89.076L80.176 86.896C79.696 88.072 80.86 88.896 82.332 90.58C83.888 92.36 85.26 94.5 86.676 95.82C87.3749 96.5281 88.205 97.0933 89.12 97.484V100L90.84 100.996L93.356 99.104C93.032 96.968 92.564 94.048 92.564 94.048Z" fill="#BA68C8"/>
<path id="Vector_29" d="M89.716 67.884L87.996 66.888V87.268L89.716 87.312V67.884Z" fill="#BA68C8"/>
<path id="Vector_30" d="M103.232 73.028L104.568 72.044C104.536 71.956 104.512 71.868 104.476 71.784L104.964 71.752L103.892 71.704L102.104 70.716C101.895 70.7998 101.693 70.9001 101.5 71.016L102.06 71.34L103.232 73.028Z" fill="#BA68C8"/>
<path id="Vector_31" d="M98.4993 72.736L99.7513 71.784L98.0233 70.736C97.6062 71.0039 97.2163 71.3121 96.8593 71.656L98.0593 72.352L98.4993 72.736Z" fill="#BA68C8"/>
<path id="Vector_32" d="M95.884 72.644L94.172 71.644L94.18 71.628V73.792L96.172 73.064L95.884 72.644Z" fill="#BA68C8"/>
<g id="Group" opacity="0.15">
<path id="Vector_33" d="M92.564 94.048L83.948 89.076L80.176 86.896C79.696 88.072 80.86 88.896 82.332 90.58C83.888 92.36 85.26 94.5 86.676 95.82C87.3749 96.5281 88.205 97.0933 89.12 97.484V100L90.84 100.996L93.356 99.104C93.032 96.968 92.564 94.048 92.564 94.048Z" fill="black"/>
<path id="Vector_34" d="M89.716 67.884L87.996 66.888V87.268L89.716 87.312V67.884Z" fill="black"/>
<path id="Vector_35" d="M103.232 73.028L104.568 72.044C104.536 71.956 104.512 71.868 104.476 71.784L104.964 71.752L103.892 71.704L102.104 70.716C101.895 70.7998 101.693 70.9001 101.5 71.016L102.06 71.34L103.232 73.028Z" fill="black"/>
<path id="Vector_36" d="M98.4993 72.7361L99.7513 71.7841L98.0233 70.7361C97.6062 71.0041 97.2163 71.3123 96.8593 71.6561L98.0593 72.3521L98.4993 72.7361Z" fill="black"/>
<path id="Vector_37" d="M95.884 72.644L94.172 71.644L94.18 71.628V73.792L96.172 73.064L95.884 72.644Z" fill="black"/>
</g>
<path id="Vector_38" d="M90.8393 101.012V98.4802C89.9245 98.0839 89.0958 97.5133 88.3993 96.8002C86.9833 95.4802 85.5992 93.3362 84.0552 91.5602C82.5112 89.7842 81.2553 88.9482 82.0073 87.6482C82.6888 86.6395 83.7259 85.9252 84.9112 85.6482C86.4072 85.3802 88.1112 86.1122 89.7112 87.3002V67.8842C89.7526 67.1103 89.9759 66.3571 90.3631 65.6857C90.7502 65.0143 91.2902 64.4437 91.9393 64.0202C93.1713 63.3082 94.1712 63.8842 94.1712 65.3082V73.7922C94.1712 73.7922 97.2472 71.0642 98.4872 72.7362C98.4872 72.7362 101.511 69.5722 102.887 72.2442C102.887 72.2442 105.103 70.4562 106.087 72.5322C107.071 74.6082 106.607 79.0002 106.087 81.7122C105.567 84.4242 103.939 90.9122 103.939 90.9122V93.4442L90.8393 101.012Z" fill="#BA68C8"/>
<path id="Vector_39" d="M94.18 77.436C94.18 77.436 94.46 73.564 95.884 72.636H95.832C95.2428 72.9537 94.689 73.3331 94.18 73.768V73.696C94.1747 73.7072 94.1719 73.7195 94.1719 73.732C94.1719 73.7444 94.1747 73.7567 94.18 73.768V77.436Z" fill="#455A64"/>
<path id="Vector_40" d="M98.5 72.736V76.28C98.5 76.28 98.9 72.636 99.7 71.756C99.2653 72.0377 98.8629 72.3663 98.5 72.736Z" fill="#455A64"/>
<path id="Vector_41" d="M102.885 72.244V75.8C102.885 75.8 103.101 72.22 103.873 71.692C103.518 71.8268 103.185 72.0128 102.885 72.244Z" fill="#455A64"/>
<path id="Vector_42" d="M90.2168 60.5761C89.9368 60.7361 89.7128 60.6441 89.7128 60.3641V57.5641C89.7276 57.4005 89.781 57.2426 89.8686 57.1036C89.9562 56.9645 90.0756 56.8482 90.2168 56.7641C90.4928 56.6041 90.7168 56.7001 90.7168 56.9761V59.7761C90.7027 59.9395 90.6501 60.0973 90.5631 60.2364C90.4762 60.3754 90.3575 60.4919 90.2168 60.5761Z" fill="#EBEBEB"/>
<path id="Vector_43" d="M86.0005 65.0118C85.8045 65.3478 85.4885 65.5318 85.2925 65.4118L83.6645 64.4718C83.4685 64.3598 83.4685 63.9918 83.6645 63.6718C83.8605 63.3318 84.1765 63.1478 84.3725 63.2718L86.0005 64.2118C86.2125 64.3038 86.2125 64.6718 86.0005 65.0118Z" fill="#EBEBEB"/>
<path id="Vector_44" d="M84.2766 70.8238V70.9038C84.2595 71.0777 84.2017 71.245 84.1079 71.3924C84.0141 71.5397 83.8868 71.6628 83.7366 71.7518L81.5126 73.0358C81.2166 73.2078 80.9726 73.1078 80.9726 72.8078V72.7278C80.9906 72.5543 81.0487 72.3873 81.1425 72.2401C81.2362 72.0929 81.3629 71.9696 81.5126 71.8798L83.7366 70.5958C84.0366 70.4238 84.2766 70.5238 84.2766 70.8238Z" fill="#EBEBEB"/>
<path id="Vector_45" d="M96.1523 64.0478V63.9678C96.1687 63.7933 96.2262 63.6251 96.3201 63.477C96.4139 63.329 96.5415 63.2052 96.6922 63.1158L98.9162 61.8318C99.2122 61.6598 99.4562 61.7638 99.4562 62.0598V62.1398C99.4382 62.3134 99.3801 62.4803 99.2863 62.6275C99.1926 62.7747 99.0659 62.8981 98.9162 62.9878L96.6922 64.2718C96.4002 64.4438 96.1523 64.3438 96.1523 64.0478Z" fill="#EBEBEB"/>
<path id="Vector_46" d="M94.4008 60.16C94.2048 60.048 94.2048 59.684 94.4008 59.36L96.0288 56.56C96.2248 56.22 96.5408 56.036 96.7368 56.16C96.9328 56.276 96.9328 56.64 96.7368 56.98L95.1088 59.78C94.9288 60.092 94.6088 60.276 94.4008 60.16Z" fill="#EBEBEB"/>
</g>
<g id="freepik--character-2--inject-148">
<path id="Vector_47" d="M157.689 126.088V125.632C157.509 126.164 156.677 128.464 155.417 129.632C154.413 130.548 153.041 131.604 152.693 132.624C152.345 133.644 154.601 134.044 155.537 133.88C156.629 133.684 158.037 133.08 158.805 132.124C159.345 131.46 159.689 130.676 160.073 130.152C160.457 129.628 161.345 129.052 161.557 128.448C161.669 128.116 161.533 127.388 161.373 126.776C161.213 126.164 161.065 125.596 160.873 125.648V126C160.416 126.357 159.852 126.546 159.273 126.536C158.801 126.536 157.685 126.44 157.689 126.088Z" fill="#263238"/>
<path id="Vector_48" d="M154.505 130.42C154.817 130.144 155.133 129.872 155.417 129.62C156.297 128.82 156.969 127.452 157.357 126.52C157.576 125.988 157.689 125.419 157.689 124.844V123.032H160.889V125.984V126.064C160.737 126.724 159.289 128.464 158.445 129.632C157.889 130.4 156.845 131.376 155.569 131.548C154.341 131.708 153.729 131.328 154.505 130.42Z" fill="#FFA8A7"/>
<path id="Vector_49" d="M145.277 122.948V122.492C145.097 123.028 144.261 125.328 143.001 126.492C141.997 127.408 140.625 128.468 140.277 129.488C139.929 130.508 142.185 130.908 143.121 130.74C144.213 130.548 145.621 129.94 146.389 128.988C146.929 128.324 147.273 127.536 147.657 127.016C148.041 126.496 148.933 125.912 149.141 125.308C149.253 124.976 149.117 124.252 148.957 123.64C148.797 123.028 148.649 122.44 148.457 122.508V122.856C148.001 123.215 147.436 123.406 146.857 123.396C146.401 123.396 145.273 123.304 145.277 122.948Z" fill="#263238"/>
<path id="Vector_50" d="M142.092 127.284C142.4 127.004 142.716 126.736 143 126.484C143.88 125.684 144.552 124.312 144.94 123.38C145.161 122.85 145.275 122.282 145.276 121.708V119.892H148.456V122.844V122.924C148.304 123.588 146.856 125.344 146.012 126.492C145.456 127.26 144.412 128.24 143.136 128.408C141.924 128.568 141.312 128.192 142.092 127.284Z" fill="#FFA8A7"/>
<path id="Vector_51" d="M160.24 76.62C162.708 82.008 160.148 100.996 160.148 100.996C160.224 101.868 161.224 103.592 161.596 107.44C162.036 111.988 160.904 123.408 160.904 123.408C160.421 123.687 159.877 123.845 159.32 123.867C158.762 123.889 158.208 123.776 157.704 123.536C157.704 123.536 154.672 106.336 154.104 101.816C153.6 97.868 152.632 89.2 152.632 89.2L149.916 101.8C150.312 103.072 150.6 104.375 150.776 105.696C151.036 108.356 148.456 120.74 148.456 120.74C148.456 120.74 147.36 121.14 145.276 120.836C145.276 120.836 144.364 104.4 144.124 101.196C143.724 95.816 145.148 79.024 146.124 75.84L160.24 76.62Z" fill="#37474F"/>
<path id="Vector_52" d="M152.632 89.2001L151.832 84.1921C151.832 84.1921 148.44 83.4921 146.904 82.0441C147.963 83.288 149.349 84.2108 150.904 84.7081L151.804 88.5641L150.232 100.232L152.632 89.2001Z" fill="#263238"/>
<path id="Vector_53" d="M150.62 57.748C149.846 57.6815 149.068 57.8133 148.359 58.1311C147.65 58.4488 147.033 58.942 146.568 59.564C145.296 61.228 140.42 67.564 140.42 67.564C140.42 67.564 133.22 63.964 132.88 63.54C132.54 63.116 132.728 62.252 132.824 61.78C132.92 61.308 133.084 60.248 133.188 59.952C133.372 59.436 132.608 59.576 132.156 60.06C131.704 60.544 131.508 61.488 131.28 61.66C131.052 61.832 129.348 59.856 128.516 58.908C127.684 57.96 127.316 57.308 126.744 57.688C126.344 57.968 126.6 58.532 127.196 59.344C127.474 59.6882 127.73 60.0489 127.964 60.424C128.032 60.568 127.816 60.684 127.728 60.764C127.568 60.908 127.28 61.164 127.26 61.368C127.264 61.4912 127.256 61.6144 127.236 61.736C127.16 62.008 126.836 62.136 126.732 62.4C126.664 62.588 126.732 62.8 126.7 63.004C126.676 63.132 126.604 63.248 126.58 63.38C126.572 63.5085 126.592 63.6372 126.638 63.7574C126.684 63.8775 126.756 63.9862 126.848 64.076C127.428 64.772 128.224 65.036 128.988 65.46C129.624 65.812 130.28 65.964 131.012 66.288C131.744 66.612 140.232 72.5 141.576 71.756C142.92 71.012 149.856 62.956 149.856 62.956C151.856 59.632 150.62 57.748 150.62 57.748Z" fill="#FFA8A7"/>
<path id="Vector_54" d="M155.888 57.896C159.048 58.116 159.272 59.644 160.064 61.312C160.643 62.6006 160.696 64.0648 160.212 65.392L158 71.768C158 71.768 159.032 74.264 160.232 76.62C154.7 79.708 147.792 78.084 146.128 75.82C146.056 75.34 146.484 71.604 146.748 69.164C145.772 66.72 145.516 65.164 145.928 63.564C146.692 60.564 149.652 57.644 150.964 57.748L155.888 57.896Z" fill="#F5F5F5"/>
<path id="Vector_55" d="M152.845 55.276H154.073C154.923 55.276 155.764 55.1084 156.55 54.7829C157.335 54.4573 158.048 53.9802 158.649 53.3787C159.25 52.7773 159.726 52.0633 160.051 51.2776C160.375 50.492 160.542 49.6501 160.541 48.8C160.54 47.0757 159.854 45.4224 158.634 44.2036C157.415 42.9847 155.761 42.3 154.037 42.3H152.881C151.16 42.3053 149.512 42.9924 148.297 44.2108C147.083 45.4293 146.401 47.0795 146.401 48.8C146.397 50.513 147.074 52.1572 148.283 53.3714C149.491 54.5857 151.132 55.2707 152.845 55.276Z" fill="#263238"/>
<path id="Vector_56" d="M164 58.684C162.987 58.6829 162.016 58.2801 161.3 57.564C160.584 56.8478 160.181 55.8768 160.18 54.864V46.68C160.682 46.68 161.179 46.7789 161.643 46.9712C162.107 47.1634 162.528 47.4451 162.883 47.8003C163.237 48.1554 163.519 48.577 163.71 49.0409C163.902 49.5048 164.001 50.002 164 50.504V58.684Z" fill="#263238"/>
<path id="Vector_57" d="M160.88 45.232L159.924 46.768C160.022 46.8361 160.132 46.8838 160.249 46.908C160.365 46.9322 160.485 46.9326 160.602 46.909C160.719 46.8855 160.829 46.8385 160.927 46.7709C161.025 46.7034 161.108 46.6167 161.172 46.516C161.297 46.3053 161.337 46.0546 161.282 45.8157C161.228 45.5768 161.084 45.3678 160.88 45.232Z" fill="#263238"/>
<path id="Vector_58" d="M148.704 45.1721C147.956 45.6121 147.032 47.4921 147.124 51.4361C147.2 54.7801 148.284 55.6041 148.828 55.8361C149.372 56.0681 150.428 55.9281 151.44 55.7561V57.7561C151.44 57.7561 150.032 59.3921 150.12 60.3121C150.208 61.2321 152.156 61.4481 153.476 60.5521C154.33 59.935 155.063 59.1662 155.64 58.2841V53.4521C155.747 53.5836 155.878 53.6925 156.028 53.7725C156.177 53.8525 156.341 53.9019 156.51 53.918C156.678 53.934 156.849 53.9162 157.01 53.8658C157.172 53.8153 157.322 53.7331 157.452 53.6241C158.58 52.8761 158.624 51.0241 157.968 50.3601C157.312 49.6961 155.9 49.9081 155.64 50.8241C155.64 50.8241 154.012 50.8841 151.848 49.6961C151.005 49.2422 150.281 48.5961 149.735 47.81C149.188 47.024 148.835 46.1202 148.704 45.1721Z" fill="#FFA8A7"/>
<path id="Vector_59" d="M151.227 50.5961C151.223 50.6788 151.244 50.7609 151.287 50.8319C151.33 50.9029 151.392 50.9596 151.467 50.9951C151.542 51.0305 151.626 51.043 151.708 51.0309C151.79 51.0189 151.866 50.9829 151.928 50.9274C151.989 50.872 152.033 50.7995 152.054 50.7193C152.074 50.639 152.07 50.5545 152.043 50.4763C152.016 50.3981 151.966 50.3298 151.899 50.2799C151.833 50.2301 151.754 50.2009 151.671 50.1961C151.56 50.1937 151.452 50.2337 151.37 50.3081C151.287 50.3824 151.236 50.4854 151.227 50.5961Z" fill="#263238"/>
<path id="Vector_60" d="M150.744 53.4318L149.768 53.7398C149.785 53.805 149.816 53.866 149.857 53.9192C149.899 53.9724 149.95 54.0167 150.009 54.0495C150.068 54.0823 150.133 54.103 150.2 54.1103C150.267 54.1175 150.335 54.1113 150.4 54.0918C150.531 54.0478 150.641 53.9544 150.705 53.8313C150.769 53.7082 150.783 53.565 150.744 53.4318Z" fill="#F28F8F"/>
<path id="Vector_61" d="M147.785 49.3081L148.633 48.7161C148.597 48.6591 148.55 48.61 148.495 48.5716C148.44 48.5333 148.377 48.5066 148.311 48.4932C148.246 48.4797 148.178 48.4797 148.112 48.4933C148.046 48.5069 147.984 48.5337 147.929 48.5721C147.815 48.6529 147.736 48.7743 147.71 48.9113C147.683 49.0483 147.71 49.1904 147.785 49.3081Z" fill="#263238"/>
<path id="Vector_62" d="M147.999 50.2922C147.995 50.3485 148.002 50.4052 148.02 50.4588C148.038 50.5124 148.066 50.5619 148.103 50.6044C148.141 50.6469 148.186 50.6815 148.237 50.7062C148.288 50.7309 148.343 50.7451 148.399 50.7482C148.486 50.7552 148.573 50.7363 148.648 50.6938C148.724 50.6513 148.785 50.5871 148.824 50.5096C148.863 50.432 148.878 50.3445 148.867 50.2584C148.856 50.1723 148.82 50.0914 148.763 50.0261C148.705 49.9608 148.63 49.9141 148.546 49.892C148.462 49.8699 148.373 49.8733 148.291 49.9019C148.209 49.9305 148.138 49.9829 148.086 50.0524C148.034 50.122 148.004 50.2055 147.999 50.2922Z" fill="#263238"/>
<path id="Vector_63" d="M150.031 50.0519L149.963 52.5839L148.631 52.1719L150.031 50.0519Z" fill="#F28F8F"/>
<path id="Vector_64" d="M151.44 55.7639C152.516 55.6239 154.728 54.9879 155.072 54.1159C154.932 54.5582 154.662 54.9475 154.296 55.2319C153.636 55.7959 151.44 56.4319 151.44 56.4319V55.7639Z" fill="#F28F8F"/>
<path id="Vector_65" opacity="0.1" d="M154.472 77.2199C154.906 77.1201 155.315 76.9347 155.676 76.6746C156.037 76.4145 156.342 76.085 156.574 75.7053C156.805 75.3256 156.959 74.9035 157.025 74.4636C157.092 74.0238 157.07 73.5751 156.96 73.1439C156.896 72.881 156.745 72.6475 156.532 72.4812C156.318 72.3149 156.055 72.2257 155.784 72.2279C156.139 71.9927 156.444 71.6896 156.682 71.3361C156.919 70.9826 157.085 70.5856 157.168 70.1679L157.84 66.1679C157.922 65.5164 157.863 64.855 157.668 64.2279L159.892 61.6559L160.292 61.9399C160.63 63.0697 160.598 64.2778 160.2 65.3879L158 71.7679C158 71.7679 159.032 74.2639 160.232 76.6199C158.434 77.5901 156.448 78.1636 154.409 78.3016C152.37 78.4396 150.325 78.1389 148.412 77.4199C150.427 77.7357 152.483 77.6679 154.472 77.2199Z" fill="black"/>
<path id="Vector_66" d="M165.9 73.7722C163.028 62.0322 160.904 58.1162 157.416 58.1722C156.396 59.3722 156.68 63.0682 158.288 65.3002C158.288 65.3002 161.888 72.8722 162.452 75.5642C162.952 77.9282 163.524 80.9042 163.488 82.9362C163.476 83.2967 163.334 83.6408 163.088 83.9042C162.432 84.6162 162.432 85.1882 162.004 85.9722C161.672 86.5882 161.308 86.8202 161.412 86.9562C161.549 87.1025 161.736 87.1919 161.936 87.2067C162.136 87.2215 162.334 87.1606 162.492 87.0362C162.794 86.8077 163.063 86.5385 163.292 86.2362C163.179 86.9895 162.96 87.7233 162.644 88.4162C161.908 90.0762 162.088 90.9242 164.328 90.3322C165.732 89.9602 166.616 88.7922 166.828 85.4122C166.929 84.1693 166.941 82.9208 166.864 81.6762C166.58 78.4762 166.364 75.6602 165.9 73.7722Z" fill="#FFA8A7"/>
</g>
<g id="freepik--character-1--inject-148">
<path id="Vector_67" d="M137.405 107.336C137.713 95.9081 136.797 93.1721 133.757 91.0801L132.577 97.7001C132.577 97.7001 133.961 105.5 133.813 108.1C133.685 110.384 133.461 113.24 132.921 115.084C132.826 115.416 132.611 115.702 132.317 115.884C131.541 116.368 131.229 116.864 130.645 117.484C130.189 117.964 129.801 118.08 129.845 118.232C129.933 118.4 130.082 118.528 130.26 118.592C130.439 118.656 130.635 118.65 130.809 118.576C131.196 118.42 131.564 118.22 131.905 117.98C131.637 118.68 131.258 119.333 130.781 119.912C129.693 121.244 129.645 122.064 131.841 122.084C133.213 122.084 134.309 121.248 135.345 118.22C135.747 117.11 136.069 115.972 136.309 114.816C136.853 111.796 137.357 109.176 137.405 107.336Z" fill="#B16668"/>
<path id="Vector_68" d="M131.201 90.212C132.653 90 134.625 90.304 135.901 92.584C137.177 94.864 137.501 98.788 137.633 102.688C137.633 102.688 135.101 104.804 132.061 103.764L131.201 90.212Z" fill="#BA68C8"/>
<path id="Vector_69" opacity="0.1" d="M131.201 90.212C132.653 90 134.625 90.304 135.901 92.584C137.177 94.864 137.501 98.788 137.633 102.688C137.633 102.688 135.101 104.804 132.061 103.764L131.201 90.212Z" fill="black"/>
<path id="Vector_70" d="M135.469 153.056C135.697 153.144 135.757 153.584 135.793 154.456C135.817 155.116 135.961 156.272 135.185 156.5C134.409 156.728 133.277 156.612 132.785 155.992C132.165 155.192 131.749 154.528 130.865 153.592C130.097 152.768 129.265 151.992 128.961 150.848C128.681 149.804 128.913 149.352 129.625 149.048C130.601 148.648 132.141 149.996 132.905 150.208C133.561 150.4 135.237 152.968 135.469 153.056Z" fill="#263238"/>
<path id="Vector_71" d="M135.469 152.248V153.32C135.066 153.578 134.601 153.72 134.123 153.733C133.645 153.746 133.173 153.628 132.757 153.392C132.713 153.288 132.477 151.86 132.477 151.86L135.469 152.248Z" fill="#B16668"/>
<path id="Vector_72" d="M126.801 159.236C126.988 159.81 127.145 160.394 127.273 160.984C127.405 161.632 127.593 162.716 127.369 163.204C127.145 163.692 126.257 164.004 124.881 164.004C123.993 164.004 122.609 164.6 121.661 165.128C120.713 165.656 118.641 165.892 117.605 165.772C116.385 165.628 115.121 164.92 114.921 164.412C114.721 163.904 114.985 163.384 117.865 162.156C117.893 162.156 121.865 160.852 123.257 159.316L126.801 159.236Z" fill="#263238"/>
<path id="Vector_73" d="M126.801 158.076C126.801 158.076 126.801 158.876 126.801 159.328C126.801 159.78 126.269 160.46 124.877 160.408C123.901 160.376 123.221 160.112 123.277 159.308V158.148L126.801 158.076Z" fill="#B16668"/>
<path id="Vector_74" d="M136.165 138.02C135.928 136.117 135.505 134.241 134.901 132.42C134.901 132.42 135.281 127.62 135.465 123.036C135.665 118.1 135.465 111.9 135.549 110.668C135.549 110.668 119.629 107.468 119.345 113.148C119.061 118.828 119.973 133.372 120.145 135.876C120.317 138.38 120.765 140.6 121.285 144.676C121.805 148.752 123.225 158.148 123.225 158.148C123.777 158.429 124.388 158.569 125.006 158.556C125.625 158.544 126.23 158.379 126.769 158.076C126.769 158.076 127.889 146.672 127.773 143.78C127.683 141.639 127.315 139.518 126.677 137.472C126.677 137.472 126.977 132.768 127.245 128.672C127.513 124.576 127.793 122.616 127.853 120.84L128.197 120.668C128.197 120.668 128.545 127.724 128.733 130.232C128.921 132.74 129.321 135.14 130.045 139.792C130.677 143.832 132.549 152.372 132.549 152.372C134.365 153.356 135.453 152.244 135.453 152.244C135.453 152.244 136.657 141.524 136.165 138.02Z" fill="#37474F"/>
<path id="Vector_75" d="M127.869 120.844C127.869 120.844 131.733 118.94 133.665 117.224C133.665 117.224 131.869 119.752 129.513 120.872C129.513 120.872 128.677 129.64 128.681 129.464L128.197 120.828L127.869 120.844Z" fill="#263238"/>
<path id="Vector_76" d="M124.434 88.4042L125.378 93.5882L130.058 93.2482L129.078 87.3682L124.434 88.4042Z" fill="#B16668"/>
<path id="Vector_77" d="M135.005 92.868C134.541 91.46 132.753 89.924 130.965 90.256C128.305 90.7077 125.685 91.3616 123.125 92.212C121.485 92.8 119.993 94.212 119.857 99.604C119.857 99.604 119.309 112.172 119.301 114.6C123.413 116.228 127.701 116.18 130.057 115.664C134.985 114.588 135.577 112.544 135.577 112.544C135.577 112.544 135.641 103.508 135.493 99.604C135.369 96.288 135.325 93.836 135.005 92.868Z" fill="#BA68C8"/>
<path id="Vector_78" d="M120.822 82.0962C120.822 82.0962 119.622 83.9922 119.778 84.1722C119.934 84.3522 120.83 84.4962 120.83 84.4962L120.822 82.0962Z" fill="#B16668"/>
<path id="Vector_79" d="M124.117 76.8599C121.641 77.4399 120.949 78.5479 120.801 82.5079C120.649 86.6439 121.101 87.9319 121.657 88.4759C122.029 88.8439 124.057 88.8759 125.089 88.5599C126.365 88.1599 129.249 87.0799 130.561 84.9599C132.105 82.4799 132.453 79.1599 130.709 77.8359C128.253 75.9999 125.125 76.6199 124.117 76.8599Z" fill="#B16668"/>
<path id="Vector_80" d="M124.484 88.6882C125.324 88.0122 125.248 87.5762 125.248 87.5762C124.648 88.1402 122.416 88.6202 121.648 88.4762C121.964 88.8002 123.416 88.8482 124.484 88.6882Z" fill="#9A4A4D"/>
<path id="Vector_81" d="M120.829 77.888C121.557 79.132 123.133 79.728 123.133 79.728C123.609 80.268 123.345 82.38 124.181 82.712C124.181 82.712 124.541 81.176 125.833 81.34C127.125 81.504 127.345 83.152 126.549 84.172C125.753 85.192 124.989 84.828 124.989 84.828C124.989 84.828 125.077 87.008 126.073 88.224C126.073 88.224 127.181 88.556 129.193 88.076C130.433 87.784 132.157 86.188 132.857 84.528C134.345 81.008 134.381 77.872 132.137 76.984C131.861 75.384 130.581 74.692 129.133 74.392C126.017 73.752 124.009 75.696 121.609 75.528C120.233 75.432 119.977 76.428 120.829 77.888Z" fill="#263238"/>
<path id="Vector_82" d="M132.189 77.52L133.657 76.608C133.536 76.4133 133.342 76.2747 133.119 76.2225C132.896 76.1704 132.661 76.2091 132.467 76.33C132.272 76.4509 132.133 76.6443 132.081 76.8674C132.029 77.0906 132.068 77.3253 132.189 77.52Z" fill="#263238"/>
<path id="Vector_83" d="M123.253 92.192C123.253 92.192 120.925 92.624 119.709 94.464C118.493 96.304 113.229 102.904 113.229 102.904C113.229 102.904 105.661 99.116 105.289 98.664C104.917 98.212 105.125 97.308 105.229 96.808C105.333 96.308 105.501 95.208 105.629 94.888C105.821 94.34 105.017 94.488 104.541 94.996C104.065 95.504 103.857 96.5 103.621 96.672C103.385 96.844 101.581 94.772 100.709 93.772C99.8367 92.772 99.4247 92.072 98.8367 92.484C98.4167 92.784 98.6887 93.376 99.3127 94.232C99.6063 94.5909 99.8737 94.9706 100.113 95.368C100.189 95.52 99.9567 95.644 99.8687 95.724C99.6967 95.876 99.3967 96.124 99.3727 96.364C99.3854 96.497 99.3854 96.6309 99.3727 96.764C99.2887 97.048 98.9367 97.164 98.8367 97.46C98.7647 97.664 98.8367 97.888 98.8047 98.1C98.7767 98.236 98.7047 98.356 98.6767 98.5C98.669 98.6358 98.6903 98.7717 98.7393 98.8986C98.7882 99.0255 98.8637 99.1405 98.9607 99.236C99.5727 99.968 100.413 100.248 101.217 100.692C101.885 101.064 102.577 101.224 103.349 101.568C104.121 101.912 113.193 108.616 114.609 107.836C116.025 107.056 123.281 98.576 123.281 98.576C123.894 97.6231 124.217 96.5129 124.212 95.3798C124.207 94.2468 123.874 93.1394 123.253 92.192Z" fill="#B16668"/>
<path id="Vector_84" d="M124.065 91.92C123.065 92.032 121.665 91.848 119.701 93.952C118.124 95.7576 116.655 97.6542 115.301 99.632C115.559 100.671 116.111 101.614 116.892 102.346C117.672 103.079 118.647 103.572 119.701 103.764C119.701 103.764 123.133 100.248 124.101 98.308C125.069 96.368 125.241 93.224 124.065 91.92Z" fill="#BA68C8"/>
<path id="Vector_85" opacity="0.1" d="M124.065 91.92C123.065 92.032 121.665 91.848 119.701 93.952C118.124 95.7576 116.655 97.6542 115.301 99.632C115.559 100.671 116.111 101.614 116.892 102.346C117.672 103.079 118.647 103.572 119.701 103.764C119.701 103.764 123.133 100.248 124.101 98.308C125.069 96.368 125.241 93.224 124.065 91.92Z" fill="black"/>
</g>
</g>
</svg>
