<svg width="376" height="389" viewBox="0 0 376 389" fill="none" xmlns="http://www.w3.org/2000/svg">
<mask id="mask0_896_15227" style="mask-type:luminance" maskUnits="userSpaceOnUse" x="0" y="51" width="159" height="120">
<path d="M158.589 51.5781H0V170.871H158.589V51.5781Z" fill="white"/>
</mask>
<g mask="url(#mask0_896_15227)">
<path d="M152.172 51.5781H6.11133C2.73613 51.5781 0 54.3241 0 57.7116V164.738C0 168.125 2.73613 170.871 6.11133 170.871H152.172C155.548 170.871 158.283 168.125 158.283 164.738V57.7116C158.283 54.3241 155.548 51.5781 152.172 51.5781Z" fill="#FBF6F1"/>
<path d="M23.799 161.589C15.8867 161.589 9.47266 155.086 9.47266 147.063C9.47266 139.041 15.8867 132.537 23.799 132.537C31.7112 132.537 38.1253 139.041 38.1253 147.063C38.1253 155.086 31.7112 161.589 23.799 161.589ZM23.8303 147.002C24.8874 147.002 25.7445 146.145 25.7445 145.087C25.7445 144.028 24.8874 143.17 23.8303 143.17C22.7731 143.17 21.9161 144.028 21.9161 145.087C21.9161 146.145 22.7731 147.002 23.8303 147.002ZM23.8303 147.961C21.9142 147.961 20.3609 149.515 20.3609 151.433H27.2997C27.2997 149.515 25.7464 147.961 23.8303 147.961Z" fill="#EEE2D8"/>
<path d="M9.47255 77.3403C9.47255 76.6614 10.0175 76.1116 10.6945 76.1116H111.847C112.521 76.1116 113.068 76.6608 113.068 77.3403V121.268C113.068 121.947 112.523 122.497 111.847 122.497H10.6945C10.0197 122.497 9.47255 121.948 9.47255 121.268V77.3403ZM47.7909 144.358H128.075C129.324 144.358 130.337 145.374 130.337 146.628V147.853C130.337 149.106 129.324 150.122 128.075 150.122H47.7909C46.5419 150.122 45.5294 149.106 45.5294 147.853V146.628C45.5294 145.374 46.5419 144.358 47.7909 144.358ZM47.7909 153.725H142.449C143.698 153.725 144.711 154.742 144.711 155.995V157.22C144.711 158.474 143.698 159.49 142.449 159.49H47.7909C46.5419 159.49 45.5294 158.474 45.5294 157.22V155.995C45.5294 154.742 46.5419 153.725 47.7909 153.725ZM47.7909 134.991H107.952C109.2 134.991 110.213 136.008 110.213 137.261V138.486C110.213 139.739 109.2 140.756 107.952 140.756H47.7909C46.5419 140.756 45.5294 139.739 45.5294 138.486V137.261C45.5294 136.008 46.5419 134.991 47.7909 134.991ZM0 57.7128C0 54.3247 2.7359 51.5781 6.11363 51.5781H152.475C155.852 51.5781 158.589 54.325 158.589 57.7128V65.0715H0V57.7128Z" fill="#EEE2D8"/>
<path d="M125.309 112.35H143.991C145.04 112.35 145.947 112.563 146.694 112.965C147.44 113.365 148.027 113.953 148.426 114.703C148.826 115.453 149.038 116.362 149.038 117.415V117.431C149.038 118.484 148.826 119.394 148.426 120.143C148.027 120.893 147.44 121.482 146.694 121.882C145.947 122.283 145.04 122.496 143.991 122.496H125.309C124.26 122.496 123.353 122.283 122.607 121.882C121.86 121.482 121.273 120.893 120.874 120.143C120.475 119.394 120.262 118.484 120.262 117.431V117.415C120.262 116.362 120.475 115.453 120.874 114.703C121.273 113.953 121.86 113.365 122.607 112.965C123.353 112.563 124.26 112.35 125.309 112.35Z" fill="#EEE2D8"/>
<path d="M9.0142 61.3911C10.6174 61.3911 11.9171 60.0869 11.9171 58.4779C11.9171 56.8688 10.6174 55.5645 9.0142 55.5645C7.41095 55.5645 6.11133 56.8688 6.11133 58.4779C6.11133 60.0869 7.41095 61.3911 9.0142 61.3911Z" fill="#F74930"/>
<path d="M18.4869 61.3911C20.0901 61.3911 21.3898 60.0869 21.3898 58.4779C21.3898 56.8688 20.0901 55.5645 18.4869 55.5645C16.8837 55.5645 15.584 56.8688 15.584 58.4779C15.584 60.0869 16.8837 61.3911 18.4869 61.3911Z" fill="#FFDF00"/>
<path d="M28.2657 61.3911C29.8689 61.3911 31.1685 60.0869 31.1685 58.4779C31.1685 56.8688 29.8689 55.5645 28.2657 55.5645C26.6624 55.5645 25.3628 56.8688 25.3628 58.4779C25.3628 60.0869 26.6624 61.3911 28.2657 61.3911Z" fill="#00A76F"/>
</g>
<path d="M347.03 220.57H226.149C221.402 220.57 217.526 217.068 217.526 212.779V140.843C217.526 136.555 221.402 133.053 226.149 133.053H347.03C351.776 133.053 355.653 136.555 355.653 140.843V212.744C355.653 217.068 351.776 220.57 347.03 220.57Z" fill="#FBF6F1"/>
<path d="M217.567 132.581C217.567 128.226 221.109 124.695 225.478 124.695H347.703C352.072 124.695 355.614 128.228 355.614 132.581V141.646H217.567V132.581Z" fill="#EEE2D8"/>
<path d="M238.826 173.578H254.055C255.311 173.578 256.33 174.593 256.33 175.845C256.33 177.097 255.311 178.112 254.055 178.112H238.826C237.57 178.112 236.552 177.097 236.552 175.845C236.552 174.593 237.57 173.578 238.826 173.578ZM238.826 198.808H254.055C255.311 198.808 256.33 199.823 256.33 201.075C256.33 202.327 255.311 203.342 254.055 203.342H238.826C237.57 203.342 236.552 202.327 236.552 201.075C236.552 199.823 237.57 198.808 238.826 198.808ZM262.164 173.578H277.393C278.649 173.578 279.667 174.593 279.667 175.845C279.667 177.097 278.649 178.112 277.393 178.112H262.164C260.908 178.112 259.89 177.097 259.89 175.845C259.89 174.593 260.908 173.578 262.164 173.578ZM262.164 198.808H277.393C278.649 198.808 279.667 199.823 279.667 201.075C279.667 202.327 278.649 203.342 277.393 203.342H262.164C260.908 203.342 259.89 202.327 259.89 201.075C259.89 199.823 260.908 198.808 262.164 198.808ZM285.502 173.578H300.73C301.986 173.578 303.005 174.593 303.005 175.845C303.005 177.097 301.986 178.112 300.73 178.112H285.502C284.246 178.112 283.227 177.097 283.227 175.845C283.227 174.593 284.246 173.578 285.502 173.578ZM285.502 198.808H300.73C301.986 198.808 303.005 199.823 303.005 201.075C303.005 202.327 301.986 203.342 300.73 203.342H285.502C284.246 203.342 283.227 202.327 283.227 201.075C283.227 199.823 284.246 198.808 285.502 198.808ZM238.826 160.963H267.108C268.365 160.963 269.383 161.978 269.383 163.23C269.383 164.482 268.365 165.497 267.108 165.497H238.826C237.57 165.497 236.552 164.482 236.552 163.23C236.552 161.978 237.57 160.963 238.826 160.963ZM302.906 160.963H334.748C336.004 160.963 337.022 161.978 337.022 163.23C337.022 164.482 336.004 165.497 334.748 165.497H302.906C301.65 165.497 300.631 164.482 300.631 163.23C300.631 161.978 301.65 160.963 302.906 160.963ZM302.906 186.193H334.748C336.004 186.193 337.022 187.208 337.022 188.46C337.022 189.712 336.004 190.727 334.748 190.727H302.906C301.65 190.727 300.631 189.712 300.631 188.46C300.631 187.208 301.65 186.193 302.906 186.193ZM275.217 186.193H280.953C282.209 186.193 283.227 187.208 283.227 188.46C283.227 189.712 282.209 190.727 280.953 190.727H275.217C273.961 190.727 272.943 189.712 272.943 188.46C272.943 187.208 273.961 186.193 275.217 186.193ZM289.061 160.963H294.797C296.053 160.963 297.072 161.978 297.072 163.23C297.072 164.482 296.053 165.497 294.797 165.497H289.061C287.805 165.497 286.787 164.482 286.787 163.23C286.787 161.978 287.805 160.963 289.061 160.963ZM308.839 173.578H334.748C336.004 173.578 337.022 174.593 337.022 175.845C337.022 177.097 336.004 178.112 334.748 178.112H308.839C307.583 178.112 306.564 177.097 306.564 175.845C306.564 174.593 307.583 173.578 308.839 173.578Z" fill="#EEE2D8"/>
<path d="M238.826 186.193H267.108C268.365 186.193 269.383 187.208 269.383 188.461C269.383 189.712 268.365 190.727 267.108 190.727H238.826C237.57 190.727 236.552 189.712 236.552 188.461C236.552 187.208 237.57 186.193 238.826 186.193ZM289.061 186.193H294.797C296.053 186.193 297.072 187.208 297.072 188.461C297.072 189.712 296.053 190.727 294.797 190.727H289.061C287.805 190.727 286.787 189.712 286.787 188.461C286.787 187.208 287.805 186.193 289.061 186.193Z" fill="#737EF2"/>
<path d="M275.216 160.963H280.952C282.208 160.963 283.226 161.978 283.226 163.23C283.226 164.482 282.208 165.497 280.952 165.497H275.216C273.96 165.497 272.942 164.482 272.942 163.23C272.942 161.978 273.96 160.963 275.216 160.963ZM308.838 198.808H334.747C336.003 198.808 337.021 199.823 337.021 201.075C337.021 202.327 336.003 203.342 334.747 203.342H308.838C307.582 203.342 306.564 202.327 306.564 201.075C306.564 199.823 307.582 198.808 308.838 198.808Z" fill="#FFDF00"/>
<path d="M347.176 166.777L326.868 153.426C326.597 153.619 326.597 153.619 326.353 153.839L333.945 177.155C333.945 177.155 336.927 176.742 339.232 175.421L342.675 179.935C344.037 179.163 344.999 178.556 345.561 178.115C346.124 177.673 346.833 176.968 347.69 175.999L344.247 171.457C345.223 169.888 346.199 168.318 347.176 166.777Z" fill="#FFDF00"/>
<path d="M236.014 311.298H260.62C261.366 311.298 262.019 310.636 262.019 309.841V309.675C262.019 308.88 261.366 308.217 260.558 308.217H237.757C223.945 308.217 210.134 308.217 196.354 308.217H175.202C174.456 308.217 173.802 308.88 173.802 309.675V309.841C173.802 310.636 174.425 311.298 175.202 311.298H205.22L196.946 327.462C191.066 338.988 185.187 350.481 179.277 362.008L169.541 381.02C169.199 381.683 169.478 382.544 170.132 382.941L170.256 383.007C170.91 383.372 171.749 383.173 172.06 382.544L208.486 311.298H232.749L269.174 382.544C269.485 383.173 270.325 383.405 270.978 383.007L271.102 382.941C271.756 382.544 272.036 381.683 271.693 381.02L261.957 362.008C256.078 350.481 250.199 338.988 244.289 327.462L236.014 311.298ZM261.926 298.318V279.06C261.926 264.372 261.926 249.718 261.926 235.064V217.563C261.926 214.818 259.837 212.594 257.26 212.594H206.495C203.918 212.594 201.829 214.818 201.829 217.563V298.375C201.829 301.119 203.918 303.344 206.495 303.344C206.497 303.344 206.498 303.344 206.5 303.344L257.265 303.287C259.84 303.284 261.926 301.06 261.926 298.318Z" fill="#8C837C"/>
<path d="M178.512 296.815C184.435 296.601 189.111 291.628 188.957 285.707C188.802 279.786 183.876 275.159 177.952 275.372L133.729 276.964C127.805 277.177 123.129 282.15 123.283 288.072C123.438 293.992 128.365 298.62 134.288 298.406L178.512 296.815Z" fill="#3A3A3A"/>
<path d="M133.722 276.709L177.946 275.117C184.01 274.898 189.054 279.635 189.212 285.697C189.371 291.759 184.583 296.851 178.518 297.069L134.295 298.661C128.231 298.88 123.186 294.142 123.028 288.08C122.87 282.018 127.658 276.927 133.722 276.709Z" stroke="#3A3A3A" stroke-width="0.886177"/>
<path d="M182.856 354.91L189.394 366.215C192.934 372.334 189.126 380.087 182.116 381.031C178.028 381.581 174.025 379.552 172.055 375.931L165.814 364.46C163.237 359.723 164.991 353.794 169.731 351.219C174.384 348.69 180.206 350.328 182.856 354.91Z" fill="#FDBA90" stroke="#FDBA90" stroke-width="0.886177"/>
<path d="M194.047 370.255C193.715 369.534 192.997 369.07 192.203 369.064L166.658 368.889C165.898 368.884 165.198 369.3 164.84 369.97L162.285 374.754C162.119 375.067 161.873 375.331 161.573 375.52L153.429 380.658C151.702 381.748 152.466 384.416 154.508 384.428L197.481 384.688C198.977 384.698 199.975 383.151 199.351 381.793L194.047 370.255Z" fill="#662D03"/>
<path d="M174.702 370.217L174.553 348.484" stroke="#00F9EA" stroke-opacity="0.28" stroke-width="0.443088" stroke-dasharray="0.89 0.89"/>
<path d="M185.042 359.15L163.96 359.295" stroke="#00F9EA" stroke-opacity="0.28" stroke-width="0.443088" stroke-dasharray="0.89 0.89"/>
<path d="M174.737 348.611L174.782 348.611C180.704 348.57 185.538 353.335 185.579 359.253C185.62 365.172 180.852 370.003 174.929 370.043L174.884 370.044C168.961 370.084 164.127 365.319 164.087 359.401C164.046 353.482 168.814 348.652 174.737 348.611Z" stroke="#00F9EA" stroke-opacity="0.28" stroke-width="0.443088"/>
<path d="M145.189 283.235C142.126 277.708 135.17 275.693 129.623 278.726C124.119 281.736 122.049 288.603 124.974 294.149L160.947 362.373H189.045L145.189 283.235Z" fill="#3A3A3A"/>
<path d="M160.947 362.628H160.792L160.721 362.492L124.748 294.268C121.759 288.597 123.874 281.579 129.501 278.502C135.17 275.401 142.281 277.461 145.413 283.111L189.269 362.249L189.479 362.628H189.045L160.947 362.628Z" stroke="#3A3A3A" stroke-width="0.886177"/>
<path d="M172.911 287.461L188.059 285.714" stroke="#00F9EA" stroke-opacity="0.28" stroke-width="0.443088" stroke-dasharray="0.89 0.89"/>
<path d="M181.445 293.783L179.751 279.109" stroke="#00F9EA" stroke-opacity="0.28" stroke-width="0.443088" stroke-dasharray="0.89 0.89"/>
<path d="M187.944 285.819L187.947 285.851C188.421 289.952 185.478 293.661 181.373 294.134C177.269 294.607 173.558 291.666 173.084 287.564L173.081 287.533C172.607 283.432 175.551 279.723 179.655 279.25C183.759 278.777 187.47 281.718 187.944 285.819Z" stroke="#00F9EA" stroke-opacity="0.28" stroke-width="0.443088"/>
<path d="M211.292 274.772C220.173 273.812 227.978 280.817 227.978 289.746C227.978 298.268 221.197 305.18 212.667 305.352L165.654 306.303C158.397 306.449 152.315 300.735 152.015 293.488C151.729 286.574 156.821 280.66 163.7 279.916L211.292 274.772Z" fill="#3A3A3A"/>
<path d="M165.662 306.559L212.674 305.609C221.342 305.434 228.234 298.41 228.234 289.75C228.234 280.668 220.294 273.543 211.262 274.519L163.67 279.663C156.658 280.421 151.467 286.45 151.759 293.497C152.065 300.884 158.265 306.708 165.662 306.559Z" stroke="#3A3A3A" stroke-width="0.886177"/>
<path d="M114.794 382.002L126.892 358.822L108.774 352.082L92.3701 375.319L114.794 382.002Z" fill="#FDBA90" stroke="#FDBA90" stroke-width="0.886177"/>
<path d="M124.4 370.332C124.951 368.99 123.964 367.517 122.513 367.515L93.7143 367.459C93.4139 367.458 93.1175 367.524 92.8453 367.651L80.0342 373.629C79.9252 373.68 79.8208 373.741 79.7222 373.81L70.2063 380.505C68.576 381.652 69.3851 384.214 71.3793 384.218L117.295 384.306C118.127 384.308 118.876 383.807 119.191 383.038L124.4 370.332Z" fill="#662D03"/>
<path d="M112 376.646L112.253 354.914" stroke="#00F9EA" stroke-opacity="0.28" stroke-width="0.443088" stroke-dasharray="0.89 0.89"/>
<path d="M101.715 365.531L122.795 365.777" stroke="#00F9EA" stroke-opacity="0.28" stroke-width="0.443088" stroke-dasharray="0.89 0.89"/>
<path d="M150.914 287.708C155.056 282.096 162.951 280.872 168.599 284.968C174.389 289.166 175.57 297.313 171.208 302.981L125.41 362.492H95.7324L150.914 287.708Z" fill="#3A3A3A"/>
<path d="M150.914 287.708C155.056 282.096 162.951 280.872 168.599 284.968C174.389 289.166 175.57 297.313 171.208 302.981L125.41 362.492H95.7324L150.914 287.708Z" stroke="#3A3A3A" stroke-width="0.886177"/>
<path d="M154.479 299.852C158.913 303.566 165.521 302.986 169.238 298.555C172.955 294.124 172.375 287.521 167.94 283.806C163.506 280.091 156.899 280.672 153.181 285.103C149.464 289.533 150.045 296.137 154.479 299.852Z" fill="#3A3A3A" stroke="#3A3A3A" stroke-width="0.886177"/>
<path d="M169.307 255.206C169.307 248.437 174.798 242.949 181.572 242.949H206.385C213.159 242.949 218.65 248.437 218.65 255.206V290.58H169.307V255.206Z" fill="#3A3A3A"/>
<path d="M218.65 290.835H218.906V290.58V255.205C218.906 248.295 213.3 242.693 206.385 242.693H181.572C174.657 242.693 169.052 248.296 169.052 255.205V290.58V290.835H169.307H218.65Z" stroke="#3A3A3A" stroke-width="0.886177"/>
<path d="M194.038 275.793V268.248" stroke="#00F9EA" stroke-opacity="0.28" stroke-width="0.443088" stroke-dasharray="0.89 0.89"/>
<path d="M190.638 271.893H197.695" stroke="#00F9EA" stroke-opacity="0.28" stroke-width="0.443088" stroke-dasharray="0.89 0.89"/>
<path d="M197.567 271.885C197.567 269.947 195.995 268.375 194.055 268.375C192.115 268.375 190.542 269.947 190.542 271.885V272.139C190.542 274.078 192.115 275.649 194.055 275.649C195.995 275.649 197.567 274.078 197.567 272.139V271.885Z" stroke="#00F9EA" stroke-opacity="0.28" stroke-width="0.443088"/>
<path d="M162.322 209.643L171.061 273.712H218.738L228.579 207.908C228.823 206.273 227.725 204.739 226.097 204.441L195.616 198.874C195.189 198.796 194.75 198.81 194.329 198.914L164.624 206.255C163.103 206.631 162.11 208.092 162.322 209.643Z" fill="#8D4EA5"/>
<path d="M162.322 209.643L171.061 273.712H218.738L228.579 207.908C228.823 206.273 227.725 204.739 226.097 204.441L195.616 198.874C195.189 198.796 194.75 198.81 194.329 198.914L164.624 206.255C163.103 206.631 162.11 208.092 162.322 209.643Z" fill="black" fill-opacity="0.2"/>
<path d="M170.808 273.746L170.838 273.967H171.061H218.738H218.958L218.991 273.749L228.831 207.946C229.097 206.174 227.907 204.512 226.143 204.19L195.662 198.623C195.199 198.538 194.724 198.552 194.267 198.665L164.563 206.007C162.915 206.414 161.84 207.997 162.069 209.677L170.808 273.746Z" stroke="#8D4EA5" stroke-width="0.886177"/>
<path d="M170.808 273.746L170.838 273.967H171.061H218.738H218.958L218.991 273.749L228.831 207.946C229.097 206.174 227.907 204.512 226.143 204.19L195.662 198.623C195.199 198.538 194.724 198.552 194.267 198.665L164.563 206.007C162.915 206.414 161.84 207.997 162.069 209.677L170.808 273.746Z" stroke="black" stroke-opacity="0.2" stroke-width="0.886177"/>
<path d="M169.476 206.567C174.021 208.877 175.932 214.449 173.745 219.012C171.558 223.574 166.101 225.4 161.556 223.091L127.351 205.705C122.807 203.395 120.895 197.823 123.082 193.261C125.269 188.698 130.726 186.872 135.271 189.182L169.476 206.567Z" fill="#FDBA90"/>
<path d="M161.666 222.86L127.461 205.474C123.043 203.229 121.185 197.812 123.311 193.376C125.437 188.94 130.743 187.164 135.161 189.41L169.366 206.796C173.785 209.042 175.643 214.458 173.517 218.894C171.39 223.33 166.085 225.105 161.666 222.86Z" stroke="#FDBA90" stroke-width="0.886177"/>
<mask id="mask1_896_15227" style="mask-type:alpha" maskUnits="userSpaceOnUse" x="121" y="187" width="54" height="38">
<path d="M161.668 222.86L127.463 205.474C123.045 203.229 121.187 197.812 123.313 193.376C125.439 188.94 130.745 187.164 135.163 189.41L169.368 206.795C173.787 209.041 175.645 214.458 173.519 218.894C171.392 223.33 166.087 225.105 161.668 222.86Z" fill="#F8DAC3" stroke="#F8DAC3" stroke-width="0.886177"/>
</mask>
<g mask="url(#mask1_896_15227)">
<path d="M175.258 219.555C177.706 214.495 175.757 208.424 170.904 205.996L149.318 195.043L142.489 214.22L162.039 224.323C166.892 226.75 172.81 224.616 175.258 219.555Z" fill="#ED9D63"/>
</g>
<path d="M172.122 205.922L172.119 205.921L151.649 196.068L151.419 195.957L151.311 196.187L142.882 214.164L142.776 214.39L143.001 214.504L163.034 224.707L163.036 224.707C168.228 227.305 174.471 225.206 176.98 220.019C179.489 214.831 177.315 208.52 172.122 205.922Z" fill="#8D4EA5"/>
<path d="M172.122 205.922L172.119 205.921L151.649 196.068L151.419 195.957L151.311 196.187L142.882 214.164L142.776 214.39L143.001 214.504L163.034 224.707L163.036 224.707C168.228 227.305 174.471 225.206 176.98 220.019C179.489 214.831 177.315 208.52 172.122 205.922Z" fill="black" fill-opacity="0.2"/>
<path d="M172.122 205.922L172.119 205.921L151.649 196.068L151.419 195.957L151.311 196.187L142.882 214.164L142.776 214.39L143.001 214.504L163.034 224.707L163.036 224.707C168.228 227.305 174.471 225.206 176.98 220.019C179.489 214.831 177.315 208.52 172.122 205.922Z" stroke="#8D4EA5" stroke-width="0.886177"/>
<path d="M172.122 205.922L172.119 205.921L151.649 196.068L151.419 195.957L151.311 196.187L142.882 214.164L142.776 214.39L143.001 214.504L163.034 224.707L163.036 224.707C168.228 227.305 174.471 225.206 176.98 220.019C179.489 214.831 177.315 208.52 172.122 205.922Z" stroke="black" stroke-opacity="0.2" stroke-width="0.886177"/>
<path d="M158.591 162.18L169.997 177.077L138.043 201.727C134.379 204.554 129.136 203.806 126.258 200.048C123.381 196.29 123.932 190.907 127.496 187.953L158.591 162.18Z" fill="#FDBA90"/>
<path d="M127.642 188.136L158.557 162.512L169.673 177.03L137.903 201.539C134.339 204.288 129.237 203.561 126.438 199.904C123.638 196.248 124.174 191.011 127.642 188.136Z" stroke="#FDBA90" stroke-width="0.804693"/>
<path d="M154.388 164.892C151.607 169.378 152.096 173.29 156.415 177.394C160.735 181.498 164.487 181.34 170.063 177.316C174.167 174.355 179.267 170.119 180.306 166.944C180.723 165.669 180.6 163.982 179.553 163.478C178.507 162.973 177.758 163.955 177.029 165.162C176.204 166.526 174.786 168.093 173.638 167.513C172.961 167.17 172.723 165.7 173.229 164.777C174.06 163.262 174.96 162.166 176.205 160.867C177.056 159.979 177.837 159.201 178.405 158.646C178.688 158.369 178.917 158.147 179.075 157.996L179.302 157.781C180.32 156.74 180.271 155.445 179.536 154.623C178.124 153.045 176.684 154.345 176.487 154.537C176.736 154.288 176.933 154.093 177.07 153.959C177.14 153.89 177.229 153.803 177.229 153.803C177.998 153.063 177.937 152.039 177.237 151.251C176.536 150.464 175.419 150.496 174.803 150.85C174.187 151.205 173.451 151.914 173.451 151.914C172.232 150.11 170.585 150.257 169.779 150.791C168.974 151.326 168.072 152.159 166.947 153.375C166.778 153.557 166.664 153.684 166.519 153.846C166.457 153.52 166.306 153.206 166.067 152.944C165.405 152.221 164.527 152.404 163.741 153C162.955 153.596 160.509 156.03 159.229 157.742C157.947 159.455 157.171 160.407 154.388 164.892Z" fill="#FDBA90"/>
<path d="M166.519 153.846C166.457 153.52 166.306 153.206 166.067 152.944C165.405 152.221 164.527 152.404 163.741 153C162.955 153.596 160.509 156.03 159.229 157.742C157.947 159.455 157.171 160.407 154.388 164.892C151.607 169.378 152.096 173.29 156.415 177.394C160.735 181.498 164.487 181.34 170.063 177.316C174.167 174.355 179.267 170.119 180.306 166.944C180.723 165.669 180.6 163.982 179.553 163.478C178.507 162.973 177.758 163.955 177.029 165.162C176.204 166.526 174.786 168.093 173.638 167.513C172.961 167.17 172.723 165.7 173.229 164.777C174.06 163.262 174.96 162.166 176.205 160.867C177.056 159.979 177.837 159.201 178.405 158.646C178.688 158.369 178.917 158.147 179.075 157.996L179.302 157.781C180.32 156.74 180.271 155.445 179.536 154.623C178.016 152.924 176.463 154.561 176.463 154.561M166.519 153.846C166.664 153.684 166.778 153.557 166.947 153.375C168.072 152.159 168.974 151.326 169.779 150.791C170.585 150.257 172.232 150.11 173.451 151.914M166.519 153.846C165.335 155.132 163.249 157.505 162.815 158.223M176.463 154.561C176.724 154.3 176.929 154.097 177.07 153.959C177.14 153.89 177.229 153.803 177.229 153.803C177.998 153.063 177.937 152.039 177.237 151.251C176.536 150.464 175.419 150.496 174.803 150.85C174.187 151.205 173.451 151.914 173.451 151.914M176.463 154.561C175.944 155.082 175.21 155.83 174.359 156.733C174.359 156.733 171.749 159.562 170.377 161.219M176.463 154.561C176.463 154.561 176.258 154.772 176.174 154.852C176.007 155.012 175.819 155.227 175.525 155.515C174.936 156.091 173.276 157.898 173.276 157.898M173.451 151.914C173.451 151.914 171.475 153.787 171.224 154.038M173.451 151.914C173.451 151.914 172.097 153.219 171.224 154.038M171.224 154.038C169.525 155.766 168.437 156.989 166.899 158.869" stroke="#FDBA90" stroke-width="0.804694" stroke-linecap="round" stroke-linejoin="round"/>
<path d="M166.303 153.697C165.137 154.789 162.827 157.178 162.917 157.994M173.057 152.273C171.04 153.943 166.876 157.758 166.361 159.666M169.171 162.706C170.406 160.918 173.687 156.731 176.929 154.281" stroke="#ED9D63" stroke-width="0.804694" stroke-linecap="round" stroke-linejoin="round"/>
<path d="M162.937 220.318L169.555 269.159" stroke="white" stroke-width="0.886177" stroke-linecap="round" stroke-linejoin="round"/>
<path d="M233.17 214.677C231.983 209.74 227.008 206.657 222.056 207.792C217.105 208.926 214.053 213.847 215.24 218.784L224.17 255.943C225.356 260.88 230.332 263.963 235.284 262.828C240.235 261.694 243.287 256.773 242.1 251.836L233.17 214.677Z" fill="#FDBA90"/>
<path d="M215.489 218.726L224.419 255.885C225.572 260.685 230.41 263.682 235.224 262.58C240.038 261.477 243.005 256.692 241.852 251.892L232.921 214.733C231.768 209.933 226.93 206.936 222.116 208.039C217.302 209.141 214.335 213.926 215.489 218.726Z" stroke="#FDBA90" stroke-width="0.886177"/>
<mask id="mask2_896_15227" style="mask-type:alpha" maskUnits="userSpaceOnUse" x="214" y="207" width="29" height="57">
<path d="M215.489 218.726L224.419 255.885C225.572 260.685 230.41 263.682 235.224 262.58C240.038 261.476 243.005 256.692 241.852 251.892L232.921 214.733C231.768 209.933 226.93 206.936 222.116 208.039C217.302 209.141 214.335 213.926 215.489 218.726Z" fill="#F8DAC3" stroke="#F8DAC3" stroke-width="0.886177"/>
</mask>
<g mask="url(#mask2_896_15227)">
<path d="M221.874 206.708C227.371 205.428 232.867 208.845 234.151 214.339L239.621 235.122L218.693 239.345L214.244 218.973C212.961 213.478 216.377 207.987 221.874 206.708Z" fill="#ED9D63"/>
</g>
<path d="M234.413 212.237C233.097 206.607 227.464 203.107 221.83 204.418C216.196 205.729 212.695 211.357 214.009 216.988L234.413 212.237ZM234.413 212.237L239.518 232.09L239.58 232.332L239.34 232.399L219.151 238.049L218.893 238.121L218.833 237.86L214.009 216.989L234.413 212.237Z" fill="#8D4EA5"/>
<path d="M234.413 212.237C233.097 206.607 227.464 203.107 221.83 204.418C216.196 205.729 212.695 211.357 214.009 216.988L234.413 212.237ZM234.413 212.237L239.518 232.09L239.58 232.332L239.34 232.399L219.151 238.049L218.893 238.121L218.833 237.86L214.009 216.989L234.413 212.237Z" fill="black" fill-opacity="0.2"/>
<path d="M234.413 212.237C233.097 206.607 227.464 203.107 221.83 204.418C216.196 205.729 212.695 211.357 214.009 216.988L234.413 212.237ZM234.413 212.237L239.518 232.09L239.58 232.332L239.34 232.399L219.151 238.049L218.893 238.121L218.833 237.86L214.009 216.989L234.413 212.237Z" stroke="#8D4EA5" stroke-width="0.886177"/>
<path d="M234.413 212.237C233.097 206.607 227.464 203.107 221.83 204.418C216.196 205.729 212.695 211.357 214.009 216.988L234.413 212.237ZM234.413 212.237L239.518 232.09L239.58 232.332L239.34 232.399L219.151 238.049L218.893 238.121L218.833 237.86L214.009 216.989L234.413 212.237Z" stroke="black" stroke-opacity="0.2" stroke-width="0.886177"/>
<path d="M186.47 257.681L187.563 275.23L233.692 270.323C238 269.865 241.128 265.972 240.644 261.667C240.185 257.572 236.61 254.57 232.497 254.826L186.47 257.681Z" fill="#FDBA90"/>
<path d="M232.511 255.081L186.741 257.92L187.801 274.948L233.667 270.069C237.833 269.626 240.858 265.861 240.39 261.698C239.946 257.737 236.489 254.834 232.511 255.081Z" stroke="#FDBA90" stroke-width="0.886177"/>
<path d="M186.05 258.059C190.493 258.037 191.82 260.363 192.395 263.879C192.971 267.394 192.127 272.175 187.264 273.814C182.053 275.57 170.625 273.699 167.168 273.368C165.779 273.234 163.806 272.875 164.099 272.138C163.584 272.337 159.822 271.834 159.822 271.834C157.974 271.856 156.673 271.268 156.477 270.614C156.122 269.438 158.247 269.151 158.802 269.096C158.394 269.1 157.827 268.861 157.827 268.861C156.654 269.082 155.995 268.261 155.803 267.637C155.612 267.013 156.149 266.35 156.883 266.105C157.616 265.859 158.435 265.784 158.435 265.784C157.728 264.574 159 263.685 160.02 263.384C161.041 263.084 162.385 262.814 164.214 262.53C164.459 262.492 164.636 262.466 164.841 262.436L164.918 262.425C164.681 262.295 164.276 262.568 164.217 262.356C164.054 261.773 165.219 261.157 166.278 260.885C167.337 260.614 174.186 258.337 176.552 258.108C178.919 257.879 181.608 258.083 186.05 258.059Z" fill="#FDBA90"/>
<path d="M164.918 262.425C164.681 262.295 164.276 262.568 164.217 262.356C164.054 261.773 165.219 261.157 166.278 260.885C167.337 260.614 174.186 258.337 176.552 258.108C178.919 257.879 181.608 258.083 186.05 258.059C190.493 258.037 191.82 260.363 192.395 263.879C192.971 267.394 192.127 272.175 187.264 273.814C182.053 275.57 170.625 273.699 167.168 273.368C165.779 273.234 163.806 272.875 164.099 272.138C163.584 272.337 159.822 271.834 159.822 271.834C157.974 271.856 156.673 271.268 156.477 270.614C156.07 269.264 158.933 269.085 158.933 269.085M164.918 262.425C164.678 262.46 164.489 262.488 164.214 262.53C162.385 262.814 161.041 263.084 160.02 263.384C159 263.685 157.728 264.574 158.435 265.784M164.918 262.425C166.85 262.127 170.343 261.635 171.264 261.597M158.933 269.085C158.527 269.157 157.827 268.861 157.827 268.861C156.654 269.082 155.995 268.261 155.803 267.637C155.612 267.013 156.149 266.35 156.883 266.105C157.616 265.859 158.435 265.784 158.435 265.784M158.933 269.085C159.743 268.942 160.898 268.744 162.267 268.524C162.267 268.524 166.519 267.867 168.9 267.571M158.933 269.085C158.933 269.085 159.258 269.03 159.385 269.006C159.639 268.958 159.955 268.913 160.407 268.83C161.313 268.664 164.024 268.249 164.024 268.249M158.435 265.784C158.435 265.784 161.422 265.21 161.812 265.14M158.435 265.784C158.435 265.784 160.5 265.396 161.812 265.14M161.812 265.14C164.482 264.679 166.292 264.418 168.981 264.093" stroke="#FDBA90" stroke-width="0.886177" stroke-linecap="round" stroke-linejoin="round"/>
<path d="M178.392 257.665C185.218 257.095 188.991 258.726 192.519 259.606" stroke="#ED9D63" stroke-width="0.886177" stroke-linecap="round" stroke-linejoin="round"/>
<path d="M158.622 269.296C161.158 268.794 167.426 267.972 170.969 268.08" stroke="#ED9D63" stroke-width="0.886177" stroke-linecap="round" stroke-linejoin="round"/>
<path d="M159.389 265.767C162.282 264.668 169.205 263.663 173.236 264.071" stroke="#ED9D63" stroke-width="0.886177" stroke-linecap="round" stroke-linejoin="round"/>
<path d="M185.738 192.159C185.738 187.636 189.408 183.969 193.934 183.969C198.461 183.969 202.131 187.636 202.131 192.159V199.905C202.131 204.428 198.461 208.095 193.934 208.095C189.408 208.095 185.738 204.428 185.738 199.905V192.159Z" fill="#FDBA90"/>
<path d="M201.875 192.16V199.906C201.875 204.288 198.32 207.841 193.934 207.841C189.549 207.841 185.994 204.288 185.994 199.906V192.16C185.994 187.777 189.549 184.225 193.934 184.225C198.32 184.225 201.875 187.777 201.875 192.16Z" stroke="#FDBA90" stroke-width="0.886177"/>
<mask id="mask3_896_15227" style="mask-type:alpha" maskUnits="userSpaceOnUse" x="185" y="185" width="18" height="25">
<path d="M201.875 193.691V201.436C201.875 205.819 198.32 209.372 193.934 209.372C189.549 209.372 185.994 205.819 185.994 201.436V193.691C185.994 189.308 189.549 185.756 193.934 185.756C198.32 185.756 201.875 189.308 201.875 193.691Z" fill="#F8DAC3" stroke="#F8DAC3" stroke-width="0.886177"/>
</mask>
<g mask="url(#mask3_896_15227)">
<path d="M174.995 161.075C174.995 151.896 182.441 144.455 191.627 144.455C200.812 144.455 208.258 151.896 208.258 161.075V179.738C208.258 188.917 200.812 196.358 191.627 196.358C182.441 196.358 174.995 188.917 174.995 179.738V161.075Z" fill="#ED9D63"/>
</g>
<path d="M169.078 161.691C169.102 161.847 169.133 162.001 169.169 162.154C169.36 162.942 169.669 163.698 170.083 164.403L170.106 164.439C170.263 164.705 170.432 164.969 170.614 165.234C171.098 165.914 171.626 166.564 172.195 167.18L172.535 167.543C172.764 167.789 172.996 168.03 173.229 168.269C171.998 168.004 170.808 169.103 170.589 170.289C170.371 171.476 170.865 172.673 171.477 173.732C172.546 175.607 174.088 176.855 175.445 178.483C176.462 179.696 177.026 181.131 178.134 182.291L178.217 182.378C181.144 185.323 185.765 186.012 189.612 187.27C190.993 187.725 197.259 195.21 204.969 192.371C206.687 191.739 207.446 191.105 209.295 189.407C215.928 183.372 218.25 172.437 214.303 164.439C210.061 155.832 201.015 149.09 194.473 148.086C187.93 147.083 184.985 146.81 182.266 148.086C179.546 149.363 178.192 153.322 180.447 155.256C179.029 154.227 177.265 153.736 175.492 153.876C173.855 153.974 172.31 154.64 171.147 155.748C170.226 156.635 169.564 157.738 169.227 158.947C168.977 159.841 168.926 160.776 169.078 161.691Z" fill="#934103"/>
<path d="M209.349 181.449C206.949 181.449 205.004 179.506 205.004 177.108C205.004 174.711 206.949 172.768 209.349 172.768C211.748 172.768 213.692 174.711 213.692 177.108C213.692 179.506 211.748 181.449 209.349 181.449Z" fill="#FDBA90" stroke="#FDBA90" stroke-width="0.886177"/>
<path d="M178.522 181.449C176.123 181.449 174.179 179.506 174.179 177.108C174.179 174.711 176.123 172.768 178.522 172.768C180.922 172.768 182.867 174.711 182.867 177.108C182.867 179.506 180.922 181.449 178.522 181.449Z" fill="#FDBA90" stroke="#FDBA90" stroke-width="0.886177"/>
<path d="M176.387 175.623C176.81 176.014 177.636 176.983 177.561 177.734" stroke="#662D03" stroke-width="0.886177" stroke-linecap="round" stroke-linejoin="round"/>
<path d="M211.554 175.84C210.82 175.84 210.305 177.2 210.38 177.951" stroke="#662D03" stroke-width="0.886177" stroke-linecap="round" stroke-linejoin="round"/>
<path d="M179.014 167.715C179.014 157.424 189.198 150.226 198.908 153.656C204.87 155.762 208.857 161.395 208.857 167.715V180.568C208.857 188.804 202.176 195.479 193.935 195.479C185.694 195.479 179.014 188.804 179.014 180.568V167.715Z" fill="#FDBA90"/>
<path d="M208.601 167.715V180.568C208.601 188.663 202.035 195.224 193.935 195.224C185.836 195.224 179.27 188.663 179.27 180.568V167.715C179.27 157.6 189.28 150.526 198.822 153.897C204.683 155.966 208.601 161.503 208.601 167.715Z" stroke="#FDBA90" stroke-width="0.886177"/>
<mask id="mask4_896_15227" style="mask-type:alpha" maskUnits="userSpaceOnUse" x="160" y="138" width="57" height="42">
<path d="M178.97 172.561C178.97 172.561 178.851 167.964 179.189 166.655C179.819 164.214 181.891 163.277 182.415 162.545C186.676 167.571 196.53 172.513 204.55 170.641C204.55 173.602 206.028 179.112 207.369 179.112C208.71 179.112 209.212 172.114 210.959 172.513C214.404 167.248 221.115 158.625 210.959 152.237L211.793 151.047L213.301 150.147C212.062 148.768 207.435 148.126 206.187 149.968C206.187 149.968 204.008 143.933 194.405 139.786C183.29 134.988 166.906 148.567 166.906 148.567L160.812 160.045L173.902 177.005C173.902 177.005 173.703 174.618 176.291 173.076C177.494 172.359 178.97 172.561 178.97 172.561Z" fill="#D9D9D9"/>
</mask>
<g mask="url(#mask4_896_15227)">
<path d="M168.993 161.015C169.017 161.174 169.048 161.331 169.083 161.488C169.273 162.293 169.578 163.066 169.989 163.785L170.011 163.823C170.168 164.094 170.335 164.365 170.515 164.635C170.995 165.33 171.518 165.994 172.082 166.624L172.418 166.995C172.646 167.247 172.876 167.493 173.106 167.736C171.887 167.466 170.707 168.588 170.491 169.801C170.274 171.013 170.764 172.236 171.37 173.318C172.429 175.234 173.958 176.509 175.302 178.173C176.31 179.412 176.869 180.879 177.967 182.064L178.049 182.154C180.949 185.162 185.528 185.866 189.34 187.151C190.709 187.617 205.558 191.784 205.558 192.693C205.558 192.495 207.012 191.07 208.844 189.335C215.417 183.168 217.718 171.995 213.807 163.823C209.604 155.029 201.347 148.995 194.157 147.114C186.967 145.233 184.756 145.81 182.061 147.114C179.366 148.418 178.024 152.464 180.259 154.439C178.854 153.388 177.105 152.886 175.349 153.029C173.726 153.13 172.196 153.81 171.044 154.943C170.131 155.849 169.474 156.976 169.141 158.211C168.893 159.125 168.842 160.08 168.993 161.015Z" fill="#934103"/>
<path d="M168.925 160.702C168.931 160.976 168.927 161.238 168.967 161.402C169.084 162.243 169.479 163.446 169.655 163.729C169.83 164.012 170.289 164.823 170.492 165.106C171.025 165.837 171.805 166.76 171.805 166.76C171.805 166.76 172.451 167.494 172.709 167.748C171.925 167.595 170.569 168.756 170.326 170.025C170.083 171.295 170.633 172.575 171.313 173.708C172.504 175.714 174.221 177.048 175.732 178.791C176.864 180.088 177.491 181.624 178.725 182.865C180.157 181.296 181.07 179.382 181.353 177.349C181.857 173.592 184.705 170.89 184.844 167.087C184.104 163.767 182.611 162.864 181.054 160.928C179.802 159.506 178.355 158.24 176.747 157.163C175.491 156.401 173.876 156.282 172.378 156.478C171.072 156.642 169.742 157.154 169.298 157.748C169.019 158.704 168.895 159.539 168.925 160.702Z" fill="#662D03"/>
</g>
<path d="M179.141 176.238C179.141 175.511 178.955 170.163 178.955 168.709C178.955 164.934 182.229 162.529 182.229 162.529" stroke="#662D03" stroke-width="0.886177" stroke-linecap="round" stroke-linejoin="round"/>
<path d="M196.911 188.321C195.074 187.487 192.992 187.344 191.052 187.921" stroke="#662D03" stroke-width="0.886177" stroke-linecap="round"/>
<path d="M192.001 177.143C190.55 178.678 190.328 183.976 190.328 183.976H193.031" stroke="#662D03" stroke-width="0.886177" stroke-linecap="round" stroke-linejoin="round"/>
<path d="M203.672 172.512C201.07 173.047 198.394 173.123 195.765 172.735" stroke="#662D03" stroke-width="0.886177" stroke-linecap="round"/>
<path d="M189.46 172.512C186.858 173.047 184.181 173.123 181.553 172.735" stroke="#662D03" stroke-width="0.886177" stroke-linecap="round"/>
<path d="M199.23 175.004C197.516 175.004 197.516 178.56 199.23 178.579H199.309C201.026 178.579 201.026 175.023 199.309 175.004H199.233H199.23Z" fill="#662D03"/>
<path d="M185.437 175.004C183.722 175.025 183.722 178.559 185.437 178.579H185.516C187.23 178.579 187.23 175.025 185.516 175.004H185.437Z" fill="#662D03"/>
<path d="M178.219 205.206L183.551 218.71L194.041 212.417L203.978 218.71L209.311 202.404" stroke="#FCEFE6" stroke-width="0.886177" stroke-linecap="round" stroke-linejoin="round"/>
<path d="M97.9624 361.236L153.46 282.447C155.084 279.925 160.139 277.51 166.328 278.078" stroke="white" stroke-width="0.886177" stroke-linecap="round" stroke-linejoin="round"/>
<path d="M169.867 306.551L141.099 346.1" stroke="white" stroke-width="0.886177" stroke-linecap="round" stroke-linejoin="round"/>
<path d="M215.104 223.891L219.92 237.722L231.252 234.048" stroke="#FCEFE6" stroke-width="0.886177" stroke-linecap="round" stroke-linejoin="round"/>
<path d="M25.9423 274.913V386.605C25.9423 387.813 24.8737 388.792 23.5554 388.792C22.2371 388.792 21.1685 387.813 21.1685 386.605V272.882C21.1685 271.83 21.9798 270.951 23.0606 270.742C23.3664 270.612 23.7074 270.539 24.0669 270.539H259.199C260.517 270.539 261.586 271.518 261.586 272.726C261.586 273.934 260.517 274.913 259.199 274.913H25.9423Z" fill="#8C837C"/>
<path d="M84.2803 265.596L87.8523 251.305H61.0392C58.2533 251.305 55.9501 249.206 55.9501 246.664V206.187C55.9135 203.609 58.1789 201.51 61.0018 201.51H142.604C145.39 201.51 147.693 203.609 147.693 206.15V246.664C147.693 249.206 145.39 251.305 142.604 251.305H109.928L108.453 265.596H118.128C119.613 265.596 120.765 266.775 120.765 268.211C120.765 269.684 119.576 270.826 118.128 270.826H76.7136C75.228 270.826 74.0764 269.648 74.0764 268.211C74.0026 266.775 75.228 265.596 76.7136 265.596H84.2803Z" fill="#3A3A3A"/>
<path fill-rule="evenodd" clip-rule="evenodd" d="M111.035 240.889L111.146 265.633H108.482L111.035 240.889Z" fill="white"/>
<path d="M161.011 116.955H123.253C119.916 116.955 117.211 119.659 117.211 122.994V142.018C117.211 145.353 119.916 148.057 123.253 148.057H161.011L167.696 150.136C168.672 150.44 169.588 149.527 169.289 148.551L167.053 141.271V122.994C167.053 119.659 164.348 116.955 161.011 116.955Z" fill="#8D4EA5"/>
<path d="M161.011 116.955H123.253C119.916 116.955 117.211 119.659 117.211 122.994V142.018C117.211 145.353 119.916 148.057 123.253 148.057H161.011L167.696 150.136C168.672 150.44 169.588 149.527 169.289 148.551L167.053 141.271V122.994C167.053 119.659 164.348 116.955 161.011 116.955Z" fill="black" fill-opacity="0.2"/>
<path d="M127.616 137.161C126.865 137.161 126.206 136.982 125.639 136.625C125.075 136.268 124.635 135.768 124.317 135.126C124.003 134.483 123.846 133.733 123.846 132.874C123.846 132.008 124.003 131.252 124.317 130.606C124.635 129.96 125.075 129.459 125.639 129.101C126.206 128.744 126.865 128.565 127.616 128.565C128.367 128.565 129.024 128.744 129.587 129.101C130.154 129.459 130.595 129.96 130.909 130.606C131.227 131.252 131.385 132.008 131.385 132.874C131.385 133.733 131.227 134.483 130.909 135.126C130.595 135.768 130.154 136.268 129.587 136.625C129.024 136.982 128.367 137.161 127.616 137.161ZM127.616 136.013C128.186 136.013 128.655 135.867 129.024 135.575C129.392 135.283 129.665 134.898 129.842 134.422C130.019 133.946 130.107 133.43 130.107 132.874C130.107 132.318 130.019 131.8 129.842 131.321C129.665 130.841 129.392 130.453 129.024 130.157C128.655 129.861 128.186 129.713 127.616 129.713C127.045 129.713 126.576 129.861 126.207 130.157C125.839 130.453 125.567 130.841 125.389 131.321C125.212 131.8 125.124 132.318 125.124 132.874C125.124 133.43 125.212 133.946 125.389 134.422C125.567 134.898 125.839 135.283 126.207 135.575C126.576 135.867 127.045 136.013 127.616 136.013ZM136.717 137.161C135.965 137.161 135.307 136.982 134.74 136.625C134.176 136.268 133.736 135.768 133.418 135.126C133.104 134.483 132.947 133.733 132.947 132.874C132.947 132.008 133.104 131.252 133.418 130.606C133.736 129.96 134.176 129.459 134.74 129.101C135.307 128.744 135.965 128.565 136.717 128.565C137.468 128.565 138.125 128.744 138.688 129.101C139.255 129.459 139.696 129.96 140.01 130.606C140.328 131.252 140.487 132.008 140.487 132.874C140.487 133.733 140.328 134.483 140.01 135.126C139.696 135.768 139.255 136.268 138.688 136.625C138.125 136.982 137.468 137.161 136.717 137.161ZM136.717 136.013C137.287 136.013 137.757 135.867 138.125 135.575C138.494 135.283 138.766 134.898 138.943 134.422C139.12 133.946 139.208 133.43 139.208 132.874C139.208 132.318 139.12 131.8 138.943 131.321C138.766 130.841 138.494 130.453 138.125 130.157C137.757 129.861 137.287 129.713 136.717 129.713C136.146 129.713 135.677 129.861 135.309 130.157C134.94 130.453 134.667 130.841 134.491 131.321C134.314 131.8 134.225 132.318 134.225 132.874C134.225 133.43 134.314 133.946 134.491 134.422C134.667 134.898 134.94 135.283 135.309 135.575C135.677 135.867 136.146 136.013 136.717 136.013ZM142.438 140.106V128.674H143.673V129.995H143.824C143.918 129.85 144.048 129.666 144.214 129.442C144.384 129.215 144.626 129.013 144.94 128.836C145.258 128.655 145.688 128.565 146.23 128.565C146.93 128.565 147.548 128.741 148.082 129.09C148.616 129.44 149.034 129.936 149.333 130.579C149.633 131.221 149.783 131.979 149.783 132.852C149.783 133.733 149.633 134.496 149.333 135.142C149.034 135.784 148.618 136.282 148.087 136.636C147.557 136.986 146.944 137.161 146.251 137.161C145.717 137.161 145.289 137.073 144.967 136.896C144.646 136.715 144.399 136.511 144.225 136.284C144.052 136.053 143.918 135.862 143.824 135.71H143.716V140.106H142.438ZM143.695 132.831C143.695 133.459 143.786 134.013 143.971 134.493C144.155 134.969 144.424 135.342 144.778 135.613C145.132 135.88 145.565 136.013 146.078 136.013C146.612 136.013 147.059 135.873 147.415 135.591C147.777 135.306 148.048 134.924 148.228 134.444C148.413 133.96 148.504 133.422 148.504 132.831C148.504 132.246 148.414 131.719 148.234 131.25C148.057 130.777 147.787 130.404 147.426 130.129C147.069 129.852 146.62 129.713 146.078 129.713C145.558 129.713 145.121 129.845 144.767 130.108C144.413 130.368 144.146 130.732 143.965 131.201C143.785 131.667 143.695 132.21 143.695 132.831ZM157.626 130.536L156.478 130.86C156.405 130.669 156.299 130.483 156.158 130.303C156.021 130.119 155.833 129.968 155.595 129.848C155.356 129.729 155.051 129.67 154.679 129.67C154.17 129.67 153.746 129.787 153.407 130.021C153.07 130.252 152.903 130.547 152.903 130.903C152.903 131.221 153.018 131.472 153.249 131.656C153.481 131.84 153.842 131.993 154.333 132.116L155.568 132.419C156.311 132.599 156.866 132.876 157.231 133.247C157.595 133.615 157.777 134.09 157.777 134.671C157.777 135.147 157.64 135.573 157.366 135.948C157.095 136.324 156.716 136.62 156.228 136.836C155.741 137.053 155.174 137.161 154.528 137.161C153.679 137.161 152.976 136.977 152.421 136.609C151.865 136.241 151.512 135.703 151.365 134.996L152.578 134.693C152.693 135.14 152.912 135.476 153.233 135.699C153.558 135.923 153.982 136.035 154.506 136.035C155.102 136.035 155.575 135.909 155.925 135.656C156.279 135.4 156.456 135.093 156.456 134.736C156.456 134.447 156.355 134.206 156.153 134.011C155.95 133.812 155.64 133.664 155.221 133.567L153.835 133.242C153.072 133.062 152.513 132.782 152.155 132.403C151.801 132.02 151.624 131.543 151.624 130.969C151.624 130.499 151.756 130.085 152.02 129.724C152.287 129.363 152.65 129.079 153.109 128.874C153.57 128.668 154.094 128.565 154.679 128.565C155.502 128.565 156.149 128.746 156.618 129.107C157.092 129.467 157.427 129.944 157.626 130.536ZM161.392 125.902L161.284 133.87H160.027L159.919 125.902H161.392ZM160.655 137.074C160.388 137.074 160.159 136.979 159.967 136.787C159.776 136.596 159.68 136.367 159.68 136.1C159.68 135.833 159.776 135.604 159.967 135.412C160.159 135.222 160.388 135.126 160.655 135.126C160.922 135.126 161.152 135.222 161.343 135.412C161.535 135.604 161.63 135.833 161.63 136.1C161.63 136.277 161.585 136.439 161.495 136.587C161.408 136.735 161.291 136.854 161.142 136.944C160.998 137.031 160.836 137.074 160.655 137.074Z" fill="white"/>
<path d="M195.159 71.2455V64.9829L222.806 21.2697H227.352V30.9702H224.28L203.391 64.0009V64.4919H240.622V71.2455H195.159ZM224.771 84.1384V69.342V66.4259V21.2697H232.021V84.1384H224.771ZM272.654 84.9976C268.025 84.9976 264.083 83.7396 260.827 81.2223C257.571 78.6843 255.083 75.011 253.362 70.2018C251.642 65.3719 250.782 59.5392 250.782 52.704C250.782 45.9097 251.642 40.1078 253.362 35.2985C255.103 30.4687 257.602 26.785 260.858 24.2474C264.134 21.6892 268.066 20.4102 272.654 20.4102C277.241 20.4102 281.163 21.6892 284.419 24.2474C287.696 26.785 290.194 30.4687 291.914 35.2985C293.655 40.1078 294.525 45.9097 294.525 52.704C294.525 59.5392 293.665 65.3719 291.945 70.2018C290.225 75.011 287.736 78.6843 284.481 81.2223C281.224 83.7396 277.282 84.9976 272.654 84.9976ZM272.654 78.2446C277.241 78.2446 280.804 76.0339 283.344 71.6137C285.883 67.1935 287.153 60.89 287.153 52.704C287.153 47.2603 286.569 42.625 285.402 38.798C284.255 34.971 282.596 32.0548 280.426 30.0492C278.275 28.0437 275.685 27.0409 272.654 27.0409C268.107 27.0409 264.554 29.2818 261.994 33.7636C259.434 38.225 258.155 44.5385 258.155 52.704C258.155 58.148 258.728 62.7728 259.875 66.5792C261.022 70.3856 262.67 73.2815 264.821 75.2669C266.991 77.2516 269.603 78.2446 272.654 78.2446ZM304.724 71.2455V64.9829L332.37 21.2697H336.917V30.9702H333.845L312.956 64.0009V64.4919H350.187V71.2455H304.724ZM334.336 84.1384V69.342V66.4259V21.2697H341.586V84.1384H334.336Z" fill="black"/>
<path d="M191.685 101.375C191.626 100.877 191.387 100.491 190.967 100.216C190.548 99.9404 190.033 99.8032 189.424 99.8032C188.978 99.8032 188.588 99.8752 188.254 100.019C187.923 100.163 187.664 100.362 187.478 100.613C187.294 100.866 187.203 101.152 187.203 101.473C187.203 101.741 187.267 101.972 187.394 102.165C187.525 102.356 187.692 102.514 187.896 102.642C188.099 102.767 188.312 102.87 188.534 102.952C188.757 103.03 188.962 103.094 189.149 103.143L190.171 103.418C190.433 103.487 190.725 103.582 191.046 103.703C191.37 103.824 191.68 103.989 191.975 104.199C192.273 104.406 192.519 104.671 192.712 104.994C192.905 105.319 193.002 105.717 193.002 106.188C193.002 106.732 192.859 107.223 192.574 107.662C192.293 108.101 191.88 108.449 191.336 108.708C190.795 108.966 190.138 109.096 189.365 109.096C188.644 109.096 188.02 108.98 187.493 108.747C186.968 108.515 186.555 108.191 186.254 107.775C185.956 107.359 185.787 106.876 185.748 106.326H187.006C187.039 106.706 187.166 107.02 187.389 107.269C187.615 107.514 187.9 107.698 188.245 107.819C188.592 107.936 188.965 107.996 189.365 107.996C189.831 107.996 190.248 107.92 190.618 107.77C190.988 107.616 191.282 107.403 191.498 107.131C191.715 106.856 191.822 106.536 191.822 106.168C191.822 105.835 191.729 105.563 191.542 105.353C191.356 105.144 191.11 104.973 190.805 104.842C190.501 104.712 190.171 104.597 189.817 104.499L188.579 104.145C187.792 103.919 187.17 103.596 186.711 103.177C186.252 102.758 186.023 102.21 186.023 101.532C186.023 100.969 186.175 100.477 186.48 100.059C186.788 99.6361 187.201 99.3087 187.719 99.0759C188.239 98.8402 188.821 98.7227 189.463 98.7227C190.112 98.7227 190.689 98.8391 191.193 99.0713C191.698 99.3007 192.097 99.6148 192.393 100.014C192.691 100.414 192.848 100.867 192.864 101.375H191.685ZM203.499 103.89C203.499 104.951 203.308 105.868 202.924 106.64C202.541 107.413 202.015 108.009 201.346 108.428C200.678 108.847 199.914 109.057 199.056 109.057C198.198 109.057 197.434 108.847 196.766 108.428C196.097 108.009 195.571 107.413 195.188 106.64C194.804 105.868 194.613 104.951 194.613 103.89C194.613 102.829 194.804 101.912 195.188 101.139C195.571 100.366 196.097 99.7704 196.766 99.3514C197.434 98.9318 198.198 98.7227 199.056 98.7227C199.914 98.7227 200.678 98.9318 201.346 99.3514C202.015 99.7704 202.541 100.366 202.924 101.139C203.308 101.912 203.499 102.829 203.499 103.89ZM202.32 103.89C202.32 103.018 202.174 102.284 201.882 101.684C201.594 101.085 201.202 100.631 200.707 100.324C200.216 100.016 199.665 99.862 199.056 99.862C198.447 99.862 197.894 100.016 197.4 100.324C196.908 100.631 196.517 101.085 196.225 101.684C195.936 102.284 195.792 103.018 195.792 103.89C195.792 104.761 195.936 105.496 196.225 106.095C196.517 106.694 196.908 107.148 197.4 107.455C197.894 107.763 198.447 107.917 199.056 107.917C199.665 107.917 200.216 107.763 200.707 107.455C201.202 107.148 201.594 106.694 201.882 106.095C202.174 105.496 202.32 104.761 202.32 103.89ZM205.549 108.919V98.8598H208.95C209.736 98.8598 210.382 98.9941 210.887 99.2626C211.391 99.5283 211.764 99.8931 212.007 100.358C212.249 100.823 212.371 101.352 212.371 101.945C212.371 102.537 212.249 103.063 212.007 103.521C211.764 103.98 211.393 104.34 210.891 104.602C210.39 104.86 209.749 104.99 208.97 104.99H206.217V103.89H208.93C209.467 103.89 209.9 103.811 210.228 103.654C210.559 103.497 210.798 103.274 210.945 102.986C211.096 102.694 211.171 102.348 211.171 101.945C211.171 101.542 211.096 101.19 210.945 100.888C210.795 100.588 210.554 100.355 210.223 100.191C209.892 100.024 209.455 99.9404 208.911 99.9404H206.768V108.919H205.549ZM210.287 104.4L212.764 108.919H211.348L208.911 104.4H210.287ZM214.402 108.919V98.8598H217.803C218.589 98.8598 219.235 98.9941 219.739 99.2626C220.244 99.5283 220.618 99.8931 220.86 100.358C221.103 100.823 221.224 101.352 221.224 101.945C221.224 102.537 221.103 103.063 220.86 103.521C220.618 103.98 220.246 104.34 219.744 104.602C219.243 104.86 218.603 104.99 217.822 104.99H215.07V103.89H217.783C218.321 103.89 218.753 103.811 219.081 103.654C219.412 103.497 219.651 103.274 219.799 102.986C219.949 102.694 220.025 102.348 220.025 101.945C220.025 101.542 219.949 101.19 219.799 100.888C219.648 100.588 219.407 100.355 219.076 100.191C218.745 100.024 218.307 99.9404 217.763 99.9404H215.621V108.919H214.402ZM219.14 104.4L221.617 108.919H220.201L217.763 104.4H219.14ZM222.052 98.8598H223.448L226.24 103.555H226.357L229.149 98.8598H230.545L226.908 104.774V108.919H225.689V104.774L222.052 98.8598ZM233.498 98.8598L233.399 106.09H232.259L232.16 98.8598H233.498ZM232.829 108.997C232.587 108.997 232.378 108.911 232.205 108.738C232.031 108.564 231.944 108.356 231.944 108.113C231.944 107.871 232.031 107.663 232.205 107.49C232.378 107.316 232.587 107.229 232.829 107.229C233.072 107.229 233.28 107.316 233.453 107.49C233.627 107.663 233.714 107.871 233.714 108.113C233.714 108.274 233.673 108.421 233.591 108.555C233.512 108.69 233.406 108.798 233.271 108.88C233.14 108.958 232.993 108.997 232.829 108.997ZM239.866 108.919V98.8598H243.267C244.057 98.8598 244.702 99.0027 245.204 99.2874C245.709 99.5692 246.082 99.9507 246.325 100.432C246.567 100.913 246.688 101.45 246.688 102.043C246.688 102.636 246.567 103.174 246.325 103.659C246.085 104.143 245.715 104.53 245.214 104.818C244.712 105.103 244.07 105.245 243.287 105.245H240.849V104.165H243.247C243.788 104.165 244.222 104.071 244.55 103.885C244.878 103.698 245.115 103.446 245.263 103.128C245.413 102.807 245.489 102.446 245.489 102.043C245.489 101.64 245.413 101.28 245.263 100.962C245.115 100.645 244.876 100.396 244.545 100.216C244.214 100.033 243.775 99.9404 243.228 99.9404H241.085V108.919H239.866ZM248.037 108.919H246.759L250.455 98.8598H251.714L255.41 108.919H254.132L251.124 100.452H251.045L248.037 108.919ZM248.509 104.99H253.66V106.07H248.509V104.99ZM263.385 102.004C263.277 101.673 263.135 101.376 262.958 101.114C262.784 100.849 262.576 100.623 262.333 100.437C262.095 100.25 261.822 100.107 261.518 100.01C261.213 99.911 260.879 99.862 260.515 99.862C259.919 99.862 259.377 100.016 258.888 100.324C258.4 100.631 258.012 101.085 257.723 101.684C257.435 102.284 257.291 103.018 257.291 103.89C257.291 104.761 257.437 105.496 257.728 106.095C258.02 106.694 258.415 107.148 258.913 107.455C259.411 107.763 259.971 107.917 260.593 107.917C261.17 107.917 261.678 107.794 262.117 107.549C262.559 107.3 262.904 106.949 263.149 106.497C263.398 106.043 263.523 105.507 263.523 104.891L263.897 104.97H260.869V103.89H264.702V104.97C264.702 105.798 264.526 106.519 264.172 107.131C263.821 107.743 263.336 108.218 262.717 108.555C262.101 108.89 261.393 109.057 260.593 109.057C259.702 109.057 258.919 108.847 258.244 108.428C257.573 108.009 257.049 107.413 256.671 106.64C256.298 105.868 256.111 104.951 256.111 103.89C256.111 103.094 256.218 102.379 256.431 101.743C256.647 101.104 256.952 100.561 257.345 100.113C257.738 99.6637 258.203 99.3203 258.741 99.0811C259.278 98.8419 259.87 98.7227 260.515 98.7227C261.046 98.7227 261.54 98.8028 261.999 98.963C262.461 99.1203 262.873 99.3445 263.233 99.6361C263.597 99.9242 263.9 100.269 264.142 100.672C264.385 101.072 264.552 101.515 264.644 102.004H263.385ZM266.79 108.919V98.8598H272.865V99.9404H268.009V103.339H272.551V104.42H268.009V107.839H272.944V108.919H266.79ZM286.937 98.8598V108.919H285.757L280.272 101.021H280.174V108.919H278.955V98.8598H280.135L285.639 106.778H285.737V98.8598H286.937ZM297.869 103.89C297.869 104.951 297.677 105.868 297.294 106.64C296.91 107.413 296.384 108.009 295.716 108.428C295.048 108.847 294.284 109.057 293.425 109.057C292.567 109.057 291.804 108.847 291.135 108.428C290.466 108.009 289.941 107.413 289.558 106.64C289.174 105.868 288.983 104.951 288.983 103.89C288.983 102.829 289.174 101.912 289.558 101.139C289.941 100.366 290.466 99.7704 291.135 99.3514C291.804 98.9318 292.567 98.7227 293.425 98.7227C294.284 98.7227 295.048 98.9318 295.716 99.3514C296.384 99.7704 296.91 100.366 297.294 101.139C297.677 101.912 297.869 102.829 297.869 103.89ZM296.689 103.89C296.689 103.018 296.543 102.284 296.252 101.684C295.963 101.085 295.572 100.631 295.077 100.324C294.586 100.016 294.035 99.862 293.425 99.862C292.816 99.862 292.264 100.016 291.769 100.324C291.278 100.631 290.886 101.085 290.594 101.684C290.306 102.284 290.162 103.018 290.162 103.89C290.162 104.761 290.306 105.496 290.594 106.095C290.886 106.694 291.278 107.148 291.769 107.455C292.264 107.763 292.816 107.917 293.425 107.917C294.035 107.917 294.586 107.763 295.077 107.455C295.572 107.148 295.963 106.694 296.252 106.095C296.543 105.496 296.689 104.761 296.689 103.89ZM298.949 99.9404V98.8598H306.498V99.9404H303.333V108.919H302.114V99.9404H298.949ZM312.272 108.919V98.8598H318.307V99.9404H313.491V103.339H317.855V104.42H313.491V108.919H312.272ZM328.888 103.89C328.888 104.951 328.696 105.868 328.313 106.64C327.93 107.413 327.404 108.009 326.735 108.428C326.067 108.847 325.304 109.057 324.445 109.057C323.587 109.057 322.823 108.847 322.155 108.428C321.486 108.009 320.96 107.413 320.577 106.64C320.193 105.868 320.002 104.951 320.002 103.89C320.002 102.829 320.193 101.912 320.577 101.139C320.96 100.366 321.486 99.7704 322.155 99.3514C322.823 98.9318 323.587 98.7227 324.445 98.7227C325.304 98.7227 326.067 98.9318 326.735 99.3514C327.404 99.7704 327.93 100.366 328.313 101.139C328.696 101.912 328.888 102.829 328.888 103.89ZM327.708 103.89C327.708 103.018 327.562 102.284 327.271 101.684C326.983 101.085 326.591 100.631 326.096 100.324C325.605 100.016 325.054 99.862 324.445 99.862C323.835 99.862 323.283 100.016 322.789 100.324C322.297 100.631 321.906 101.085 321.614 101.684C321.326 102.284 321.181 103.018 321.181 103.89C321.181 104.761 321.326 105.496 321.614 106.095C321.906 106.694 322.297 107.148 322.789 107.455C323.283 107.763 323.835 107.917 324.445 107.917C325.054 107.917 325.605 107.763 326.096 107.455C326.591 107.148 326.983 106.694 327.271 106.095C327.562 105.496 327.708 104.761 327.708 103.89ZM337.543 98.8598H338.762V105.52C338.762 106.208 338.6 106.822 338.276 107.362C337.954 107.899 337.5 108.323 336.914 108.634C336.327 108.942 335.639 109.096 334.85 109.096C334.061 109.096 333.372 108.942 332.785 108.634C332.199 108.323 331.743 107.899 331.419 107.362C331.098 106.822 330.938 106.208 330.938 105.52V98.8598H332.156V105.422C332.156 105.913 332.265 106.351 332.481 106.733C332.697 107.113 333.005 107.413 333.405 107.632C333.808 107.848 334.289 107.957 334.85 107.957C335.41 107.957 335.892 107.848 336.295 107.632C336.698 107.413 337.006 107.113 337.219 106.733C337.435 106.351 337.543 105.913 337.543 105.422V98.8598ZM349.178 98.8598V108.919H347.998L342.514 101.021H342.415V108.919H341.196V98.8598H342.376L347.881 106.778H347.979V98.8598H349.178ZM354.723 108.919H351.617V98.8598H354.861C355.837 98.8598 356.673 99.0615 357.368 99.4643C358.062 99.8637 358.595 100.438 358.965 101.188C359.336 101.935 359.521 102.829 359.521 103.87C359.521 104.918 359.334 105.82 358.96 106.576C358.586 107.329 358.043 107.909 357.329 108.315C356.614 108.718 355.746 108.919 354.723 108.919ZM352.836 107.839H354.645C355.477 107.839 356.167 107.678 356.714 107.357C357.261 107.036 357.669 106.579 357.938 105.987C358.206 105.394 358.341 104.688 358.341 103.87C358.341 103.058 358.208 102.359 357.943 101.772C357.678 101.183 357.281 100.732 356.753 100.417C356.226 100.099 355.569 99.9404 354.783 99.9404H352.836V107.839Z" fill="black"/>
</svg>
