<svg width="64" height="64" viewBox="0 0 64 64" fill="none" xmlns="http://www.w3.org/2000/svg">
<rect width="64" height="64" rx="32" fill="#36004E"/>
<path fill-rule="evenodd" clip-rule="evenodd" d="M32 17C33.1427 17 34.069 17.9263 34.069 19.069V29.931H44.931C46.0737 29.931 47 30.8574 47 32C47 33.1427 46.0737 34.069 44.931 34.069H34.069V44.931C34.069 46.0737 33.1427 47 32 47C30.8574 47 29.931 46.0737 29.931 44.931V34.069H19.069C17.9263 34.069 17 33.1427 17 32C17 30.8574 17.9263 29.931 19.069 29.931H29.931V19.069C29.931 17.9263 30.8574 17 32 17Z" fill="white"/>
</svg>
