<svg width="64" height="64" viewBox="0 0 64 64" fill="none" xmlns="http://www.w3.org/2000/svg">
<rect width="64" height="64" rx="32" fill="#36004E"/>
<mask id="mask0_1094_6935" style="mask-type:alpha" maskUnits="userSpaceOnUse" x="20" y="20" width="24" height="24">
<rect x="20" y="20" width="24" height="24" fill="#D9D9D9"/>
</mask>
<g mask="url(#mask0_1094_6935)">
<path d="M34 33C33.1667 33 32.4583 32.7083 31.875 32.125C31.2917 31.5417 31 30.8333 31 30C31 29.1667 31.2917 28.4583 31.875 27.875C32.4583 27.2917 33.1667 27 34 27C34.8333 27 35.5417 27.2917 36.125 27.875C36.7083 28.4583 37 29.1667 37 30C37 30.8333 36.7083 31.5417 36.125 32.125C35.5417 32.7083 34.8333 33 34 33ZM27 36C26.45 36 25.9792 35.8042 25.5875 35.4125C25.1958 35.0208 25 34.55 25 34V26C25 25.45 25.1958 24.9792 25.5875 24.5875C25.9792 24.1958 26.45 24 27 24H41C41.55 24 42.0208 24.1958 42.4125 24.5875C42.8042 24.9792 43 25.45 43 26V34C43 34.55 42.8042 35.0208 42.4125 35.4125C42.0208 35.8042 41.55 36 41 36H27ZM29 34H39C39 33.45 39.1958 32.9792 39.5875 32.5875C39.9792 32.1958 40.45 32 41 32V28C40.45 28 39.9792 27.8042 39.5875 27.4125C39.1958 27.0208 39 26.55 39 26H29C29 26.55 28.8042 27.0208 28.4125 27.4125C28.0208 27.8042 27.55 28 27 28V32C27.55 32 28.0208 32.1958 28.4125 32.5875C28.8042 32.9792 29 33.45 29 34ZM40 40H23C22.45 40 21.9792 39.8042 21.5875 39.4125C21.1958 39.0208 21 38.55 21 38V27H23V38H40V40Z" fill="white"/>
</g>
</svg>
